<svg width="2988" height="2058" xmlns="http://www.w3.org/2000/svg" xmlns:xlink="http://www.w3.org/1999/xlink" xml:space="preserve" overflow="hidden"><g transform="translate(-504 -325)"><g><path d="M2.36186-2.4976 72.9526 64.2566 68.2289 69.2518-2.36186 2.4976ZM76.708 53.6147 87.2414 82.5 57.8131 73.5955Z" fill="#000000" fill-rule="nonzero" fill-opacity="1" transform="matrix(-1 0 0 1 1036.74 1992.5)"/><path d="M1036.5 1989.06 1146.34 1989.06 1146.34 1995.94 1036.5 1995.94ZM1141.76 1978.75 1169.26 1992.5 1141.76 2006.25Z" fill="#000000" fill-rule="nonzero" fill-opacity="1"/><path d="M3.4375-8.89956e-06 3.4378 116.48-3.4372 116.48-3.4375 8.89956e-06ZM13.7503 111.896 0.000360892 139.396-13.7497 111.897Z" fill="#000000" fill-rule="nonzero" fill-opacity="1" transform="matrix(1 0 0 -1 1036.5 1991.9)"/><text fill="#000000" fill-opacity="1" font-family="Arial,Arial_MSFontService,sans-serif" font-style="normal" font-variant="normal" font-weight="400" font-stretch="normal" font-size="55" text-anchor="start" direction="ltr" writing-mode="lr-tb" unicode-bidi="normal" text-decoration="none" transform="matrix(1 0 0 1 1069.47 2061)">ECM Tip</text><path d="M2.36186-2.4976 72.9526 64.2566 68.2289 69.2518-2.36186 2.4976ZM76.708 53.6147 87.2414 82.5 57.8131 73.5955Z" fill="#000000" fill-rule="nonzero" fill-opacity="1" transform="matrix(-1 0 0 1 1544.74 1252.5)"/><path d="M1545.5 1249.06 1655.34 1249.06 1655.34 1255.94 1545.5 1255.94ZM1650.76 1238.75 1678.26 1252.5 1650.76 1266.25Z" fill="#000000" fill-rule="nonzero" fill-opacity="1"/><path d="M3.4375-8.89956e-06 3.4378 116.48-3.4372 116.48-3.4375 8.89956e-06ZM13.7503 111.896 0.000360892 139.396-13.7497 111.897Z" fill="#000000" fill-rule="nonzero" fill-opacity="1" transform="matrix(1 0 0 -1 1545.5 1251.9)"/><text fill="#000000" fill-opacity="1" font-family="Arial,Arial_MSFontService,sans-serif" font-style="normal" font-variant="normal" font-weight="400" font-stretch="normal" font-size="55" text-anchor="start" direction="ltr" writing-mode="lr-tb" unicode-bidi="normal" text-decoration="none" transform="matrix(1 0 0 1 1577.74 1321)">ECM RCM</text><path d="M2.36186-2.4976 72.9526 64.2566 68.2289 69.2518-2.36186 2.4976ZM76.708 53.6147 87.2414 82.5 57.8131 73.5955Z" fill="#000000" fill-rule="nonzero" fill-opacity="1" transform="matrix(-1 0 0 1 3041.74 1958.5)"/><path d="M3041.5 1955.06 3151.34 1955.06 3151.34 1961.94 3041.5 1961.94ZM3146.76 1944.75 3174.26 1958.5 3146.76 1972.25Z" fill="#000000" fill-rule="nonzero" fill-opacity="1"/><path d="M3.4375-8.89956e-06 3.4378 116.48-3.4372 116.48-3.4375 8.89956e-06ZM13.7503 111.896 0.000360892 139.396-13.7497 111.897Z" fill="#000000" fill-rule="nonzero" fill-opacity="1" transform="matrix(1 0 0 -1 3041.5 1958.9)"/><text fill="#000000" fill-opacity="1" font-family="Arial,Arial_MSFontService,sans-serif" font-style="normal" font-variant="normal" font-weight="400" font-stretch="normal" font-size="55" text-anchor="start" direction="ltr" writing-mode="lr-tb" unicode-bidi="normal" text-decoration="none" transform="matrix(1 0 0 1 3074.12 2028)">PSM Tip</text><path d="M2.36186-2.4976 72.9526 64.2566 68.2289 69.2518-2.36186 2.4976ZM76.708 53.6147 87.2414 82.5 57.8131 73.5955Z" fill="#000000" fill-rule="nonzero" fill-opacity="1" transform="matrix(-1 0 0 1 2542.74 1252.5)"/><path d="M2542.5 1249.06 2652.34 1249.06 2652.34 1255.94 2542.5 1255.94ZM2647.76 1238.75 2675.26 1252.5 2647.76 1266.25Z" fill="#000000" fill-rule="nonzero" fill-opacity="1"/><path d="M3.4375-8.89956e-06 3.4378 116.48-3.4372 116.48-3.4375 8.89956e-06ZM13.7503 111.896 0.000360892 139.396-13.7497 111.897Z" fill="#000000" fill-rule="nonzero" fill-opacity="1" transform="matrix(1 0 0 -1 2542.5 1251.9)"/><text fill="#000000" fill-opacity="1" font-family="Arial,Arial_MSFontService,sans-serif" font-style="normal" font-variant="normal" font-weight="400" font-stretch="normal" font-size="55" text-anchor="start" direction="ltr" writing-mode="lr-tb" unicode-bidi="normal" text-decoration="none" transform="matrix(1 0 0 1 2575.33 1321)">PSM RCM</text><path d="M2.36186-2.4976 72.9526 64.2566 68.2289 69.2518-2.36186 2.4976ZM76.708 53.6147 87.2414 82.5 57.8131 73.5955Z" fill="#000000" fill-rule="nonzero" fill-opacity="1" transform="matrix(-1 0 0 1 2043.74 523.5)"/><path d="M2044.5 520.063 2154.34 520.063 2154.34 526.938 2044.5 526.938ZM2149.76 509.75 2177.26 523.5 2149.76 537.25Z" fill="#000000" fill-rule="nonzero" fill-opacity="1"/><path d="M3.4375-8.89956e-06 3.4378 116.48-3.4372 116.48-3.4375 8.89956e-06ZM13.7503 111.896 0.000360892 139.396-13.7497 111.897Z" fill="#000000" fill-rule="nonzero" fill-opacity="1" transform="matrix(1 0 0 -1 2044.5 523.897)"/><text fill="#000000" fill-opacity="1" font-family="Arial,Arial_MSFontService,sans-serif" font-style="normal" font-variant="normal" font-weight="400" font-stretch="normal" font-size="55" text-anchor="start" direction="ltr" writing-mode="lr-tb" unicode-bidi="normal" text-decoration="none" transform="matrix(1 0 0 1 2076.53 593)">World</text><rect x="514.5" y="339.5" width="659" height="222" stroke="#000000" stroke-width="3.4375" stroke-linecap="butt" stroke-linejoin="round" stroke-miterlimit="10" stroke-opacity="1" fill="none"/><text fill="#000000" fill-opacity="1" font-family="Arial,Arial_MSFontService,sans-serif" font-style="normal" font-variant="normal" font-weight="400" font-stretch="normal" font-size="83" text-anchor="start" direction="ltr" writing-mode="lr-tb" unicode-bidi="normal" text-decoration="none" transform="matrix(1 0 0 1 742.503 431)">Fixed</text><text fill="#000000" fill-opacity="1" font-family="Arial,Arial_MSFontService,sans-serif" font-style="normal" font-variant="normal" font-weight="400" font-stretch="normal" font-size="83" text-anchor="start" direction="ltr" writing-mode="lr-tb" unicode-bidi="normal" text-decoration="none" transform="matrix(1 0 0 1 616.461 520)">Setup Joints</text><path d="M2069.86 493.411 2093.15 485.858 2096.21 485.022 2098.03 491.653 2095.04 492.468 2095.2 492.422 2071.98 499.951ZM2116.11 479.583 2116.67 479.431 2140.28 474.139 2143.27 473.612 2144.47 480.382 2141.55 480.896 2141.71 480.865 2118.25 486.122 2118.4 486.083 2117.92 486.215ZM2163.59 470.033 2163.96 469.967 2187.66 466.899 2191.18 466.604 2191.76 473.455 2188.31 473.744 2188.46 473.727 2164.92 476.775 2165.07 476.751 2164.78 476.803ZM2211.89 464.898 2234.97 464.012 2239.53 464.04 2239.49 470.915 2235.01 470.887 2235.16 470.884 2212.16 471.768ZM2260.3 464.252 2281.91 465.351 2287.9 465.923 2287.25 472.767 2281.33 472.202 2281.48 472.213 2259.96 471.118ZM2308.57 468.047 2328.15 470.791 2335.89 472.226 2334.64 478.985 2326.98 477.565 2327.13 477.589 2307.61 474.855ZM2356.27 476.247 2373.4 480.207 2383.11 482.906 2381.26 489.53 2371.63 486.851 2371.78 486.888 2354.73 482.946ZM2403.02 488.804 2417.33 493.472 2429.13 497.908 2426.71 504.343 2414.98 499.934 2415.12 499.985 2400.89 495.34ZM2448.4 505.657 2459.64 510.463 2473.54 517.164 2470.55 523.357 2456.72 516.69 2456.86 516.754 2445.7 511.978ZM2491.98 526.731 2500 531.056 2515.91 540.591 2512.37 546.488 2496.54 536.992 2496.67 537.07 2488.72 532.783ZM2533.32 551.935 2538.12 555.125 2555.77 568.082 2551.7 573.624 2534.12 560.715 2534.25 560.807 2529.51 557.661ZM2571.94 581.145 2573.68 582.548 2590.39 597.479 2592.66 599.717 2587.84 604.615 2585.63 602.435 2585.75 602.55 2569.16 587.731 2569.28 587.839 2567.61 586.487ZM2607.42 614.367 2621.51 629.699 2625.89 634.971 2620.6 639.362 2616.28 634.156 2616.39 634.287 2602.36 619.019ZM2638.96 651.144 2649.28 664.962 2655.08 673.634 2649.36 677.456 2643.61 668.858 2643.72 669.004 2633.45 655.258ZM2666.26 691.174 2673.38 703.14 2679.77 715.322 2673.69 718.518 2667.33 706.417 2667.42 706.577 2660.35 694.689ZM2688.88 734.027 2693.49 744.093 2699.54 759.111 2699.72 759.611 2693.25 761.93 2693.09 761.493 2693.14 761.619 2687.14 746.737 2687.2 746.884 2682.63 736.891ZM2706.53 779.22 2709.74 789.442 2713.9 804.738 2714.17 805.908 2707.47 807.452 2707.22 806.347 2707.25 806.478 2703.13 791.312 2703.16 791.441 2699.97 781.283ZM2718.6 826.188 2720.37 835.516 2722.67 850.97 2722.96 853.604 2716.12 854.352 2715.84 851.784 2715.86 851.917 2713.58 836.597 2713.6 836.73 2711.84 827.468ZM2724.91 874.268 2725.45 881.932 2725.92 897.411 2725.89 902.01 2719.01 901.954 2719.05 897.423 2719.05 897.556 2718.58 882.211 2718.58 882.345 2718.05 874.748ZM2725.33 922.757 2725.07 928.294 2723.75 943.668 2722.91 950.408 2716.09 949.555 2716.92 942.881 2716.91 943.013 2718.22 927.772 2718.21 927.905 2718.47 922.434ZM2719.87 970.938 2719.34 974.208 2716.25 989.345 2714.11 998.089 2707.43 996.457 2709.55 987.777 2709.52 987.905 2712.59 972.897 2712.56 973.027 2713.09 969.823ZM2708.65 1018.11 2708.32 1019.28 2703.49 1034.05 2699.67 1044.37 2693.23 1041.99 2697.02 1031.73 2696.98 1031.85 2701.77 1017.21 2701.73 1017.33 2702.04 1016.23ZM2691.84 1063.73 2685.58 1077.39 2679.9 1088.64 2673.76 1085.54 2679.41 1074.35 2679.35 1074.46 2685.58 1060.87ZM2669.84 1106.94 2662.6 1118.96 2655.15 1130.33 2649.4 1126.57 2656.81 1115.25 2656.74 1115.36 2663.95 1103.39ZM2643.08 1147.37 2634.64 1158.39 2625.89 1168.98 2620.59 1164.6 2629.3 1154.06 2629.22 1154.16 2637.63 1143.19ZM2612.03 1184.59 2601.79 1195.27 2594.9 1201.96 2590.12 1197.03 2596.96 1190.38 2596.87 1190.47 2607.06 1179.84ZM2638.97 1190.53 2587.43 1204.42 2602.86 1153.33C2603.41 1151.51 2605.33 1150.48 2607.15 1151.03 2608.97 1151.58 2609.99 1153.5 2609.44 1155.32L2595.8 1200.49 2591.61 1196.18 2637.18 1183.9C2639.01 1183.4 2640.9 1184.49 2641.39 1186.32 2641.89 1188.15 2640.8 1190.04 2638.97 1190.53Z" fill="#156082" fill-rule="nonzero" fill-opacity="1"/><rect x="2357.5" y="721.5" width="670" height="100" stroke="#156082" stroke-width="3.4375" stroke-linecap="butt" stroke-linejoin="round" stroke-miterlimit="10" stroke-opacity="1" fill="#FFFFFF" fill-opacity="1"/><text fill="#156082" fill-opacity="1" font-family="Courier New,Courier New_MSFontService,sans-serif" font-style="normal" font-variant="normal" font-weight="400" font-stretch="normal" font-size="55" text-anchor="start" direction="ltr" writing-mode="lr-tb" unicode-bidi="normal" text-decoration="none" transform="matrix(1 0 0 1 2389.56 785)">/SUJ/PSM/local/*cp</text><path d="M2590.16 1214.45 2613.48 1206.89 2616.52 1206.06 2618.33 1212.69 2615.37 1213.5 2615.53 1213.45 2592.28 1220.99ZM2636.41 1200.62 2637.02 1200.45 2660.66 1195.15 2663.58 1194.64 2664.77 1201.41 2661.93 1201.91 2662.08 1201.88 2638.6 1207.14 2638.76 1207.11 2638.22 1207.25ZM2683.89 1191.06 2684.36 1190.98 2708.08 1187.9 2711.48 1187.62 2712.06 1194.47 2708.73 1194.75 2708.89 1194.73 2685.32 1197.78 2685.48 1197.76 2685.08 1197.83ZM2732.19 1185.91 2755.45 1185.01 2759.83 1185.04 2759.78 1191.91 2755.48 1191.89 2755.63 1191.89 2732.46 1192.78ZM2780.6 1185.24 2802.43 1186.35 2808.2 1186.9 2807.55 1193.75 2801.85 1193.2 2802.01 1193.21 2780.25 1192.11ZM2828.87 1189.01 2848.73 1191.8 2856.2 1193.18 2854.95 1199.94 2847.55 1198.57 2847.7 1198.59 2827.91 1195.82ZM2876.58 1197.19 2894.02 1201.22 2903.42 1203.83 2901.57 1210.46 2892.25 1207.87 2892.39 1207.9 2875.03 1203.89ZM2923.34 1209.72 2937.99 1214.5 2949.45 1218.81 2947.03 1225.24 2935.65 1220.96 2935.79 1221.01 2921.2 1216.25ZM2968.73 1226.54 2980.34 1231.51 2993.87 1238.03 2990.89 1244.22 2977.43 1237.74 2977.57 1237.8 2966.02 1232.86ZM3012.32 1247.58 3020.76 1252.12 3036.26 1261.42 3032.72 1267.32 3017.29 1258.06 3017.42 1258.14 3009.06 1253.63ZM3053.68 1272.75 3058.91 1276.22 3076.15 1288.87 3072.08 1294.42 3054.91 1281.81 3055.04 1281.9 3049.88 1278.47ZM3092.34 1301.92 3094.51 1303.67 3111.24 1318.62 3113.1 1320.45 3108.27 1325.35 3106.48 1323.58 3106.6 1323.69 3089.99 1308.86 3090.11 1308.96 3088.01 1307.26ZM3127.87 1335.08 3142.39 1350.88 3146.36 1355.66 3141.07 1360.05 3137.16 1355.33 3137.27 1355.46 3122.81 1339.73ZM3159.46 1371.81 3170.19 1386.18 3175.61 1394.28 3169.9 1398.1 3164.53 1390.07 3164.63 1390.22 3153.95 1375.93ZM3186.82 1411.8 3194.32 1424.4 3200.37 1435.93 3194.28 1439.13 3188.27 1427.68 3188.36 1427.84 3180.91 1415.32ZM3209.51 1454.62 3214.45 1465.4 3220.36 1480.06 3213.98 1482.62 3208.1 1468.04 3208.17 1468.19 3203.26 1457.48ZM3227.25 1499.77 3230.72 1510.8 3234.89 1526.11 3234.97 1526.45 3228.27 1527.99 3228.2 1527.72 3228.24 1527.85 3224.11 1512.67 3224.14 1512.8 3220.69 1501.84ZM3239.42 1546.72 3241.36 1556.92 3243.67 1572.39 3243.85 1574.12 3237.02 1574.87 3236.84 1573.21 3236.86 1573.34 3234.57 1558.01 3234.59 1558.14 3232.67 1548ZM3245.84 1594.78 3246.45 1603.39 3246.93 1618.89 3246.9 1622.52 3240.02 1622.47 3240.05 1618.9 3240.05 1619.03 3239.58 1603.67 3239.58 1603.8 3238.99 1595.26ZM3246.38 1643.27 3246.08 1649.81 3244.75 1665.2 3244.04 1670.93 3237.22 1670.08 3237.92 1664.41 3237.91 1664.54 3239.22 1649.28 3239.21 1649.42 3239.52 1642.95ZM3241.04 1691.47 3240.33 1695.77 3237.24 1710.93 3235.36 1718.63 3228.68 1717 3230.55 1709.36 3230.52 1709.49 3233.58 1694.46 3233.56 1694.59 3234.26 1690.35ZM3229.94 1738.67 3229.31 1740.89 3224.47 1755.68 3221.05 1764.96 3214.6 1762.57 3218 1753.36 3217.96 1753.48 3222.75 1738.82 3222.72 1738.95 3223.33 1736.78ZM3213.32 1784.22 3213.09 1784.78 3206.55 1799.07 3201.39 1809.28 3195.26 1806.18 3200.38 1796.03 3200.32 1796.15 3206.81 1781.98 3206.76 1782.1 3206.97 1781.59ZM3191.42 1827.62 3183.54 1840.69 3176.77 1851.04 3171.02 1847.28 3177.76 1836.98 3177.69 1837.09 3185.53 1824.07ZM3164.78 1868.13 3155.56 1880.17 3147.62 1889.78 3142.32 1885.4 3150.22 1875.84 3150.14 1875.93 3159.32 1863.95ZM3133.84 1905.45 3122.68 1917.09 3115.78 1923.79 3110.99 1918.86 3117.85 1912.2 3117.76 1912.29 3128.87 1900.7ZM3159.84 1912.36 3108.31 1926.26 3123.74 1875.16C3124.28 1873.34 3126.2 1872.31 3128.02 1872.86 3129.84 1873.41 3130.87 1875.33 3130.32 1877.15L3116.68 1922.32 3112.49 1918.01 3158.05 1905.72C3159.89 1905.23 3161.77 1906.31 3162.27 1908.15 3162.76 1909.98 3161.68 1911.87 3159.84 1912.36Z" fill="#4EA72E" fill-rule="nonzero" fill-opacity="1"/><rect x="2954.5" y="1523.5" width="536" height="100" stroke="#4EA72E" stroke-width="3.4375" stroke-linecap="butt" stroke-linejoin="round" stroke-miterlimit="10" stroke-opacity="1" fill="#FFFFFF" fill-opacity="1"/><text fill="#4EA72E" fill-opacity="1" font-family="Courier New,Courier New_MSFontService,sans-serif" font-style="normal" font-variant="normal" font-weight="400" font-stretch="normal" font-size="55" text-anchor="start" direction="ltr" writing-mode="lr-tb" unicode-bidi="normal" text-decoration="none" transform="matrix(1 0 0 1 2986.88 1588)">/PSM/local/*cp</text><path d="M305.663 25.9512 328.982 18.3884 332.017 17.5587 333.83 24.1903 330.873 24.9988 331.027 24.9529 307.784 32.4908ZM351.912 12.1192 352.519 11.9531 376.158 6.65457 379.076 6.14029 380.269 12.9109 377.429 13.4115 377.584 13.3804 354.1 18.6443 354.255 18.6058 353.725 18.7508ZM399.387 2.56012 399.859 2.47697 423.584-0.595419 426.983-0.879731 427.556 5.97135 424.234 6.24916 424.389 6.23266 400.82 9.28495 400.975 9.26123 400.581 9.33074ZM447.692-2.59371 470.946-3.48764 475.328-3.45999 475.285 3.41487 470.979 3.38771 471.133 3.38524 447.956 4.27622ZM496.104-3.25775 517.931-2.14826 523.702-1.59802 523.049 5.24594 517.354 4.70292 517.506 4.71401 495.755 3.60838ZM544.368 0.514929 564.225 3.29667 571.698 4.68127 570.446 11.4412 563.047 10.0704 563.197 10.0947 543.414 7.32345ZM592.08 8.69018 609.517 12.7215 618.915 15.3348 617.073 21.9584 607.748 19.3654 607.895 19.4027 590.532 15.3885ZM638.836 21.2187 653.494 26.0008 664.945 30.3067 662.526 36.7418 651.146 32.4627 651.29 32.5132 636.704 27.7546ZM684.226 38.0395 695.845 43.0099 709.372 49.5297 706.387 55.7229 692.929 49.2367 693.07 49.3005 681.522 44.3605ZM727.823 59.0793 736.255 63.6245 751.76 72.9212 748.224 78.8175 732.787 69.5612 732.924 69.6389 724.561 65.1311ZM769.183 84.2457 774.413 87.7203 791.649 100.374 787.581 105.916 770.41 93.3099 770.542 93.4022 765.379 89.9721ZM807.836 113.416 810.005 115.174 826.74 130.12 828.595 131.948 823.77 136.845 821.975 135.077 822.098 135.192 805.487 120.356 805.613 120.464 803.508 118.759ZM843.375 146.577 857.893 162.377 861.862 167.16 856.572 171.551 852.658 166.834 852.772 166.965 838.312 151.228ZM874.962 183.312 885.691 197.679 891.11 205.782 885.395 209.604 880.025 201.575 880.129 201.721 869.453 187.426ZM902.32 223.302 909.817 235.9 915.871 247.431 909.784 250.627 903.772 239.177 903.862 239.337 896.412 226.818ZM925.01 266.118 929.949 276.9 935.855 291.556 929.478 294.125 923.602 279.543 923.666 279.69 918.76 268.982ZM942.753 311.275 946.222 322.299 950.389 337.611 950.466 337.946 943.766 339.49 943.704 339.221 943.737 339.352 939.606 324.169 939.644 324.298 936.195 313.338ZM954.923 358.218 956.858 368.424 959.166 383.895 959.355 385.624 952.521 386.372 952.339 384.71 952.356 384.843 950.068 369.505 950.09 369.638 948.169 359.498ZM961.344 406.284 961.947 414.892 962.425 430.389 962.396 434.024 955.521 433.968 955.55 430.401 955.551 430.534 955.077 415.171 955.084 415.305 954.486 406.765ZM961.883 454.772 961.576 461.306 960.254 476.698 959.538 482.43 952.716 481.577 953.424 475.911 953.41 476.043 954.72 460.785 954.711 460.918 955.015 454.45ZM956.541 502.966 955.833 507.272 952.741 522.427 950.858 530.133 944.18 528.502 946.047 520.859 946.018 520.987 949.084 505.963 949.06 506.092 949.757 501.851ZM945.444 550.167 944.808 552.395 939.975 567.181 936.547 576.457 930.099 574.074 933.503 564.859 933.461 564.983 938.253 550.321 938.215 550.447 938.833 548.282ZM928.823 595.718 928.59 596.282 922.046 610.568 916.895 620.778 910.757 617.681 915.878 607.529 915.822 607.646 922.313 593.478 922.261 593.596 922.469 593.093ZM906.919 639.12 899.044 652.194 892.273 662.541 886.52 658.777 893.256 648.483 893.188 648.592 901.03 635.573ZM880.279 679.629 871.059 691.666 863.12 701.275 857.82 696.896 865.719 687.336 865.64 687.436 874.821 675.449ZM849.335 716.951 838.184 728.593 831.281 735.293 826.492 730.36 833.351 723.703 833.262 723.792 844.371 712.196ZM875.343 723.861 823.807 737.756 839.236 686.659C839.784 684.842 841.703 683.813 843.52 684.362 845.338 684.911 846.366 686.829 845.817 688.646L832.177 733.82 827.992 729.508 873.553 717.223C875.386 716.729 877.272 717.814 877.767 719.647 878.261 721.48 877.176 723.367 875.343 723.861Z" fill="#156082" fill-rule="nonzero" fill-opacity="1" transform="matrix(-1 0 0 1 2329.5 472.5)"/><path d="M305.839 25.856 329.16 18.3102 332.198 17.4819 334.007 24.1146 331.047 24.9219 331.201 24.876 307.955 32.3972ZM352.096 12.0553 352.7 11.8906 376.341 6.60643 379.263 6.09298 380.453 12.8643 377.608 13.364 377.763 13.3331 354.277 18.5827 354.432 18.5443 353.905 18.6881ZM399.577 2.52396 400.044 2.44197 423.77-0.618553 427.174-0.901778 427.744 5.94956 424.417 6.22633 424.572 6.20991 401.001 9.25044 401.156 9.22683 400.767 9.29525ZM447.884-2.60628 471.133-3.49083 475.52-3.46165 475.474 3.4132 471.164 3.38453 471.317 3.38212 448.145 4.26375ZM496.295-3.25213 518.117-2.13654 523.893-1.58439 523.238 5.25941 517.538 4.71449 517.69 4.72561 495.944 3.6139ZM544.558 0.533641 564.408 3.3183 571.888 4.70519 570.634 11.465 563.229 10.0918 563.378 10.1161 543.603 7.34197ZM592.269 8.71716 609.696 12.748 619.103 15.3644 617.261 21.988 607.927 19.3919 608.073 19.4292 590.72 15.4153ZM639.024 21.2497 653.667 26.0275 665.132 30.3383 662.713 36.7735 651.319 32.4894 651.463 32.5398 636.891 27.7856ZM684.412 38.0712 696.01 43.0318 709.559 49.5605 706.575 55.754 693.095 49.2588 693.236 49.3225 681.709 44.3923ZM728.011 59.1093 736.412 63.6367 751.948 72.9495 748.414 78.8463 732.945 69.5739 733.081 69.6516 724.749 65.1615ZM769.372 84.273 774.56 87.7182 791.839 100.4 787.772 105.942 770.557 93.3085 770.689 93.4007 765.569 90.0001ZM808.026 113.441 810.14 115.152 826.869 130.088 828.784 131.975 823.96 136.873 822.105 135.045 822.228 135.16 805.623 120.336 805.749 120.443 803.7 118.784ZM843.563 146.604 858.008 162.318 862.05 167.188 856.76 171.579 852.773 166.776 852.887 166.907 838.501 151.256ZM875.147 183.342 885.791 197.59 891.292 205.814 885.578 209.637 880.126 201.487 880.229 201.633 869.639 187.457ZM902.497 223.337 909.901 235.776 916.041 247.47 909.955 250.666 903.857 239.053 903.946 239.213 896.589 226.853ZM925.171 266.162 930.016 276.736 936.007 291.604 929.63 294.173 923.669 279.38 923.732 279.527 918.921 269.026ZM942.885 311.33 946.272 322.097 950.433 337.397 950.573 338.008 943.874 339.55 943.748 339.005 943.781 339.136 939.656 323.966 939.694 324.096 936.327 313.393ZM955.015 358.284 956.888 368.182 959.19 383.639 959.414 385.695 952.58 386.44 952.363 384.451 952.38 384.585 950.098 369.262 950.121 369.394 948.26 359.562ZM961.382 406.358 961.956 414.607 962.428 430.089 962.393 434.099 955.519 434.04 955.552 430.097 955.554 430.231 955.087 414.883 955.093 415.018 954.524 406.835ZM961.854 454.847 961.563 460.976 960.233 476.352 959.461 482.5 952.639 481.643 953.403 475.561 953.389 475.694 954.707 460.451 954.698 460.584 954.987 454.52ZM956.433 503.032 955.796 506.895 952.694 522.033 950.695 530.188 944.018 528.551 946.002 520.46 945.973 520.589 949.047 505.581 949.023 505.711 949.65 501.913ZM945.247 550.214 944.744 551.97 939.902 566.739 936.291 576.484 929.844 574.095 933.433 564.411 933.39 564.535 938.191 549.89 938.153 550.015 938.637 548.322ZM928.528 595.736 928.498 595.809 921.945 610.075 916.541 620.762 910.406 617.659 915.781 607.03 915.725 607.147 922.224 592.996 922.175 593.109 922.181 593.094ZM906.509 639.073 898.915 651.65 891.82 662.468 886.071 658.697 893.131 647.933 893.063 648.041 900.623 635.52ZM879.772 679.517 870.903 691.07 862.571 701.13 857.276 696.745 865.567 686.734 865.488 686.833 874.318 675.331ZM848.735 716.761 837.999 727.944 831.091 734.632 826.309 729.693 833.171 723.049 833.083 723.137 843.776 711.999ZM875.167 723.25 823.615 737.087 839.102 686.007C839.653 684.19 841.572 683.164 843.389 683.715 845.206 684.266 846.232 686.185 845.681 688.002L831.99 733.16 827.809 728.843 873.384 716.61C875.218 716.118 877.103 717.206 877.595 719.039 878.088 720.873 877 722.758 875.167 723.25Z" fill="#4EA72E" fill-rule="nonzero" fill-opacity="1" transform="matrix(-1 0 0 1 1807.5 1218.5)"/><rect x="1084.5" y="701.5" width="670" height="166" stroke="#156082" stroke-width="3.4375" stroke-linecap="butt" stroke-linejoin="round" stroke-miterlimit="10" stroke-opacity="1" fill="#FFFFFF" fill-opacity="1"/><text fill="#156082" fill-opacity="1" font-family="Courier New,Courier New_MSFontService,sans-serif" font-style="normal" font-variant="normal" font-weight="400" font-stretch="normal" font-size="55" text-anchor="start" direction="ltr" writing-mode="lr-tb" unicode-bidi="normal" text-decoration="none" transform="matrix(1 0 0 1 1116.63 765)">/SUJ/ECM/local/*cp</text><text fill="#156082" fill-opacity="1" font-family="Arial,Arial_MSFontService,sans-serif" font-style="normal" font-variant="normal" font-weight="400" font-stretch="normal" font-size="55" text-anchor="start" direction="ltr" writing-mode="lr-tb" unicode-bidi="normal" text-decoration="none" transform="matrix(1 0 0 1 1186.8 833)">=</text><text fill="#156082" fill-opacity="1" font-family="Courier New,Courier New_MSFontService,sans-serif" font-style="normal" font-variant="normal" font-weight="400" font-stretch="normal" font-size="55" text-anchor="start" direction="ltr" writing-mode="lr-tb" unicode-bidi="normal" text-decoration="none" transform="matrix(1 0 0 1 1252.11 833)">/SUJ/ECM/*cp</text><rect x="600.5" y="1523.5" width="536" height="100" stroke="#4EA72E" stroke-width="3.4375" stroke-linecap="butt" stroke-linejoin="round" stroke-miterlimit="10" stroke-opacity="1" fill="#FFFFFF" fill-opacity="1"/><text fill="#4EA72E" fill-opacity="1" font-family="Courier New,Courier New_MSFontService,sans-serif" font-style="normal" font-variant="normal" font-weight="400" font-stretch="normal" font-size="55" text-anchor="start" direction="ltr" writing-mode="lr-tb" unicode-bidi="normal" text-decoration="none" transform="matrix(1 0 0 1 633.003 1588)">/ECM/local/*cp</text><path d="M1001.51 3.90659 1018.44 6.82052 1028.66 8.98841 1027.24 15.7139 1017.08 13.5597 1017.21 13.5847 1000.34 10.682ZM1048.89 13.62 1062.14 16.9612 1075.54 20.8837 1073.61 27.482 1060.27 23.5777 1060.39 23.6117 1047.21 20.2862ZM1095.32 27.1442 1105.12 30.409 1121.32 36.4734 1118.91 42.9122 1102.77 36.8697 1102.89 36.9115 1093.15 33.6665ZM1140.55 44.2591 1147.33 47.0787 1165.77 55.5122 1162.91 61.7642 1144.53 53.3557 1144.64 53.404 1137.91 50.6075ZM1184.37 64.703 1188.73 66.885 1208.72 77.7237 1205.44 83.767 1185.51 72.9558 1185.61 73.0092 1181.29 70.853ZM1226.62 88.1914 1229.27 89.7426 1249.2 102.289 1250.11 102.904 1246.26 108.604 1245.4 108.02 1245.49 108.078 1225.65 95.5899 1225.75 95.6472 1223.14 94.1238ZM1267.21 114.433 1268.89 115.567 1288.34 129.564 1289.7 130.606 1285.52 136.065 1284.21 135.054 1284.29 135.115 1264.92 121.178 1265 121.238 1263.37 120.134ZM1306.08 143.145 1307.55 144.272 1326.51 159.679 1327.58 160.601 1323.1 165.812 1322.06 164.921 1322.14 164.984 1303.26 149.639 1303.33 149.701 1301.9 148.603ZM1343.21 174.056 1345.21 175.775 1363.65 192.549 1363.74 192.637 1358.98 197.596 1358.92 197.54 1358.99 197.603 1340.62 180.892 1340.69 180.955 1338.73 179.267ZM1378.62 206.92 1381.82 209.991 1398.09 226.458 1393.21 231.291 1376.96 214.856 1377.02 214.919 1373.86 211.88ZM1412.32 241.513 1417.32 246.836 1430.84 261.956 1425.71 266.538 1412.22 251.45 1412.28 251.513 1407.31 246.22ZM1444.37 277.633 1451.68 286.228 1461.95 298.879 1456.61 303.212 1446.37 290.591 1446.42 290.653 1439.13 282.09ZM1474.81 315.105 1484.85 328.081 1491.49 337.064 1485.96 341.149 1479.35 332.198 1479.39 332.259 1469.37 319.313ZM1503.7 353.774 1516.78 372.315 1519.51 376.365 1513.81 380.206 1511.1 376.188 1511.14 376.248 1498.09 357.737ZM1531.04 393.469 1532.27 395.299 1546 416.626 1540.22 420.348 1526.51 399.05 1526.55 399.111 1525.34 397.311ZM1556.89 434.224 1562.26 442.947 1571.04 457.884 1565.11 461.368 1556.35 446.461 1556.39 446.52 1551.04 437.827ZM1581.37 475.814 1590.89 492.767 1594.73 499.923 1588.68 503.174 1584.85 496.048 1584.88 496.106 1575.37 479.182ZM1604.49 518.096 1604.69 518.467 1617.07 542.621 1610.95 545.757 1598.58 521.632 1598.61 521.689 1598.43 521.347ZM1626.2 561.184 1631.2 571.392 1638.06 586.067 1631.83 588.976 1624.98 574.33 1625.01 574.386 1620.03 564.206ZM1646.7 604.86 1656.24 626.283 1657.85 630.064 1651.52 632.751 1649.93 628.998 1649.95 629.053 1640.42 607.658ZM1665.91 649.049 1668.2 654.44 1676.33 674.561 1669.96 677.137 1661.83 657.045 1661.86 657.1 1659.58 651.736ZM1683.9 693.809 1690.95 712.126 1693.67 719.577 1687.21 721.936 1684.5 714.513 1684.52 714.567 1677.48 696.276ZM1700.75 738.95 1701.73 741.635 1709.82 764.971 1703.32 767.223 1695.24 743.913 1695.26 743.967 1694.29 741.309ZM1716.38 784.583 1722.07 801.93 1724.83 810.809 1718.26 812.848 1715.52 803.996 1715.53 804.049 1709.84 786.728ZM1730.95 830.507 1731.63 832.697 1738.73 856.939 1732.13 858.872 1725.04 834.657 1725.05 834.709 1724.38 832.545ZM1744.34 876.842 1749.47 895.416 1751.54 903.437 1744.89 905.162 1742.82 897.167 1742.83 897.219 1737.71 878.671ZM1756.72 923.403 1757.74 927.348 1763.28 950.164 1756.59 951.785 1751.07 928.995 1751.08 929.047 1750.06 925.127ZM1767.99 970.298 1772.97 992.306 1773.99 997.187 1767.27 998.602 1766.24 993.747 1766.26 993.798 1761.28 971.815ZM1778.24 1017.37 1779.91 1025.31 1783.62 1044.39 1776.87 1045.7 1773.16 1026.65 1773.17 1026.7 1771.51 1018.79ZM1787.47 1064.71 1792.32 1091.78 1785.55 1092.99 1780.71 1065.92ZM1795.66 1112.18 1797.97 1126.31 1799.91 1139.4 1793.11 1140.41 1791.17 1127.34 1791.18 1127.39 1788.88 1113.29ZM1802.93 1159.8 1803.05 1160.6 1806.58 1187.11 1799.76 1188.02 1796.24 1161.53 1796.24 1161.58 1796.13 1160.81ZM1809.12 1207.63 1811.76 1230.06 1812.27 1235 1805.44 1235.7 1804.93 1230.79 1804.93 1230.84 1802.29 1208.44ZM1814.39 1255.52 1815.39 1265.2 1816.95 1282.95 1810.1 1283.55 1808.54 1265.83 1808.55 1265.88 1807.55 1256.22ZM1818.73 1303.54 1820.74 1330.97 1813.89 1331.47 1811.87 1304.05ZM1822.04 1351.6 1823.25 1372.19 1823.55 1379.11 1816.68 1379.42 1816.38 1372.52 1816.38 1372.57 1815.17 1352.01ZM1824.46 1399.72 1824.84 1408.34 1825.4 1427.25 1818.53 1427.45 1817.97 1408.57 1817.97 1408.62 1817.59 1400.02ZM1825.97 1447.92 1826.38 1475.42 1819.5 1475.52 1819.09 1448.02ZM1000.92 7.29429 1015.91 32.5278 973.687 3.48828 1022.25-12.8645Z" fill="#E97132" fill-rule="nonzero" fill-opacity="1" transform="matrix(0.996593 0.0824725 0.0824725 -0.996593 109.137 1857.69)"/><rect x="1659.5" y="1409.5" width="335" height="100" stroke="#E97132" stroke-width="3.4375" stroke-linecap="butt" stroke-linejoin="round" stroke-miterlimit="10" stroke-opacity="1" fill="#FFFFFF" fill-opacity="1"/><text fill="#E97132" fill-opacity="1" font-family="Courier New,Courier New_MSFontService,sans-serif" font-style="normal" font-variant="normal" font-weight="400" font-stretch="normal" font-size="55" text-anchor="start" direction="ltr" writing-mode="lr-tb" unicode-bidi="normal" text-decoration="none" transform="matrix(1 0 0 1 1691.78 1473)">/ECM/*cp</text><path d="M1629.59-3.29218 1657.09-3.29393 1657.09 3.58107 1629.59 3.58282ZM1677.72-3.29524 1692.27-3.29616 1705.28-3.05893 1705.15 3.81493 1692.18 3.57827 1692.24 3.57884 1677.72 3.57976ZM1725.9-2.68286 1753.4-2.18144 1753.27 4.69242 1725.77 4.191ZM1774.07-1.44783 1801.55-0.443734 1801.3 6.42668 1773.82 5.42258ZM1822.22 0.417199 1849.68 1.92424 1849.3 8.78891 1821.84 7.28187ZM1870.27 3.05453 1877.83 3.46944 1897.77 4.93146 1897.27 11.788 1877.36 10.3283 1877.43 10.3324 1869.9 9.9192ZM1918.34 6.43976 1938.66 7.9297 1945.82 8.58776 1945.19 15.4339 1938.06 14.7787 1938.13 14.784 1917.84 13.2964ZM1966.36 10.4755 1993.74 12.9926 1993.11 19.8387 1965.73 17.3217ZM2014.32 15.1734 2041.65 18.1992 2040.89 25.0324 2013.56 22.0066ZM2062.21 20.5459 2089.48 24.0842 2088.59 30.902 2061.32 27.3638ZM2109.93 26.7379 2117.33 27.6985 2137.21 30.6625 2136.2 37.4624 2116.35 34.5032 2116.42 34.5122 2109.05 33.5557ZM2157.61 33.7041 2175.45 36.3635 2184.85 37.9506 2183.7 44.7296 2174.34 43.148 2174.4 43.1584 2156.6 40.5039ZM2205.19 41.3843 2232.3 45.9625 2231.16 52.7416 2204.04 48.1633ZM2252.64 49.7971 2279.66 54.9049 2278.38 61.6603 2251.36 56.5524ZM2299.95 58.9631 2326.86 64.6085 2325.45 71.337 2298.54 65.6917ZM2347.11 68.9051 2373.9 75.0968 2372.35 81.7953 2345.56 75.6035ZM2394 79.7407 2399.31 80.9688 2420.75 86.3962 2419.06 93.061 2397.66 87.6424 2397.73 87.6593 2392.45 86.4391ZM2440.74 91.4576 2452.87 94.5259 2467.39 98.5354 2465.56 105.163 2451.07 101.163 2451.14 101.182 2439.06 98.1223ZM2487.27 104.023 2505.35 109.013 2513.8 111.546 2511.83 118.131 2503.42 115.609 2503.49 115.63 2485.45 110.65ZM2533.56 117.469 2556.72 124.414 2559.95 125.462 2557.83 132.001 2554.64 130.965 2554.71 130.988 2531.58 124.054ZM2579.57 131.832 2605.72 140.325 2603.6 146.864 2577.45 138.371ZM2625.27 147.151 2651.22 156.254 2648.95 162.742 2623 153.638ZM2670.63 163.469 2696.35 173.201 2693.92 179.631 2668.2 169.9ZM2715.6 180.835 2741.07 191.213 2738.48 197.579 2713.01 187.201ZM2760.14 199.299 2785.33 210.344 2782.56 216.64 2757.38 205.596ZM2804.18 218.92 2829.06 230.653 2826.12 236.871 2801.25 225.138ZM2847.68 239.681 2859.76 245.698 2872.25 252.152 2869.09 258.26 2856.62 251.817 2856.67 251.84 2844.61 245.835ZM2890.54 261.795 2901.08 267.446 2914.7 275.025 2911.36 281.034 2897.76 273.467 2897.81 273.493 2887.29 267.855ZM2932.67 285.261 2940.84 289.973 2956.39 299.291 2952.85 305.189 2937.33 295.885 2937.38 295.914 2929.24 291.215ZM2973.99 310.155 2978.98 313.264 2997.19 325.03 2993.46 330.804 2975.28 319.054 2975.33 319.086 2970.36 315.993ZM3014.36 336.56 3015.47 337.304 3033.07 349.599 3036.97 352.435 3032.93 357.996 3029.05 355.179 3029.11 355.217 3011.56 342.958 3011.61 342.993 3010.53 342.267ZM3053.66 364.667 3066.96 374.732 3075.51 381.474 3071.25 386.873 3062.73 380.151 3062.78 380.193 3049.51 370.149ZM3091.62 394.462 3099.05 400.574 3112.67 412.266 3108.2 417.482 3094.6 405.815 3094.66 405.861 3087.25 399.772ZM3128.12 426.049 3129.3 427.111 3143.72 440.636 3148.21 445.051 3143.39 449.955 3138.93 445.567 3138.98 445.622 3124.62 432.152 3124.68 432.203 3123.53 431.167ZM3162.85 459.691 3171.09 468.187 3179.21 476.975 3174.16 481.64 3166.07 472.882 3166.13 472.943 3157.92 464.478ZM3168.88 432.643 3181.49 484.507 3130.79 467.816C3128.99 467.222 3128 465.279 3128.6 463.476 3129.19 461.673 3131.14 460.692 3132.94 461.286L3177.76 476.042 3173.35 480.12 3162.2 434.268C3161.75 432.423 3162.88 430.564 3164.72 430.115 3166.57 429.667 3168.43 430.798 3168.88 432.643Z" fill="#E97132" fill-rule="nonzero" fill-opacity="1" transform="matrix(0.990885 -0.134713 -0.134713 -0.990885 -531.326 2180.23)"/><rect x="1892.5" y="1600.5" width="469" height="100" stroke="#E97132" stroke-width="3.4375" stroke-linecap="butt" stroke-linejoin="round" stroke-miterlimit="10" stroke-opacity="1" fill="#FFFFFF" fill-opacity="1"/><text fill="#E97132" fill-opacity="1" font-family="Courier New,Courier New_MSFontService,sans-serif" font-style="normal" font-variant="normal" font-weight="400" font-stretch="normal" font-size="55" text-anchor="start" direction="ltr" writing-mode="lr-tb" unicode-bidi="normal" text-decoration="none" transform="matrix(1 0 0 1 1925.05 1665)">/SUJ/PSM/*cp</text><path d="M0.0044967-3.4375 27.5045-3.40152 27.4955 3.47347-0.0044967 3.4375ZM48.1295-3.37454 75.6294-3.33857 75.6204 3.53642 48.1205 3.50045ZM96.2544-3.31159 123.754-3.27562 123.745 3.59938 96.2454 3.5634ZM144.379-3.24864 171.879-3.21266 171.87 3.66233 144.37 3.62636ZM192.504-3.18568 220.004-3.14971 219.995 3.72529 192.495 3.68931ZM240.629-3.12273 268.129-3.08675 268.12 3.78824 240.62 3.75227ZM288.754-3.05977 316.254-3.0238 316.245 3.85119 288.745 3.81522ZM336.879-2.99682 364.379-2.96085 364.37 3.91415 336.87 3.87817ZM385.004-2.93387 412.504-2.89789 412.495 3.9771 384.995 3.94113ZM433.129-2.87091 460.629-2.83494 460.62 4.04005 433.12 4.00408ZM481.254-2.80796 508.754-2.77199 508.745 4.10301 481.245 4.06703ZM529.379-2.74501 556.879-2.70903 556.87 4.16596 529.37 4.12999ZM577.504-2.68205 605.004-2.64608 604.995 4.22892 577.495 4.19294ZM625.629-2.6191 653.129-2.58312 653.12 4.29187 625.62 4.2559ZM673.754-2.55614 701.254-2.52017 701.245 4.35482 673.745 4.31885ZM721.879-2.49319 749.379-2.45722 749.37 4.41778 721.87 4.3818ZM770.004-2.43024 797.504-2.39426 797.495 4.48073 769.995 4.44476ZM818.129-2.36728 845.629-2.33131 845.62 4.54368 818.12 4.50771ZM866.254-2.30433 893.754-2.26836 893.745 4.60664 866.245 4.57066ZM914.379-2.24138 941.879-2.2054 941.87 4.66959 914.37 4.63362ZM962.504-2.17842 990.004-2.14245 989.995 4.73254 962.495 4.69657ZM1010.63-2.11547 1038.13-2.0795 1038.12 4.7955 1010.62 4.75953ZM1058.75-2.05252 1086.25-2.01654 1086.24 4.85845 1058.74 4.82248ZM1106.88-1.98956 1134.38-1.95359 1134.37 4.92141 1106.87 4.88543ZM1155-1.92661 1182.5-1.89063 1182.49 4.98436 1154.99 4.94839ZM1203.13-1.86365 1230.63-1.82768 1230.62 5.04731 1203.12 5.01134ZM1251.25-1.8007 1278.75-1.76473 1278.74 5.11027 1251.24 5.07429ZM1299.38-1.73775 1326.88-1.70177 1326.87 5.17322 1299.37 5.13725ZM1347.5-1.67479 1375-1.63882 1374.99 5.23618 1347.49 5.2002ZM1395.63-1.61184 1423.13-1.57587 1423.12 5.29913 1395.62 5.26316ZM1443.75-1.54888 1471.25-1.51291 1471.24 5.36208 1443.74 5.32611ZM1491.88-1.48593 1519.38-1.44996 1519.37 5.42504 1491.87 5.38906ZM1540-1.42298 1567.5-1.387 1567.49 5.48799 1539.99 5.45202ZM1588.13-1.36002 1615.63-1.32405 1615.62 5.55094 1588.12 5.51497ZM1636.25-1.29707 1663.75-1.2611 1663.74 5.6139 1636.24 5.57792ZM1684.38-1.23412 1711.88-1.19814 1711.87 5.67685 1684.37 5.64088ZM1732.5-1.17116 1760-1.13519 1759.99 5.73981 1732.49 5.70383ZM1780.63-1.10821 1808.13-1.07224 1808.12 5.80276 1780.62 5.76679ZM1828.75-1.04526 1856.25-1.00928 1856.24 5.86571 1828.74 5.82974ZM1876.88-0.982301 1903.14-0.947952 1903.13 5.92704 1876.87 5.89269ZM1863.59-23.4838 1910.22 2.49881 1863.53 28.3593C1861.86 29.2791 1859.77 28.6785 1858.85 27.0177 1857.93 25.3569 1858.53 23.265 1860.19 22.3451L1901.47-0.517541 1901.47 5.49229 1860.25-17.4783C1858.59-18.4025 1857.99-20.496 1858.92-22.1544 1859.84-23.8127 1861.93-24.4079 1863.59-23.4838Z" fill="#E97132" fill-rule="nonzero" fill-opacity="1" transform="matrix(1 0 0 -1 1083.5 1961)"/><rect x="2173.5" y="1908.5" width="335" height="100" stroke="#E97132" stroke-width="3.4375" stroke-linecap="butt" stroke-linejoin="round" stroke-miterlimit="10" stroke-opacity="1" fill="#FFFFFF" fill-opacity="1"/><text fill="#E97132" fill-opacity="1" font-family="Courier New,Courier New_MSFontService,sans-serif" font-style="normal" font-variant="normal" font-weight="400" font-stretch="normal" font-size="55" text-anchor="start" direction="ltr" writing-mode="lr-tb" unicode-bidi="normal" text-decoration="none" transform="matrix(1 0 0 1 2205.97 1973)">/PSM/*cp</text><path d="M2719.55 2305.06 2747.05 2305.47 2746.95 2312.34 2719.45 2311.94ZM2767.67 2305.77 2795.17 2306.18 2795.07 2313.05 2767.57 2312.65ZM2815.79 2306.48 2843.29 2306.89 2843.19 2313.76 2815.69 2313.36ZM2863.91 2307.19 2883.81 2307.48 2883.71 2314.36 2863.81 2314.06ZM2844.57 2284.42 2890.84 2311.02 2843.8 2336.26C2842.13 2337.15 2840.05 2336.53 2839.15 2334.85 2838.25 2333.18 2838.88 2331.1 2840.55 2330.2L2882.14 2307.89 2882.05 2313.9 2841.14 2290.38C2839.49 2289.43 2838.93 2287.33 2839.87 2285.69 2840.82 2284.04 2842.92 2283.47 2844.57 2284.42Z" fill="#E97132" fill-rule="nonzero" fill-opacity="1"/><path d="M1514.55 2314.06 1542.05 2314.47 1541.95 2321.34 1514.45 2320.94ZM1562.67 2314.77 1590.17 2315.18 1590.07 2322.05 1562.57 2321.65ZM1610.79 2315.48 1638.29 2315.89 1638.19 2322.76 1610.69 2322.36ZM1658.91 2316.19 1678.81 2316.48 1678.71 2323.36 1658.81 2323.06ZM1639.57 2293.42 1685.84 2320.02 1638.8 2345.26C1637.13 2346.15 1635.05 2345.52 1634.15 2343.85 1633.25 2342.18 1633.88 2340.1 1635.55 2339.2L1677.14 2316.89 1677.05 2322.9 1636.14 2299.38C1634.49 2298.43 1633.93 2296.33 1634.87 2294.69 1635.82 2293.04 1637.92 2292.47 1639.57 2293.42Z" fill="#4EA72E" fill-rule="nonzero" fill-opacity="1"/><path d="M651.551 2308.06 679.048 2308.47 678.946 2315.34 651.449 2314.94ZM699.67 2308.77 727.167 2309.18 727.066 2316.05 699.569 2315.65ZM747.79 2309.48 775.287 2309.89 775.186 2316.76 747.689 2316.35ZM795.91 2310.19 815.813 2310.48 815.711 2317.36 795.809 2317.06ZM776.567 2287.42 822.839 2314.02 775.803 2339.26C774.13 2340.15 772.047 2339.52 771.149 2337.85 770.252 2336.18 770.881 2334.09 772.554 2333.2L814.137 2310.89 814.048 2316.9 773.14 2293.38C771.495 2292.43 770.927 2290.33 771.874 2288.68 772.82 2287.04 774.922 2286.47 776.567 2287.42Z" fill="#156082" fill-rule="nonzero" fill-opacity="1"/><text fill="#156082" fill-opacity="1" font-family="Arial,Arial_MSFontService,sans-serif" font-style="normal" font-variant="normal" font-weight="400" font-stretch="normal" font-size="55" text-anchor="start" direction="ltr" writing-mode="lr-tb" unicode-bidi="normal" text-decoration="none" transform="matrix(1 0 0 1 893.426 2333)">From file or ROS topic</text><text fill="#4EA72E" fill-opacity="1" font-family="Arial,Arial_MSFontService,sans-serif" font-style="normal" font-variant="normal" font-weight="400" font-stretch="normal" font-size="55" text-anchor="start" direction="ltr" writing-mode="lr-tb" unicode-bidi="normal" text-decoration="none" transform="matrix(1 0 0 1 1748.52 2335)">Sensors and forward kinematics</text><text fill="#E97132" fill-opacity="1" font-family="Arial,Arial_MSFontService,sans-serif" font-style="normal" font-variant="normal" font-weight="400" font-stretch="normal" font-size="55" text-anchor="start" direction="ltr" writing-mode="lr-tb" unicode-bidi="normal" text-decoration="none" transform="matrix(1 0 0 1 2954.19 2333)">Composition</text><path d="M511.5 669.5C566.303 661.898 633.513 689.297 699.16 669.5 764.807 649.703 784.465 679.458 835.64 669.5 886.814 659.542 985.683 683.909 1100.07 669.5 1214.46 655.091 1210.96 677.445 1287.73 669.5 1364.5 661.555 1430.08 689.364 1475.39 669.5 1520.7 649.636 1634.44 680.195 1739.82 669.5 1845.2 658.806 1860.83 674.249 1901.89 669.5 1942.95 664.751 2056.2 671.731 2166.32 669.5 2276.44 667.269 2309.96 699.023 2430.75 669.5 2551.54 639.978 2574.04 680.667 2644 669.5 2713.96 658.333 2968.95 673.129 3070.5 669.5 3083.47 699.408 3062.22 734.572 3070.5 783.67 3078.78 832.768 3056.37 860.703 3070.5 902.5 2967.43 915.869 2926.94 890.978 2857.25 902.5 2787.56 914.022 2762.68 884.155 2695.18 902.5 2627.68 920.845 2587.53 883.311 2481.93 902.5 2376.33 921.689 2333.18 890.995 2217.5 902.5 2101.82 914.005 2110.57 882.82 2004.25 902.5 1897.93 922.179 1908.16 898.64 1867.77 902.5 1827.38 906.36 1751.09 897.744 1705.7 902.5 1660.31 907.256 1533.98 889.673 1441.27 902.5 1348.56 915.327 1320.23 901.158 1228.02 902.5 1135.81 903.842 1130 895.99 1065.95 902.5 1001.9 909.01 959.043 895.456 852.7 902.5 746.357 909.543 779.106 889.669 716.22 902.5 653.333 915.33 563.288 883.916 511.5 902.5 510.478 852.494 515.722 814.709 511.5 786 507.278 757.292 515.131 710.554 511.5 669.5Z" stroke="#156082" stroke-width="3.4375" stroke-linecap="square" stroke-linejoin="round" stroke-miterlimit="10" stroke-dasharray="10.3125 3.4375" stroke-opacity="1" fill="none" fill-rule="evenodd"/><text fill="#156082" fill-opacity="1" font-family="Arial,Arial_MSFontService,sans-serif" font-style="normal" font-variant="normal" font-weight="400" font-stretch="normal" font-size="55" text-anchor="start" direction="ltr" writing-mode="lr-tb" unicode-bidi="normal" text-decoration="none" transform="matrix(1 0 0 1 544.341 738)">Values set in </text><text fill="#156082" fill-opacity="1" font-family="Courier New,Courier New_MSFontService,sans-serif" font-style="normal" font-variant="normal" font-weight="400" font-stretch="normal" font-size="55" text-anchor="start" direction="ltr" writing-mode="lr-tb" unicode-bidi="normal" text-decoration="none" transform="matrix(1 0 0 1 544.341 799)">suj</text><text fill="#156082" fill-opacity="1" font-family="Courier New,Courier New_MSFontService,sans-serif" font-style="normal" font-variant="normal" font-weight="400" font-stretch="normal" font-size="55" text-anchor="start" direction="ltr" writing-mode="lr-tb" unicode-bidi="normal" text-decoration="none" transform="matrix(1 0 0 1 644.029 799)">-</text><text fill="#156082" fill-opacity="1" font-family="Courier New,Courier New_MSFontService,sans-serif" font-style="normal" font-variant="normal" font-weight="400" font-stretch="normal" font-size="55" text-anchor="start" direction="ltr" writing-mode="lr-tb" unicode-bidi="normal" text-decoration="none" transform="matrix(1 0 0 1 677.258 799)">fixed.json</text></g></g></svg>