<svg width="2961" height="2159" xmlns="http://www.w3.org/2000/svg" xmlns:xlink="http://www.w3.org/1999/xlink" xml:space="preserve" overflow="hidden"><g transform="translate(-499 -224)"><g><path d="M1206.5 235.5C1287.71 216.559 1311.91 255.033 1391.03 235.5 1470.14 215.967 1508.45 245.02 1539.06 235.5 1569.66 225.98 1666.45 252.369 1778.33 235.5 1890.22 218.631 1881.92 241.155 1962.86 235.5 2043.8 229.845 2097.23 241.669 2147.39 235.5 2197.55 229.331 2292.53 257.381 2386.67 235.5 2480.81 213.619 2509.26 249.187 2552.94 235.5 2596.63 221.813 2705.69 253.588 2792.22 235.5 2878.75 217.412 2921.89 237.344 3031.5 235.5 3039.05 312.415 3011.08 375.078 3031.5 410.5 3051.92 445.921 3018.81 498.649 3031.5 585.5 3044.19 672.35 3021.26 717.442 3031.5 767.5 3041.74 817.558 3023.34 894.291 3031.5 935.5 2947.17 943.119 2921.62 923.459 2828.72 935.5 2735.82 947.541 2725.54 917.906 2662.44 935.5 2599.35 953.094 2512.39 933.331 2459.67 935.5 2406.94 937.669 2316.44 916.777 2220.39 935.5 2124.34 954.223 2088.33 924.869 2017.61 935.5 1946.89 946.131 1932.55 934.968 1869.58 935.5 1806.62 936.031 1772.09 930.12 1703.31 935.5 1634.52 940.88 1568.57 916.98 1464.03 935.5 1359.48 954.02 1285.35 923.393 1206.5 935.5 1201 862.854 1224.25 828.761 1206.5 774.5 1188.75 720.239 1210.01 676.749 1206.5 606.5 1202.99 536.251 1224.97 492.461 1206.5 452.5 1188.03 412.539 1217.13 307.036 1206.5 235.5Z" stroke="#156082" stroke-width="3.4375" stroke-linecap="square" stroke-linejoin="round" stroke-miterlimit="10" stroke-dasharray="10.3125 3.4375" stroke-opacity="1" fill="none" fill-rule="evenodd"/><text fill="#156082" fill-opacity="1" font-family="Arial,Arial_MSFontService,sans-serif" font-style="normal" font-variant="normal" font-weight="400" font-stretch="normal" font-size="55" text-anchor="start" direction="ltr" writing-mode="lr-tb" unicode-bidi="normal" text-decoration="none" transform="matrix(1 0 0 1 2687.26 305)">Values set in </text><text fill="#156082" fill-opacity="1" font-family="Courier New,Courier New_MSFontService,sans-serif" font-style="normal" font-variant="normal" font-weight="400" font-stretch="normal" font-size="55" text-anchor="start" direction="ltr" writing-mode="lr-tb" unicode-bidi="normal" text-decoration="none" transform="matrix(1 0 0 1 2531.93 366)">suj</text><text fill="#156082" fill-opacity="1" font-family="Courier New,Courier New_MSFontService,sans-serif" font-style="normal" font-variant="normal" font-weight="400" font-stretch="normal" font-size="55" text-anchor="start" direction="ltr" writing-mode="lr-tb" unicode-bidi="normal" text-decoration="none" transform="matrix(1 0 0 1 2631.62 366)">-</text><text fill="#156082" fill-opacity="1" font-family="Courier New,Courier New_MSFontService,sans-serif" font-style="normal" font-variant="normal" font-weight="400" font-stretch="normal" font-size="55" text-anchor="start" direction="ltr" writing-mode="lr-tb" unicode-bidi="normal" text-decoration="none" transform="matrix(1 0 0 1 2664.85 366)">fixed.json</text><text fill="#156082" fill-opacity="1" font-family="Arial,Arial_MSFontService,sans-serif" font-style="normal" font-variant="normal" font-weight="400" font-stretch="normal" font-size="55" text-anchor="start" direction="ltr" writing-mode="lr-tb" unicode-bidi="normal" text-decoration="none" transform="matrix(1 0 0 1 2478.65 437)">(result of registration)</text><path d="M2.36186-2.4976 72.9526 64.2566 68.2289 69.2518-2.36186 2.4976ZM76.708 53.6147 87.2414 82.5 57.8131 73.5955Z" fill="#000000" fill-rule="nonzero" fill-opacity="1" transform="matrix(-1 0 0 1 1036.74 1992.5)"/><path d="M1036.5 1989.06 1146.34 1989.06 1146.34 1995.94 1036.5 1995.94ZM1141.76 1978.75 1169.26 1992.5 1141.76 2006.25Z" fill="#000000" fill-rule="nonzero" fill-opacity="1"/><path d="M3.4375-8.89956e-06 3.4378 116.48-3.4372 116.48-3.4375 8.89956e-06ZM13.7503 111.896 0.000360892 139.396-13.7497 111.897Z" fill="#000000" fill-rule="nonzero" fill-opacity="1" transform="matrix(1 0 0 -1 1036.5 1991.9)"/><text fill="#000000" fill-opacity="1" font-family="Arial,Arial_MSFontService,sans-serif" font-style="normal" font-variant="normal" font-weight="400" font-stretch="normal" font-size="55" text-anchor="start" direction="ltr" writing-mode="lr-tb" unicode-bidi="normal" text-decoration="none" transform="matrix(1 0 0 1 1069.47 2061)">ECM Tip</text><path d="M2.36186-2.4976 72.9526 64.2566 68.2289 69.2518-2.36186 2.4976ZM76.708 53.6147 87.2414 82.5 57.8131 73.5955Z" fill="#000000" fill-rule="nonzero" fill-opacity="1" transform="matrix(-1 0 0 1 3041.74 1958.5)"/><path d="M3041.5 1955.06 3151.34 1955.06 3151.34 1961.94 3041.5 1961.94ZM3146.76 1944.75 3174.26 1958.5 3146.76 1972.25Z" fill="#000000" fill-rule="nonzero" fill-opacity="1"/><path d="M3.4375-8.89956e-06 3.4378 116.48-3.4372 116.48-3.4375 8.89956e-06ZM13.7503 111.896 0.000360892 139.396-13.7497 111.897Z" fill="#000000" fill-rule="nonzero" fill-opacity="1" transform="matrix(1 0 0 -1 3041.5 1958.9)"/><text fill="#000000" fill-opacity="1" font-family="Arial,Arial_MSFontService,sans-serif" font-style="normal" font-variant="normal" font-weight="400" font-stretch="normal" font-size="55" text-anchor="start" direction="ltr" writing-mode="lr-tb" unicode-bidi="normal" text-decoration="none" transform="matrix(1 0 0 1 3074.12 2028)">PSM Tip</text><path d="M2.36186-2.4976 72.9526 64.2566 68.2289 69.2518-2.36186 2.4976ZM76.708 53.6147 87.2414 82.5 57.8131 73.5955Z" fill="#000000" fill-rule="nonzero" fill-opacity="1" transform="matrix(-1 0 0 1 2542.74 1252.5)"/><path d="M2542.5 1249.06 2652.34 1249.06 2652.34 1255.94 2542.5 1255.94ZM2647.76 1238.75 2675.26 1252.5 2647.76 1266.25Z" fill="#000000" fill-rule="nonzero" fill-opacity="1"/><path d="M3.4375-8.89956e-06 3.4378 116.48-3.4372 116.48-3.4375 8.89956e-06ZM13.7503 111.896 0.000360892 139.396-13.7497 111.897Z" fill="#000000" fill-rule="nonzero" fill-opacity="1" transform="matrix(1 0 0 -1 2542.5 1251.9)"/><text fill="#000000" fill-opacity="1" font-family="Arial,Arial_MSFontService,sans-serif" font-style="normal" font-variant="normal" font-weight="400" font-stretch="normal" font-size="55" text-anchor="start" direction="ltr" writing-mode="lr-tb" unicode-bidi="normal" text-decoration="none" transform="matrix(1 0 0 1 2575.33 1321)">PSM RCM</text><path d="M2.36186-2.4976 72.9526 64.2566 68.2289 69.2518-2.36186 2.4976ZM76.708 53.6147 87.2414 82.5 57.8131 73.5955Z" fill="#000000" fill-rule="nonzero" fill-opacity="1" transform="matrix(-1 0 0 1 2043.74 523.5)"/><path d="M2044.5 520.063 2154.34 520.063 2154.34 526.938 2044.5 526.938ZM2149.76 509.75 2177.26 523.5 2149.76 537.25Z" fill="#000000" fill-rule="nonzero" fill-opacity="1"/><path d="M3.4375-8.89956e-06 3.4378 116.48-3.4372 116.48-3.4375 8.89956e-06ZM13.7503 111.896 0.000360892 139.396-13.7497 111.897Z" fill="#000000" fill-rule="nonzero" fill-opacity="1" transform="matrix(1 0 0 -1 2044.5 523.897)"/><text fill="#000000" fill-opacity="1" font-family="Arial,Arial_MSFontService,sans-serif" font-style="normal" font-variant="normal" font-weight="400" font-stretch="normal" font-size="55" text-anchor="start" direction="ltr" writing-mode="lr-tb" unicode-bidi="normal" text-decoration="none" transform="matrix(1 0 0 1 2076.53 593)">World </text><text fill="#000000" fill-opacity="1" font-family="Arial,Arial_MSFontService,sans-serif" font-style="normal" font-variant="normal" font-weight="700" font-stretch="normal" font-size="55" text-anchor="start" direction="ltr" writing-mode="lr-tb" unicode-bidi="normal" text-decoration="underline" transform="matrix(1 0 0 1 2234.25 593)">is</text><text fill="#000000" fill-opacity="1" font-family="Arial,Arial_MSFontService,sans-serif" font-style="normal" font-variant="normal" font-weight="400" font-stretch="normal" font-size="55" text-anchor="start" direction="ltr" writing-mode="lr-tb" unicode-bidi="normal" text-decoration="none" transform="matrix(1 0 0 1 2076.53 659)">ECM RCM</text><rect x="514.5" y="265.5" width="659" height="456" stroke="#000000" stroke-width="3.4375" stroke-linecap="butt" stroke-linejoin="round" stroke-miterlimit="10" stroke-opacity="1" fill="none"/><text fill="#000000" fill-opacity="1" font-family="Arial,Arial_MSFontService,sans-serif" font-style="normal" font-variant="normal" font-weight="400" font-stretch="normal" font-size="92" text-anchor="start" direction="ltr" writing-mode="lr-tb" unicode-bidi="normal" text-decoration="none" transform="matrix(1 0 0 1 731.044 373)">Fixed</text><text fill="#000000" fill-opacity="1" font-family="Arial,Arial_MSFontService,sans-serif" font-style="normal" font-variant="normal" font-weight="400" font-stretch="normal" font-size="92" text-anchor="start" direction="ltr" writing-mode="lr-tb" unicode-bidi="normal" text-decoration="none" transform="matrix(1 0 0 1 591.253 472)">Setup Joints</text><text fill="#000000" fill-opacity="1" font-family="Arial,Arial_MSFontService,sans-serif" font-style="normal" font-variant="normal" font-weight="400" font-stretch="normal" font-size="92" text-anchor="start" direction="ltr" writing-mode="lr-tb" unicode-bidi="normal" text-decoration="none" transform="matrix(1 0 0 1 558.024 571)">with hand</text><text fill="#000000" fill-opacity="1" font-family="Arial,Arial_MSFontService,sans-serif" font-style="normal" font-variant="normal" font-weight="400" font-stretch="normal" font-size="92" text-anchor="start" direction="ltr" writing-mode="lr-tb" unicode-bidi="normal" text-decoration="none" transform="matrix(1 0 0 1 950.472 571)">-</text><text fill="#000000" fill-opacity="1" font-family="Arial,Arial_MSFontService,sans-serif" font-style="normal" font-variant="normal" font-weight="400" font-stretch="normal" font-size="92" text-anchor="start" direction="ltr" writing-mode="lr-tb" unicode-bidi="normal" text-decoration="none" transform="matrix(1 0 0 1 980.836 571)">eye </text><text fill="#000000" fill-opacity="1" font-family="Arial,Arial_MSFontService,sans-serif" font-style="normal" font-variant="normal" font-weight="400" font-stretch="normal" font-size="92" text-anchor="start" direction="ltr" writing-mode="lr-tb" unicode-bidi="normal" text-decoration="none" transform="matrix(1 0 0 1 634.222 670)">calibration</text><path d="M2069.86 493.411 2093.15 485.858 2096.21 485.022 2098.03 491.653 2095.04 492.468 2095.2 492.422 2071.98 499.951ZM2116.11 479.583 2116.67 479.431 2140.28 474.139 2143.27 473.612 2144.47 480.382 2141.55 480.896 2141.71 480.865 2118.25 486.122 2118.4 486.083 2117.92 486.215ZM2163.59 470.033 2163.96 469.967 2187.66 466.899 2191.18 466.604 2191.76 473.455 2188.31 473.744 2188.46 473.727 2164.92 476.775 2165.07 476.751 2164.78 476.803ZM2211.89 464.898 2234.97 464.012 2239.53 464.04 2239.49 470.915 2235.01 470.887 2235.16 470.884 2212.16 471.768ZM2260.3 464.252 2281.91 465.351 2287.9 465.923 2287.25 472.767 2281.33 472.202 2281.48 472.213 2259.96 471.118ZM2308.57 468.047 2328.15 470.791 2335.89 472.226 2334.64 478.985 2326.98 477.565 2327.13 477.589 2307.61 474.855ZM2356.27 476.247 2373.4 480.207 2383.11 482.906 2381.26 489.53 2371.63 486.851 2371.78 486.888 2354.73 482.946ZM2403.02 488.804 2417.33 493.472 2429.13 497.908 2426.71 504.343 2414.98 499.934 2415.12 499.985 2400.89 495.34ZM2448.4 505.657 2459.64 510.463 2473.54 517.164 2470.55 523.357 2456.72 516.69 2456.86 516.754 2445.7 511.978ZM2491.98 526.731 2500 531.056 2515.91 540.591 2512.37 546.488 2496.54 536.992 2496.67 537.07 2488.72 532.783ZM2533.32 551.935 2538.12 555.125 2555.77 568.082 2551.7 573.624 2534.12 560.715 2534.25 560.807 2529.51 557.661ZM2571.94 581.145 2573.68 582.548 2590.39 597.479 2592.66 599.717 2587.84 604.615 2585.63 602.435 2585.75 602.55 2569.16 587.731 2569.28 587.839 2567.61 586.487ZM2607.42 614.367 2621.51 629.699 2625.89 634.971 2620.6 639.362 2616.28 634.156 2616.39 634.287 2602.36 619.019ZM2638.96 651.144 2649.28 664.962 2655.08 673.634 2649.36 677.456 2643.61 668.858 2643.72 669.004 2633.45 655.258ZM2666.26 691.174 2673.38 703.14 2679.77 715.322 2673.69 718.518 2667.33 706.417 2667.42 706.577 2660.35 694.689ZM2688.88 734.027 2693.49 744.093 2699.54 759.111 2699.72 759.611 2693.25 761.93 2693.09 761.493 2693.14 761.619 2687.14 746.737 2687.2 746.884 2682.63 736.891ZM2706.53 779.22 2709.74 789.442 2713.9 804.738 2714.17 805.908 2707.47 807.452 2707.22 806.347 2707.25 806.478 2703.13 791.312 2703.16 791.441 2699.97 781.283ZM2718.6 826.188 2720.37 835.516 2722.67 850.97 2722.96 853.604 2716.12 854.352 2715.84 851.784 2715.86 851.917 2713.58 836.597 2713.6 836.73 2711.84 827.468ZM2724.91 874.268 2725.45 881.932 2725.92 897.411 2725.89 902.01 2719.01 901.954 2719.05 897.423 2719.05 897.556 2718.58 882.211 2718.58 882.345 2718.05 874.748ZM2725.33 922.757 2725.07 928.294 2723.75 943.668 2722.91 950.408 2716.09 949.555 2716.92 942.881 2716.91 943.013 2718.22 927.772 2718.21 927.905 2718.47 922.434ZM2719.87 970.938 2719.34 974.208 2716.25 989.345 2714.11 998.089 2707.43 996.457 2709.55 987.777 2709.52 987.905 2712.59 972.897 2712.56 973.027 2713.09 969.823ZM2708.65 1018.11 2708.32 1019.28 2703.49 1034.05 2699.67 1044.37 2693.23 1041.99 2697.02 1031.73 2696.98 1031.85 2701.77 1017.21 2701.73 1017.33 2702.04 1016.23ZM2691.84 1063.73 2685.58 1077.39 2679.9 1088.64 2673.76 1085.54 2679.41 1074.35 2679.35 1074.46 2685.58 1060.87ZM2669.84 1106.94 2662.6 1118.96 2655.15 1130.33 2649.4 1126.57 2656.81 1115.25 2656.74 1115.36 2663.95 1103.39ZM2643.08 1147.37 2634.64 1158.39 2625.89 1168.98 2620.59 1164.6 2629.3 1154.06 2629.22 1154.16 2637.63 1143.19ZM2612.03 1184.59 2601.79 1195.27 2594.9 1201.96 2590.12 1197.03 2596.96 1190.38 2596.87 1190.47 2607.06 1179.84ZM2638.97 1190.53 2587.43 1204.42 2602.86 1153.33C2603.41 1151.51 2605.33 1150.48 2607.15 1151.03 2608.97 1151.58 2609.99 1153.5 2609.44 1155.32L2595.8 1200.49 2591.61 1196.18 2637.18 1183.9C2639.01 1183.4 2640.9 1184.49 2641.39 1186.32 2641.89 1188.15 2640.8 1190.04 2638.97 1190.53Z" fill="#156082" fill-rule="nonzero" fill-opacity="1"/><rect x="2357.5" y="721.5" width="637" height="100" stroke="#156082" stroke-width="3.4375" stroke-linecap="butt" stroke-linejoin="round" stroke-miterlimit="10" stroke-opacity="1" fill="#FFFFFF" fill-opacity="1"/><text fill="#156082" fill-opacity="1" font-family="Courier New,Courier New_MSFontService,sans-serif" font-style="normal" font-variant="normal" font-weight="400" font-stretch="normal" font-size="55" text-anchor="start" direction="ltr" writing-mode="lr-tb" unicode-bidi="normal" text-decoration="none" transform="matrix(1 0 0 1 2389.56 785)">/SUJ/PSM/local/cp</text><path d="M2590.16 1214.45 2613.48 1206.89 2616.52 1206.06 2618.33 1212.69 2615.37 1213.5 2615.53 1213.45 2592.28 1220.99ZM2636.41 1200.62 2637.02 1200.45 2660.66 1195.15 2663.58 1194.64 2664.77 1201.41 2661.93 1201.91 2662.08 1201.88 2638.6 1207.14 2638.76 1207.11 2638.22 1207.25ZM2683.89 1191.06 2684.36 1190.98 2708.08 1187.9 2711.48 1187.62 2712.06 1194.47 2708.73 1194.75 2708.89 1194.73 2685.32 1197.78 2685.48 1197.76 2685.08 1197.83ZM2732.19 1185.91 2755.45 1185.01 2759.83 1185.04 2759.78 1191.91 2755.48 1191.89 2755.63 1191.89 2732.46 1192.78ZM2780.6 1185.24 2802.43 1186.35 2808.2 1186.9 2807.55 1193.75 2801.85 1193.2 2802.01 1193.21 2780.25 1192.11ZM2828.87 1189.01 2848.73 1191.8 2856.2 1193.18 2854.95 1199.94 2847.55 1198.57 2847.7 1198.59 2827.91 1195.82ZM2876.58 1197.19 2894.02 1201.22 2903.42 1203.83 2901.57 1210.46 2892.25 1207.87 2892.39 1207.9 2875.03 1203.89ZM2923.34 1209.72 2937.99 1214.5 2949.45 1218.81 2947.03 1225.24 2935.65 1220.96 2935.79 1221.01 2921.2 1216.25ZM2968.73 1226.54 2980.34 1231.51 2993.87 1238.03 2990.89 1244.22 2977.43 1237.74 2977.57 1237.8 2966.02 1232.86ZM3012.32 1247.58 3020.76 1252.12 3036.26 1261.42 3032.72 1267.32 3017.29 1258.06 3017.42 1258.14 3009.06 1253.63ZM3053.68 1272.75 3058.91 1276.22 3076.15 1288.87 3072.08 1294.42 3054.91 1281.81 3055.04 1281.9 3049.88 1278.47ZM3092.34 1301.92 3094.51 1303.67 3111.24 1318.62 3113.1 1320.45 3108.27 1325.35 3106.48 1323.58 3106.6 1323.69 3089.99 1308.86 3090.11 1308.96 3088.01 1307.26ZM3127.87 1335.08 3142.39 1350.88 3146.36 1355.66 3141.07 1360.05 3137.16 1355.33 3137.27 1355.46 3122.81 1339.73ZM3159.46 1371.81 3170.19 1386.18 3175.61 1394.28 3169.9 1398.1 3164.53 1390.07 3164.63 1390.22 3153.95 1375.93ZM3186.82 1411.8 3194.32 1424.4 3200.37 1435.93 3194.28 1439.13 3188.27 1427.68 3188.36 1427.84 3180.91 1415.32ZM3209.51 1454.62 3214.45 1465.4 3220.36 1480.06 3213.98 1482.62 3208.1 1468.04 3208.17 1468.19 3203.26 1457.48ZM3227.25 1499.77 3230.72 1510.8 3234.89 1526.11 3234.97 1526.45 3228.27 1527.99 3228.2 1527.72 3228.24 1527.85 3224.11 1512.67 3224.14 1512.8 3220.69 1501.84ZM3239.42 1546.72 3241.36 1556.92 3243.67 1572.39 3243.85 1574.12 3237.02 1574.87 3236.84 1573.21 3236.86 1573.34 3234.57 1558.01 3234.59 1558.14 3232.67 1548ZM3245.84 1594.78 3246.45 1603.39 3246.93 1618.89 3246.9 1622.52 3240.02 1622.47 3240.05 1618.9 3240.05 1619.03 3239.58 1603.67 3239.58 1603.8 3238.99 1595.26ZM3246.38 1643.27 3246.08 1649.81 3244.75 1665.2 3244.04 1670.93 3237.22 1670.08 3237.92 1664.41 3237.91 1664.54 3239.22 1649.28 3239.21 1649.42 3239.52 1642.95ZM3241.04 1691.47 3240.33 1695.77 3237.24 1710.93 3235.36 1718.63 3228.68 1717 3230.55 1709.36 3230.52 1709.49 3233.58 1694.46 3233.56 1694.59 3234.26 1690.35ZM3229.94 1738.67 3229.31 1740.89 3224.47 1755.68 3221.05 1764.96 3214.6 1762.57 3218 1753.36 3217.96 1753.48 3222.75 1738.82 3222.72 1738.95 3223.33 1736.78ZM3213.32 1784.22 3213.09 1784.78 3206.55 1799.07 3201.39 1809.28 3195.26 1806.18 3200.38 1796.03 3200.32 1796.15 3206.81 1781.98 3206.76 1782.1 3206.97 1781.59ZM3191.42 1827.62 3183.54 1840.69 3176.77 1851.04 3171.02 1847.28 3177.76 1836.98 3177.69 1837.09 3185.53 1824.07ZM3164.78 1868.13 3155.56 1880.17 3147.62 1889.78 3142.32 1885.4 3150.22 1875.84 3150.14 1875.93 3159.32 1863.95ZM3133.84 1905.45 3122.68 1917.09 3115.78 1923.79 3110.99 1918.86 3117.85 1912.2 3117.76 1912.29 3128.87 1900.7ZM3159.84 1912.36 3108.31 1926.26 3123.74 1875.16C3124.28 1873.34 3126.2 1872.31 3128.02 1872.86 3129.84 1873.41 3130.87 1875.33 3130.32 1877.15L3116.68 1922.32 3112.49 1918.01 3158.05 1905.72C3159.89 1905.23 3161.77 1906.31 3162.27 1908.15 3162.76 1909.98 3161.68 1911.87 3159.84 1912.36Z" fill="#4EA72E" fill-rule="nonzero" fill-opacity="1"/><rect x="2954.5" y="1523.5" width="503" height="100" stroke="#4EA72E" stroke-width="3.4375" stroke-linecap="butt" stroke-linejoin="round" stroke-miterlimit="10" stroke-opacity="1" fill="#FFFFFF" fill-opacity="1"/><text fill="#4EA72E" fill-opacity="1" font-family="Courier New,Courier New_MSFontService,sans-serif" font-style="normal" font-variant="normal" font-weight="400" font-stretch="normal" font-size="55" text-anchor="start" direction="ltr" writing-mode="lr-tb" unicode-bidi="normal" text-decoration="none" transform="matrix(1 0 0 1 2986.88 1588)">/PSM/local/cp</text><path d="M-2.97707 127.062-3.44096 114.975-2.71334 102.958-2.07492 98.9664 4.71379 100.052 4.10203 103.877 4.13889 103.542 3.43175 115.221 3.4355 114.881 3.89287 126.799ZM2.73144 78.2629 6.12692 69.0237 11.1146 58.6389 14.6228 52.8232 20.5096 56.3743 17.0859 62.05 17.2411 61.7627 12.3954 71.852 12.5232 71.5496 9.18445 80.6345ZM27.3036 35.7918 31.4553 31.1773 39.8521 23.4712 48.2819 17.1162 52.4205 22.606 44.1234 28.861 44.3783 28.6487 36.225 36.1313 36.4562 35.8979 32.4145 40.3901ZM66.842 6.72717 69.1525 5.61407 80.1101 1.63623 91.5713-1.2437 94.0583-1.60212 95.039 5.20257 92.7275 5.53571 93.0748 5.46722 81.9558 8.26118 82.2911 8.15849 71.6613 12.0173 71.9803 11.883 69.8258 12.9209ZM114.931-3.41882 115.495-3.44141 127.276-2.69644 138.754-0.779146 143.143 0.41971 141.331 7.0517 137.11 5.8987 137.45 5.97323 126.317 4.11362 126.667 4.15374 115.238 3.43109 115.593 3.43519 115.207 3.45067ZM163.136 7.65588 170.71 11.4549 180.32 17.509 186.912 22.6092 182.705 28.0466 176.244 23.0479 176.515 23.2377 167.187 17.361 167.478 17.5252 160.053 13.8012ZM202.138 37.4197 205.135 40.8307 211.857 50.1428 217.698 60.133 218.073 60.9459 211.831 63.8257 211.525 63.1641 211.679 63.4592 206.006 53.7556 206.186 54.0326 199.657 44.9882 199.862 45.2453 196.974 41.958ZM225.933 80.3507 226.481 81.9281 229.295 93.6211 230.971 105.768 231.069 108.326 224.199 108.59 224.107 106.201 224.137 106.539 222.507 94.7297 222.57 95.0639 219.836 83.701 219.932 84.0255 219.439 82.608ZM230.761 129.264 230.714 130.042 228.841 141.751 225.876 153.084 224.444 156.981 217.991 154.609 219.366 150.868 219.267 151.184 222.147 140.173 222.079 140.5 223.898 129.123 223.861 129.458 223.898 128.848ZM215.694 176.337 210.966 184.174 204.169 193.349 199.098 198.985 193.987 194.387 198.948 188.872 198.742 189.125 205.345 180.212 205.164 180.483 209.807 172.786ZM183.299 213.184 179.031 216.402 169.246 222.377 159.005 227.31 156.021 221.117 166.109 216.257 165.809 216.42 175.305 210.622 175.027 210.811 179.161 207.694ZM138.685 233.677 136.429 234.244 124.545 235.956 115.748 236.428 110.468 236.31 110.622 229.437 115.771 229.552 115.51 229.556 124.023 229.1 123.716 229.13 135.273 227.464 134.925 227.533 137.01 227.009ZM89.2635 233.728 81.7263 231.826 73.6436 229.138 65.7909 225.869 62.7017 224.309 65.8003 218.172 68.7773 219.675 68.5491 219.57 76.1693 222.743 75.9329 222.654 83.7752 225.262 83.5315 225.191 90.9455 227.062ZM44.7087 213.302 43.9142 212.743 37.2828 207.317 31.0322 201.394 25.1925 194.99 24.1511 193.666 29.5559 189.417 30.5195 190.642 30.3571 190.451 36.0275 196.669 35.852 196.49 41.9209 202.241 41.7333 202.075 48.1711 207.343 47.9722 207.192 48.6646 207.679ZM14.1383 224.846 13.4909 171.475 59.1487 199.121C60.7726 200.105 61.292 202.218 60.3086 203.842 59.3253 205.466 57.2116 205.986 55.5877 205.002L15.2227 180.56 20.4405 177.578 21.0128 224.763C21.0358 226.661 19.5156 228.219 17.6172 228.242 15.7189 228.265 14.1613 226.745 14.1383 224.846Z" fill="#156082" fill-rule="nonzero" fill-opacity="1" transform="matrix(-1 0 0 1 2008.5 348.5)"/><rect x="1233.5" y="265.5" width="637" height="234" stroke="#156082" stroke-width="3.4375" stroke-linecap="butt" stroke-linejoin="round" stroke-miterlimit="10" stroke-opacity="1" fill="#FFFFFF" fill-opacity="1"/><text fill="#156082" fill-opacity="1" font-family="Courier New,Courier New_MSFontService,sans-serif" font-style="normal" font-variant="normal" font-weight="400" font-stretch="normal" font-size="55" text-anchor="start" direction="ltr" writing-mode="lr-tb" unicode-bidi="normal" text-decoration="none" transform="matrix(1 0 0 1 1265.5 330)">/SUJ/ECM/local/cp</text><text fill="#156082" fill-opacity="1" font-family="Arial,Arial_MSFontService,sans-serif" font-style="normal" font-variant="normal" font-weight="400" font-stretch="normal" font-size="55" text-anchor="start" direction="ltr" writing-mode="lr-tb" unicode-bidi="normal" text-decoration="none" transform="matrix(1 0 0 1 1344.27 398)">= </text><text fill="#156082" fill-opacity="1" font-family="Courier New,Courier New_MSFontService,sans-serif" font-style="normal" font-variant="normal" font-weight="400" font-stretch="normal" font-size="55" text-anchor="start" direction="ltr" writing-mode="lr-tb" unicode-bidi="normal" text-decoration="none" transform="matrix(1 0 0 1 1391.82 398)">/SUJ/ECM/cp</text><text fill="#156082" fill-opacity="1" font-family="Arial,Arial_MSFontService,sans-serif" font-style="normal" font-variant="normal" font-weight="700" font-stretch="normal" font-size="55" text-anchor="start" direction="ltr" writing-mode="lr-tb" unicode-bidi="normal" text-decoration="underline" transform="matrix(1 0 0 1 1452.85 467)">Identity</text><path d="M1001.51 3.90659 1018.44 6.82052 1028.66 8.98841 1027.24 15.7139 1017.08 13.5597 1017.21 13.5847 1000.34 10.682ZM1048.89 13.62 1062.14 16.9612 1075.54 20.8837 1073.61 27.482 1060.27 23.5777 1060.39 23.6117 1047.21 20.2862ZM1095.32 27.1442 1105.12 30.409 1121.32 36.4734 1118.91 42.9122 1102.77 36.8697 1102.89 36.9115 1093.15 33.6665ZM1140.55 44.2591 1147.33 47.0787 1165.77 55.5122 1162.91 61.7642 1144.53 53.3557 1144.64 53.404 1137.91 50.6075ZM1184.37 64.703 1188.73 66.885 1208.72 77.7237 1205.44 83.767 1185.51 72.9558 1185.61 73.0092 1181.29 70.853ZM1226.62 88.1914 1229.27 89.7426 1249.2 102.289 1250.11 102.904 1246.26 108.604 1245.4 108.02 1245.49 108.078 1225.65 95.5899 1225.75 95.6472 1223.14 94.1238ZM1267.21 114.433 1268.89 115.567 1288.34 129.564 1289.7 130.606 1285.52 136.065 1284.21 135.054 1284.29 135.115 1264.92 121.178 1265 121.238 1263.37 120.134ZM1306.08 143.145 1307.55 144.272 1326.51 159.679 1327.58 160.601 1323.1 165.812 1322.06 164.921 1322.14 164.984 1303.26 149.639 1303.33 149.701 1301.9 148.603ZM1343.21 174.056 1345.21 175.775 1363.65 192.549 1363.74 192.637 1358.98 197.596 1358.92 197.54 1358.99 197.603 1340.62 180.892 1340.69 180.955 1338.73 179.267ZM1378.62 206.92 1381.82 209.991 1398.09 226.458 1393.21 231.291 1376.96 214.856 1377.02 214.919 1373.86 211.88ZM1412.32 241.513 1417.32 246.836 1430.84 261.956 1425.71 266.538 1412.22 251.45 1412.28 251.513 1407.31 246.22ZM1444.37 277.633 1451.68 286.228 1461.95 298.879 1456.61 303.212 1446.37 290.591 1446.42 290.653 1439.13 282.09ZM1474.81 315.105 1484.85 328.081 1491.49 337.064 1485.96 341.149 1479.35 332.198 1479.39 332.259 1469.37 319.313ZM1503.7 353.774 1516.78 372.315 1519.51 376.365 1513.81 380.206 1511.1 376.188 1511.14 376.248 1498.09 357.737ZM1531.04 393.469 1532.27 395.299 1546 416.626 1540.22 420.348 1526.51 399.05 1526.55 399.111 1525.34 397.311ZM1556.89 434.224 1562.26 442.947 1571.04 457.884 1565.11 461.368 1556.35 446.461 1556.39 446.52 1551.04 437.827ZM1581.37 475.814 1590.89 492.767 1594.73 499.923 1588.68 503.174 1584.85 496.048 1584.88 496.106 1575.37 479.182ZM1604.49 518.096 1604.69 518.467 1617.07 542.621 1610.95 545.757 1598.58 521.632 1598.61 521.689 1598.43 521.347ZM1626.2 561.184 1631.2 571.392 1638.06 586.067 1631.83 588.976 1624.98 574.33 1625.01 574.386 1620.03 564.206ZM1646.7 604.86 1656.24 626.283 1657.85 630.064 1651.52 632.751 1649.93 628.998 1649.95 629.053 1640.42 607.658ZM1665.91 649.049 1668.2 654.44 1676.33 674.561 1669.96 677.137 1661.83 657.045 1661.86 657.1 1659.58 651.736ZM1683.9 693.809 1690.95 712.126 1693.67 719.577 1687.21 721.936 1684.5 714.513 1684.52 714.567 1677.48 696.276ZM1700.75 738.95 1701.73 741.635 1709.82 764.971 1703.32 767.223 1695.24 743.913 1695.26 743.967 1694.29 741.309ZM1716.38 784.583 1722.07 801.93 1724.83 810.809 1718.26 812.848 1715.52 803.996 1715.53 804.049 1709.84 786.728ZM1730.95 830.507 1731.63 832.697 1738.73 856.939 1732.13 858.872 1725.04 834.657 1725.05 834.709 1724.38 832.545ZM1744.34 876.842 1749.47 895.416 1751.54 903.437 1744.89 905.162 1742.82 897.167 1742.83 897.219 1737.71 878.671ZM1756.72 923.403 1757.74 927.348 1763.28 950.164 1756.59 951.785 1751.07 928.995 1751.08 929.047 1750.06 925.127ZM1767.99 970.298 1772.97 992.306 1773.99 997.187 1767.27 998.602 1766.24 993.747 1766.26 993.798 1761.28 971.815ZM1778.24 1017.37 1779.91 1025.31 1783.62 1044.39 1776.87 1045.7 1773.16 1026.65 1773.17 1026.7 1771.51 1018.79ZM1787.47 1064.71 1792.32 1091.78 1785.55 1092.99 1780.71 1065.92ZM1795.66 1112.18 1797.97 1126.31 1799.91 1139.4 1793.11 1140.41 1791.17 1127.34 1791.18 1127.39 1788.88 1113.29ZM1802.93 1159.8 1803.05 1160.6 1806.58 1187.11 1799.76 1188.02 1796.24 1161.53 1796.24 1161.58 1796.13 1160.81ZM1809.12 1207.63 1811.76 1230.06 1812.27 1235 1805.44 1235.7 1804.93 1230.79 1804.93 1230.84 1802.29 1208.44ZM1814.39 1255.52 1815.39 1265.2 1816.95 1282.95 1810.1 1283.55 1808.54 1265.83 1808.55 1265.88 1807.55 1256.22ZM1818.73 1303.54 1820.74 1330.97 1813.89 1331.47 1811.87 1304.05ZM1822.04 1351.6 1823.25 1372.19 1823.55 1379.11 1816.68 1379.42 1816.38 1372.52 1816.38 1372.57 1815.17 1352.01ZM1824.46 1399.72 1824.84 1408.34 1825.4 1427.25 1818.53 1427.45 1817.97 1408.57 1817.97 1408.62 1817.59 1400.02ZM1825.97 1447.92 1826.38 1475.42 1819.5 1475.52 1819.09 1448.02ZM1000.92 7.29429 1015.91 32.5278 973.687 3.48828 1022.25-12.8645Z" fill="#E97132" fill-rule="nonzero" fill-opacity="1" transform="matrix(0.996593 0.0824725 0.0824725 -0.996593 109.137 1857.69)"/><rect x="1756.5" y="1263.5" width="301" height="100" stroke="#E97132" stroke-width="3.4375" stroke-linecap="butt" stroke-linejoin="round" stroke-miterlimit="10" stroke-opacity="1" fill="#FFFFFF" fill-opacity="1"/><text fill="#E97132" fill-opacity="1" font-family="Courier New,Courier New_MSFontService,sans-serif" font-style="normal" font-variant="normal" font-weight="400" font-stretch="normal" font-size="55" text-anchor="start" direction="ltr" writing-mode="lr-tb" unicode-bidi="normal" text-decoration="none" transform="matrix(1 0 0 1 1788.88 1327)">/ECM/cp</text><path d="M1629.59-3.29218 1657.09-3.29393 1657.09 3.58107 1629.59 3.58282ZM1677.72-3.29524 1692.27-3.29616 1705.28-3.05893 1705.15 3.81493 1692.18 3.57827 1692.24 3.57884 1677.72 3.57976ZM1725.9-2.68286 1753.4-2.18144 1753.27 4.69242 1725.77 4.191ZM1774.07-1.44783 1801.55-0.443734 1801.3 6.42668 1773.82 5.42258ZM1822.22 0.417199 1849.68 1.92424 1849.3 8.78891 1821.84 7.28187ZM1870.27 3.05453 1877.83 3.46944 1897.77 4.93146 1897.27 11.788 1877.36 10.3283 1877.43 10.3324 1869.9 9.9192ZM1918.34 6.43976 1938.66 7.9297 1945.82 8.58776 1945.19 15.4339 1938.06 14.7787 1938.13 14.784 1917.84 13.2964ZM1966.36 10.4755 1993.74 12.9926 1993.11 19.8387 1965.73 17.3217ZM2014.32 15.1734 2041.65 18.1992 2040.89 25.0324 2013.56 22.0066ZM2062.21 20.5459 2089.48 24.0842 2088.59 30.902 2061.32 27.3638ZM2109.93 26.7379 2117.33 27.6985 2137.21 30.6625 2136.2 37.4624 2116.35 34.5032 2116.42 34.5122 2109.05 33.5557ZM2157.61 33.7041 2175.45 36.3635 2184.85 37.9506 2183.7 44.7296 2174.34 43.148 2174.4 43.1584 2156.6 40.5039ZM2205.19 41.3843 2232.3 45.9625 2231.16 52.7416 2204.04 48.1633ZM2252.64 49.7971 2279.66 54.9049 2278.38 61.6603 2251.36 56.5524ZM2299.95 58.9631 2326.86 64.6085 2325.45 71.337 2298.54 65.6917ZM2347.11 68.9051 2373.9 75.0968 2372.35 81.7953 2345.56 75.6035ZM2394 79.7407 2399.31 80.9688 2420.75 86.3962 2419.06 93.061 2397.66 87.6424 2397.73 87.6593 2392.45 86.4391ZM2440.74 91.4576 2452.87 94.5259 2467.39 98.5354 2465.56 105.163 2451.07 101.163 2451.14 101.182 2439.06 98.1223ZM2487.27 104.023 2505.35 109.013 2513.8 111.546 2511.83 118.131 2503.42 115.609 2503.49 115.63 2485.45 110.65ZM2533.56 117.469 2556.72 124.414 2559.95 125.462 2557.83 132.001 2554.64 130.965 2554.71 130.988 2531.58 124.054ZM2579.57 131.832 2605.72 140.325 2603.6 146.864 2577.45 138.371ZM2625.27 147.151 2651.22 156.254 2648.95 162.742 2623 153.638ZM2670.63 163.469 2696.35 173.201 2693.92 179.631 2668.2 169.9ZM2715.6 180.835 2741.07 191.213 2738.48 197.579 2713.01 187.201ZM2760.14 199.299 2785.33 210.344 2782.56 216.64 2757.38 205.596ZM2804.18 218.92 2829.06 230.653 2826.12 236.871 2801.25 225.138ZM2847.68 239.681 2859.76 245.698 2872.25 252.152 2869.09 258.26 2856.62 251.817 2856.67 251.84 2844.61 245.835ZM2890.54 261.795 2901.08 267.446 2914.7 275.025 2911.36 281.034 2897.76 273.467 2897.81 273.493 2887.29 267.855ZM2932.67 285.261 2940.84 289.973 2956.39 299.291 2952.85 305.189 2937.33 295.885 2937.38 295.914 2929.24 291.215ZM2973.99 310.155 2978.98 313.264 2997.19 325.03 2993.46 330.804 2975.28 319.054 2975.33 319.086 2970.36 315.993ZM3014.36 336.56 3015.47 337.304 3033.07 349.599 3036.97 352.435 3032.93 357.996 3029.05 355.179 3029.11 355.217 3011.56 342.958 3011.61 342.993 3010.53 342.267ZM3053.66 364.667 3066.96 374.732 3075.51 381.474 3071.25 386.873 3062.73 380.151 3062.78 380.193 3049.51 370.149ZM3091.62 394.462 3099.05 400.574 3112.67 412.266 3108.2 417.482 3094.6 405.815 3094.66 405.861 3087.25 399.772ZM3128.12 426.049 3129.3 427.111 3143.72 440.636 3148.21 445.051 3143.39 449.955 3138.93 445.567 3138.98 445.622 3124.62 432.152 3124.68 432.203 3123.53 431.167ZM3162.85 459.691 3171.09 468.187 3179.21 476.975 3174.16 481.64 3166.07 472.882 3166.13 472.943 3157.92 464.478ZM3168.88 432.643 3181.49 484.507 3130.79 467.816C3128.99 467.222 3128 465.279 3128.6 463.476 3129.19 461.673 3131.14 460.692 3132.94 461.286L3177.76 476.042 3173.35 480.12 3162.2 434.268C3161.75 432.423 3162.88 430.564 3164.72 430.115 3166.57 429.667 3168.43 430.798 3168.88 432.643Z" fill="#E97132" fill-rule="nonzero" fill-opacity="1" transform="matrix(0.990885 -0.134713 -0.134713 -0.990885 -531.326 2180.23)"/><rect x="1892.5" y="1600.5" width="436" height="100" stroke="#E97132" stroke-width="3.4375" stroke-linecap="butt" stroke-linejoin="round" stroke-miterlimit="10" stroke-opacity="1" fill="#FFFFFF" fill-opacity="1"/><text fill="#E97132" fill-opacity="1" font-family="Courier New,Courier New_MSFontService,sans-serif" font-style="normal" font-variant="normal" font-weight="400" font-stretch="normal" font-size="55" text-anchor="start" direction="ltr" writing-mode="lr-tb" unicode-bidi="normal" text-decoration="none" transform="matrix(1 0 0 1 1925.05 1665)">/SUJ/PSM/cp</text><path d="M0.0044967-3.4375 27.5045-3.40152 27.4955 3.47347-0.0044967 3.4375ZM48.1295-3.37454 75.6294-3.33857 75.6204 3.53642 48.1205 3.50045ZM96.2544-3.31159 123.754-3.27562 123.745 3.59938 96.2454 3.5634ZM144.379-3.24864 171.879-3.21266 171.87 3.66233 144.37 3.62636ZM192.504-3.18568 220.004-3.14971 219.995 3.72529 192.495 3.68931ZM240.629-3.12273 268.129-3.08675 268.12 3.78824 240.62 3.75227ZM288.754-3.05977 316.254-3.0238 316.245 3.85119 288.745 3.81522ZM336.879-2.99682 364.379-2.96085 364.37 3.91415 336.87 3.87817ZM385.004-2.93387 412.504-2.89789 412.495 3.9771 384.995 3.94113ZM433.129-2.87091 460.629-2.83494 460.62 4.04005 433.12 4.00408ZM481.254-2.80796 508.754-2.77199 508.745 4.10301 481.245 4.06703ZM529.379-2.74501 556.879-2.70903 556.87 4.16596 529.37 4.12999ZM577.504-2.68205 605.004-2.64608 604.995 4.22892 577.495 4.19294ZM625.629-2.6191 653.129-2.58312 653.12 4.29187 625.62 4.2559ZM673.754-2.55614 701.254-2.52017 701.245 4.35482 673.745 4.31885ZM721.879-2.49319 749.379-2.45722 749.37 4.41778 721.87 4.3818ZM770.004-2.43024 797.504-2.39426 797.495 4.48073 769.995 4.44476ZM818.129-2.36728 845.629-2.33131 845.62 4.54368 818.12 4.50771ZM866.254-2.30433 893.754-2.26836 893.745 4.60664 866.245 4.57066ZM914.379-2.24138 941.879-2.2054 941.87 4.66959 914.37 4.63362ZM962.504-2.17842 990.004-2.14245 989.995 4.73254 962.495 4.69657ZM1010.63-2.11547 1038.13-2.0795 1038.12 4.7955 1010.62 4.75953ZM1058.75-2.05252 1086.25-2.01654 1086.24 4.85845 1058.74 4.82248ZM1106.88-1.98956 1134.38-1.95359 1134.37 4.92141 1106.87 4.88543ZM1155-1.92661 1182.5-1.89063 1182.49 4.98436 1154.99 4.94839ZM1203.13-1.86365 1230.63-1.82768 1230.62 5.04731 1203.12 5.01134ZM1251.25-1.8007 1278.75-1.76473 1278.74 5.11027 1251.24 5.07429ZM1299.38-1.73775 1326.88-1.70177 1326.87 5.17322 1299.37 5.13725ZM1347.5-1.67479 1375-1.63882 1374.99 5.23618 1347.49 5.2002ZM1395.63-1.61184 1423.13-1.57587 1423.12 5.29913 1395.62 5.26316ZM1443.75-1.54888 1471.25-1.51291 1471.24 5.36208 1443.74 5.32611ZM1491.88-1.48593 1519.38-1.44996 1519.37 5.42504 1491.87 5.38906ZM1540-1.42298 1567.5-1.387 1567.49 5.48799 1539.99 5.45202ZM1588.13-1.36002 1615.63-1.32405 1615.62 5.55094 1588.12 5.51497ZM1636.25-1.29707 1663.75-1.2611 1663.74 5.6139 1636.24 5.57792ZM1684.38-1.23412 1711.88-1.19814 1711.87 5.67685 1684.37 5.64088ZM1732.5-1.17116 1760-1.13519 1759.99 5.73981 1732.49 5.70383ZM1780.63-1.10821 1808.13-1.07224 1808.12 5.80276 1780.62 5.76679ZM1828.75-1.04526 1856.25-1.00928 1856.24 5.86571 1828.74 5.82974ZM1876.88-0.982301 1903.14-0.947952 1903.13 5.92704 1876.87 5.89269ZM1863.59-23.4838 1910.22 2.49881 1863.53 28.3593C1861.86 29.2791 1859.77 28.6785 1858.85 27.0177 1857.93 25.3569 1858.53 23.265 1860.19 22.3451L1901.47-0.517541 1901.47 5.49229 1860.25-17.4783C1858.59-18.4025 1857.99-20.496 1858.92-22.1544 1859.84-23.8127 1861.93-24.4079 1863.59-23.4838Z" fill="#E97132" fill-rule="nonzero" fill-opacity="1" transform="matrix(1 0 0 -1 1083.5 1961)"/><rect x="2173.5" y="1908.5" width="301" height="100" stroke="#E97132" stroke-width="3.4375" stroke-linecap="butt" stroke-linejoin="round" stroke-miterlimit="10" stroke-opacity="1" fill="#FFFFFF" fill-opacity="1"/><text fill="#E97132" fill-opacity="1" font-family="Courier New,Courier New_MSFontService,sans-serif" font-style="normal" font-variant="normal" font-weight="400" font-stretch="normal" font-size="55" text-anchor="start" direction="ltr" writing-mode="lr-tb" unicode-bidi="normal" text-decoration="none" transform="matrix(1 0 0 1 2205.97 1973)">/PSM/cp</text><path d="M2719.55 2305.06 2747.05 2305.47 2746.95 2312.34 2719.45 2311.94ZM2767.67 2305.77 2795.17 2306.18 2795.07 2313.05 2767.57 2312.65ZM2815.79 2306.48 2843.29 2306.89 2843.19 2313.76 2815.69 2313.36ZM2863.91 2307.19 2883.81 2307.48 2883.71 2314.36 2863.81 2314.06ZM2844.57 2284.42 2890.84 2311.02 2843.8 2336.26C2842.13 2337.15 2840.05 2336.53 2839.15 2334.85 2838.25 2333.18 2838.88 2331.1 2840.55 2330.2L2882.14 2307.89 2882.05 2313.9 2841.14 2290.38C2839.49 2289.43 2838.93 2287.33 2839.87 2285.69 2840.82 2284.04 2842.92 2283.47 2844.57 2284.42Z" fill="#E97132" fill-rule="nonzero" fill-opacity="1"/><path d="M1514.55 2314.06 1542.05 2314.47 1541.95 2321.34 1514.45 2320.94ZM1562.67 2314.77 1590.17 2315.18 1590.07 2322.05 1562.57 2321.65ZM1610.79 2315.48 1638.29 2315.89 1638.19 2322.76 1610.69 2322.36ZM1658.91 2316.19 1678.81 2316.48 1678.71 2323.36 1658.81 2323.06ZM1639.57 2293.42 1685.84 2320.02 1638.8 2345.26C1637.13 2346.15 1635.05 2345.52 1634.15 2343.85 1633.25 2342.18 1633.88 2340.1 1635.55 2339.2L1677.14 2316.89 1677.05 2322.9 1636.14 2299.38C1634.49 2298.43 1633.93 2296.33 1634.87 2294.69 1635.82 2293.04 1637.92 2292.47 1639.57 2293.42Z" fill="#4EA72E" fill-rule="nonzero" fill-opacity="1"/><path d="M651.551 2308.06 679.048 2308.47 678.946 2315.34 651.449 2314.94ZM699.67 2308.77 727.167 2309.18 727.066 2316.05 699.569 2315.65ZM747.79 2309.48 775.287 2309.89 775.186 2316.76 747.689 2316.35ZM795.91 2310.19 815.813 2310.48 815.711 2317.36 795.809 2317.06ZM776.567 2287.42 822.839 2314.02 775.803 2339.26C774.13 2340.15 772.047 2339.52 771.149 2337.85 770.252 2336.18 770.881 2334.09 772.554 2333.2L814.137 2310.89 814.048 2316.9 773.14 2293.38C771.495 2292.43 770.927 2290.33 771.874 2288.68 772.82 2287.04 774.922 2286.47 776.567 2287.42Z" fill="#156082" fill-rule="nonzero" fill-opacity="1"/><text fill="#156082" fill-opacity="1" font-family="Arial,Arial_MSFontService,sans-serif" font-style="normal" font-variant="normal" font-weight="400" font-stretch="normal" font-size="55" text-anchor="start" direction="ltr" writing-mode="lr-tb" unicode-bidi="normal" text-decoration="none" transform="matrix(1 0 0 1 893.426 2333)">From file or ROS topic</text><text fill="#4EA72E" fill-opacity="1" font-family="Arial,Arial_MSFontService,sans-serif" font-style="normal" font-variant="normal" font-weight="400" font-stretch="normal" font-size="55" text-anchor="start" direction="ltr" writing-mode="lr-tb" unicode-bidi="normal" text-decoration="none" transform="matrix(1 0 0 1 1748.52 2335)">Sensors and forward kinematics</text><text fill="#E97132" fill-opacity="1" font-family="Arial,Arial_MSFontService,sans-serif" font-style="normal" font-variant="normal" font-weight="400" font-stretch="normal" font-size="55" text-anchor="start" direction="ltr" writing-mode="lr-tb" unicode-bidi="normal" text-decoration="none" transform="matrix(1 0 0 1 2954.19 2333)">Composition</text><path d="M2.81688-1.97017 18.5783 20.5649 12.9445 24.5052-2.81688 1.97017ZM30.3993 37.4662 46.1607 60.0012 40.5269 63.9416 24.7656 41.4065ZM57.9818 76.9025 73.7431 99.4376 68.1094 103.378 52.348 80.8429ZM85.5642 116.339 101.326 138.874 95.6918 142.814 79.9304 120.279ZM113.147 155.775 128.908 178.31 123.274 182.251 107.513 159.716ZM140.729 195.212 156.49 217.747 150.857 221.687 135.095 199.152ZM168.311 234.648 184.073 257.183 178.439 261.123 162.678 238.588ZM195.894 274.084 211.655 296.619 206.022 300.56 190.26 278.025ZM223.476 313.521 239.238 336.056 233.604 339.996 217.843 317.461ZM251.059 352.957 266.82 375.492 261.186 379.432 245.425 356.897ZM278.641 392.393 294.403 414.928 288.769 418.869 273.007 396.334ZM306.224 431.83 321.985 454.365 316.351 458.305 300.59 435.77ZM333.806 471.266 349.568 493.801 343.934 497.741 328.172 475.206ZM361.389 510.702 377.15 533.237 371.516 537.178 355.755 514.643ZM388.971 550.139 404.732 572.674 399.099 576.614 383.337 554.079ZM416.553 589.575 432.315 612.11 426.681 616.05 410.92 593.515ZM444.136 629.011 459.897 651.546 454.263 655.487 438.502 632.952ZM471.718 668.448 487.48 690.983 481.846 694.923 466.085 672.388ZM499.301 707.884 515.062 730.419 509.428 734.359 493.667 711.824ZM526.883 747.32 542.645 769.855 537.011 773.796 521.249 751.261ZM554.466 786.757 570.227 809.292 564.593 813.232 548.832 790.697ZM582.048 826.193 597.809 848.728 592.176 852.668 576.414 830.133ZM609.63 865.629 625.392 888.164 619.758 892.105 603.997 869.57ZM637.213 905.066 652.974 927.601 647.34 931.541 631.579 909.006ZM664.795 944.502 680.557 967.037 674.923 970.977 659.161 948.442ZM692.378 983.938 708.139 1006.47 702.505 1010.41 686.744 987.879ZM719.96 1023.37 735.721 1045.91 730.088 1049.85 714.326 1027.32ZM747.542 1062.81 763.304 1085.35 757.67 1089.29 741.909 1066.75ZM775.125 1102.25 790.886 1124.78 785.253 1128.72 769.491 1106.19ZM802.707 1141.68 818.469 1164.22 812.835 1168.16 797.074 1145.62ZM830.29 1181.12 846.051 1203.66 840.418 1207.6 824.656 1185.06ZM857.872 1220.56 873.634 1243.09 868 1247.03 852.239 1224.5ZM885.455 1259.99 901.216 1282.53 895.583 1286.47 879.821 1263.93ZM913.037 1299.43 928.799 1321.96 923.165 1325.9 907.404 1303.37ZM940.62 1338.87 956.381 1361.4 950.747 1365.34 934.986 1342.81ZM953.207 1317.63 958.707 1370.72 910.723 1347.35C909.017 1346.51 908.307 1344.46 909.139 1342.75 909.97 1341.04 912.028 1340.33 913.735 1341.17L956.156 1361.83 951.231 1365.28 946.368 1318.34C946.173 1316.45 947.545 1314.76 949.433 1314.57 951.322 1314.37 953.011 1315.74 953.207 1317.63Z" fill="#4EA72E" fill-rule="nonzero" fill-opacity="1" transform="matrix(-1 0 0 1 2039.21 564.5)"/><rect x="1239.5" y="1261.5" width="503" height="100" stroke="#4EA72E" stroke-width="3.4375" stroke-linecap="butt" stroke-linejoin="round" stroke-miterlimit="10" stroke-opacity="1" fill="#FFFFFF" fill-opacity="1"/><text fill="#4EA72E" fill-opacity="1" font-family="Courier New,Courier New_MSFontService,sans-serif" font-style="normal" font-variant="normal" font-weight="400" font-stretch="normal" font-size="55" text-anchor="start" direction="ltr" writing-mode="lr-tb" unicode-bidi="normal" text-decoration="none" transform="matrix(1 0 0 1 1272.36 1326)">/ECM/local/cp</text></g></g></svg>