<svg width="3030" height="2044" xmlns="http://www.w3.org/2000/svg" xmlns:xlink="http://www.w3.org/1999/xlink" xml:space="preserve" overflow="hidden"><g transform="translate(-499 -339)"><g><path d="M511.5 669.5C566.303 661.887 633.513 689.325 699.16 669.5 764.807 649.675 784.465 679.473 835.64 669.5 886.814 659.528 985.683 683.93 1100.07 669.5 1214.46 655.07 1210.96 677.457 1287.73 669.5 1364.5 661.543 1430.08 689.392 1475.39 669.5 1520.7 649.608 1634.44 680.21 1739.82 669.5 1845.2 658.79 1860.83 674.256 1901.89 669.5 1942.95 664.744 2056.2 671.734 2166.32 669.5 2276.44 667.266 2309.96 699.065 2430.75 669.5 2551.54 639.935 2574.04 680.683 2644 669.5 2713.96 658.317 2968.95 673.134 3070.5 669.5 3087.75 740.559 3054.46 746.44 3070.5 816.5 3086.54 886.56 3057.4 894.115 3070.5 969.5 2967.43 982.888 2926.94 957.961 2857.25 969.5 2787.56 981.039 2762.68 951.128 2695.18 969.5 2627.68 987.871 2587.53 950.284 2481.93 969.5 2376.33 988.716 2333.18 957.978 2217.5 969.5 2101.82 981.022 2110.57 949.792 2004.25 969.5 1897.93 989.208 1908.16 965.635 1867.77 969.5 1827.38 973.365 1751.09 964.737 1705.7 969.5 1660.31 974.263 1533.98 956.654 1441.27 969.5 1348.56 982.345 1320.23 968.156 1228.02 969.5 1135.81 970.844 1130 962.981 1065.95 969.5 1001.9 976.019 959.043 962.446 852.7 969.5 746.357 976.553 779.106 956.651 716.22 969.5 653.333 982.349 563.288 950.889 511.5 969.5 494.274 897.018 513.452 852.763 511.5 819.5 509.548 786.238 519.192 711.366 511.5 669.5Z" stroke="#156082" stroke-width="3.4375" stroke-linecap="square" stroke-linejoin="round" stroke-miterlimit="10" stroke-dasharray="10.3125 3.4375" stroke-opacity="1" fill="none" fill-rule="evenodd"/><text fill="#156082" fill-opacity="1" font-family="Arial,Arial_MSFontService,sans-serif" font-style="normal" font-variant="normal" font-weight="400" font-stretch="normal" font-size="55" text-anchor="start" direction="ltr" writing-mode="lr-tb" unicode-bidi="normal" text-decoration="none" transform="matrix(1 0 0 1 544.341 738)">Values set in </text><text fill="#156082" fill-opacity="1" font-family="Courier New,Courier New_MSFontService,sans-serif" font-style="normal" font-variant="normal" font-weight="400" font-stretch="normal" font-size="55" text-anchor="start" direction="ltr" writing-mode="lr-tb" unicode-bidi="normal" text-decoration="none" transform="matrix(1 0 0 1 544.341 799)">console.json</text><text fill="#156082" fill-opacity="1" font-family="Arial,Arial_MSFontService,sans-serif" font-style="normal" font-variant="normal" font-weight="400" font-stretch="normal" font-size="55" text-anchor="start" direction="ltr" writing-mode="lr-tb" unicode-bidi="normal" text-decoration="none" transform="matrix(1 0 0 1 544.341 870)">or using ROS topic</text><text fill="#156082" fill-opacity="1" font-family="Courier New,Courier New_MSFontService,sans-serif" font-style="normal" font-variant="normal" font-weight="400" font-stretch="normal" font-size="55" text-anchor="start" direction="ltr" writing-mode="lr-tb" unicode-bidi="normal" text-decoration="none" transform="matrix(1 0 0 1 544.341 931)">/MTM{L,R}/</text><text fill="#156082" fill-opacity="1" font-family="Courier New,Courier New_MSFontService,sans-serif" font-style="normal" font-variant="normal" font-weight="400" font-stretch="normal" font-size="55" text-anchor="start" direction="ltr" writing-mode="lr-tb" unicode-bidi="normal" text-decoration="none" transform="matrix(1 0 0 1 876.633 931)">set_base_frame</text><path d="M2.36186-2.4976 72.9526 64.2566 68.2289 69.2518-2.36186 2.4976ZM76.708 53.6147 87.2414 82.5 57.8131 73.5955Z" fill="#000000" fill-rule="nonzero" fill-opacity="1" transform="matrix(-1 0 0 1 1036.74 1992.5)"/><path d="M1036.5 1989.06 1146.34 1989.06 1146.34 1995.94 1036.5 1995.94ZM1141.76 1978.75 1169.26 1992.5 1141.76 2006.25Z" fill="#000000" fill-rule="nonzero" fill-opacity="1"/><path d="M3.4375-8.89956e-06 3.4378 116.48-3.4372 116.48-3.4375 8.89956e-06ZM13.7503 111.896 0.000360892 139.396-13.7497 111.897Z" fill="#000000" fill-rule="nonzero" fill-opacity="1" transform="matrix(1 0 0 -1 1036.5 1991.9)"/><text fill="#000000" fill-opacity="1" font-family="Arial,Arial_MSFontService,sans-serif" font-style="normal" font-variant="normal" font-weight="400" font-stretch="normal" font-size="55" text-anchor="start" direction="ltr" writing-mode="lr-tb" unicode-bidi="normal" text-decoration="none" transform="matrix(1 0 0 1 1069.47 2061)">MTML Tip</text><path d="M2.36186-2.4976 72.9526 64.2566 68.2289 69.2518-2.36186 2.4976ZM76.708 53.6147 87.2414 82.5 57.8131 73.5955Z" fill="#000000" fill-rule="nonzero" fill-opacity="1" transform="matrix(-1 0 0 1 1544.74 1252.5)"/><path d="M1545.5 1249.06 1655.34 1249.06 1655.34 1255.94 1545.5 1255.94ZM1650.76 1238.75 1678.26 1252.5 1650.76 1266.25Z" fill="#000000" fill-rule="nonzero" fill-opacity="1"/><path d="M3.4375-8.89956e-06 3.4378 116.48-3.4372 116.48-3.4375 8.89956e-06ZM13.7503 111.896 0.000360892 139.396-13.7497 111.897Z" fill="#000000" fill-rule="nonzero" fill-opacity="1" transform="matrix(1 0 0 -1 1545.5 1251.9)"/><text fill="#000000" fill-opacity="1" font-family="Arial,Arial_MSFontService,sans-serif" font-style="normal" font-variant="normal" font-weight="400" font-stretch="normal" font-size="55" text-anchor="start" direction="ltr" writing-mode="lr-tb" unicode-bidi="normal" text-decoration="none" transform="matrix(1 0 0 1 1577.74 1321)">MTML Base</text><path d="M2.36186-2.4976 72.9526 64.2566 68.2289 69.2518-2.36186 2.4976ZM76.708 53.6147 87.2414 82.5 57.8131 73.5955Z" fill="#000000" fill-rule="nonzero" fill-opacity="1" transform="matrix(-1 0 0 1 3041.74 1958.5)"/><path d="M3041.5 1955.06 3151.34 1955.06 3151.34 1961.94 3041.5 1961.94ZM3146.76 1944.75 3174.26 1958.5 3146.76 1972.25Z" fill="#000000" fill-rule="nonzero" fill-opacity="1"/><path d="M3.4375-8.89956e-06 3.4378 116.48-3.4372 116.48-3.4375 8.89956e-06ZM13.7503 111.896 0.000360892 139.396-13.7497 111.897Z" fill="#000000" fill-rule="nonzero" fill-opacity="1" transform="matrix(1 0 0 -1 3041.5 1958.9)"/><text fill="#000000" fill-opacity="1" font-family="Arial,Arial_MSFontService,sans-serif" font-style="normal" font-variant="normal" font-weight="400" font-stretch="normal" font-size="55" text-anchor="start" direction="ltr" writing-mode="lr-tb" unicode-bidi="normal" text-decoration="none" transform="matrix(1 0 0 1 3074.12 2028)">MTMR Tip</text><path d="M2.36186-2.4976 72.9526 64.2566 68.2289 69.2518-2.36186 2.4976ZM76.708 53.6147 87.2414 82.5 57.8131 73.5955Z" fill="#000000" fill-rule="nonzero" fill-opacity="1" transform="matrix(-1 0 0 1 2542.74 1252.5)"/><path d="M2542.5 1249.06 2652.34 1249.06 2652.34 1255.94 2542.5 1255.94ZM2647.76 1238.75 2675.26 1252.5 2647.76 1266.25Z" fill="#000000" fill-rule="nonzero" fill-opacity="1"/><path d="M3.4375-8.89956e-06 3.4378 116.48-3.4372 116.48-3.4375 8.89956e-06ZM13.7503 111.896 0.000360892 139.396-13.7497 111.897Z" fill="#000000" fill-rule="nonzero" fill-opacity="1" transform="matrix(1 0 0 -1 2542.5 1251.9)"/><text fill="#000000" fill-opacity="1" font-family="Arial,Arial_MSFontService,sans-serif" font-style="normal" font-variant="normal" font-weight="400" font-stretch="normal" font-size="55" text-anchor="start" direction="ltr" writing-mode="lr-tb" unicode-bidi="normal" text-decoration="none" transform="matrix(1 0 0 1 2575.33 1321)">MTMR Base</text><path d="M2.36186-2.4976 72.9526 64.2566 68.2289 69.2518-2.36186 2.4976ZM76.708 53.6147 87.2414 82.5 57.8131 73.5955Z" fill="#000000" fill-rule="nonzero" fill-opacity="1" transform="matrix(-1 0 0 1 2043.74 523.5)"/><path d="M2044.5 520.063 2154.34 520.063 2154.34 526.938 2044.5 526.938ZM2149.76 509.75 2177.26 523.5 2149.76 537.25Z" fill="#000000" fill-rule="nonzero" fill-opacity="1"/><path d="M3.4375-8.89956e-06 3.4378 116.48-3.4372 116.48-3.4375 8.89956e-06ZM13.7503 111.896 0.000360892 139.396-13.7497 111.897Z" fill="#000000" fill-rule="nonzero" fill-opacity="1" transform="matrix(1 0 0 -1 2044.5 523.897)"/><text fill="#000000" fill-opacity="1" font-family="Arial,Arial_MSFontService,sans-serif" font-style="normal" font-variant="normal" font-weight="400" font-stretch="normal" font-size="55" text-anchor="start" direction="ltr" writing-mode="lr-tb" unicode-bidi="normal" text-decoration="none" transform="matrix(1 0 0 1 2076.53 593)">HRSV</text><text fill="#000000" fill-opacity="1" font-family="Arial,Arial_MSFontService,sans-serif" font-style="normal" font-variant="normal" font-weight="400" font-stretch="normal" font-size="55" text-anchor="start" direction="ltr" writing-mode="lr-tb" unicode-bidi="normal" text-decoration="none" transform="matrix(1 0 0 1 2076.53 659)">(stereo display)</text><rect x="511.5" y="342.5" width="733" height="181" stroke="#000000" stroke-width="3.4375" stroke-linecap="butt" stroke-linejoin="round" stroke-miterlimit="10" stroke-opacity="1" fill="none"/><text fill="#000000" fill-opacity="1" font-family="Arial,Arial_MSFontService,sans-serif" font-style="normal" font-variant="normal" font-weight="400" font-stretch="normal" font-size="83" text-anchor="start" direction="ltr" writing-mode="lr-tb" unicode-bidi="normal" text-decoration="none" transform="matrix(1 0 0 1 568.107 458)">Surgeon console</text><path d="M2069.86 493.411 2093.15 485.858 2096.21 485.022 2098.03 491.653 2095.04 492.468 2095.2 492.422 2071.98 499.951ZM2116.11 479.583 2116.67 479.431 2140.28 474.139 2143.27 473.612 2144.47 480.382 2141.55 480.896 2141.71 480.865 2118.25 486.122 2118.4 486.083 2117.92 486.215ZM2163.59 470.033 2163.96 469.967 2187.66 466.899 2191.18 466.604 2191.76 473.455 2188.31 473.744 2188.46 473.727 2164.92 476.775 2165.07 476.751 2164.78 476.803ZM2211.89 464.898 2234.97 464.012 2239.53 464.04 2239.49 470.915 2235.01 470.887 2235.16 470.884 2212.16 471.768ZM2260.3 464.252 2281.91 465.351 2287.9 465.923 2287.25 472.767 2281.33 472.202 2281.48 472.213 2259.96 471.118ZM2308.57 468.047 2328.15 470.791 2335.89 472.226 2334.64 478.985 2326.98 477.565 2327.13 477.589 2307.61 474.855ZM2356.27 476.247 2373.4 480.207 2383.11 482.906 2381.26 489.53 2371.63 486.851 2371.78 486.888 2354.73 482.946ZM2403.02 488.804 2417.33 493.472 2429.13 497.908 2426.71 504.343 2414.98 499.934 2415.12 499.985 2400.89 495.34ZM2448.4 505.657 2459.64 510.463 2473.54 517.164 2470.55 523.357 2456.72 516.69 2456.86 516.754 2445.7 511.978ZM2491.98 526.731 2500 531.056 2515.91 540.591 2512.37 546.488 2496.54 536.992 2496.67 537.07 2488.72 532.783ZM2533.32 551.935 2538.12 555.125 2555.77 568.082 2551.7 573.624 2534.12 560.715 2534.25 560.807 2529.51 557.661ZM2571.94 581.145 2573.68 582.548 2590.39 597.479 2592.66 599.717 2587.84 604.615 2585.63 602.435 2585.75 602.55 2569.16 587.731 2569.28 587.839 2567.61 586.487ZM2607.42 614.367 2621.51 629.699 2625.89 634.971 2620.6 639.362 2616.28 634.156 2616.39 634.287 2602.36 619.019ZM2638.96 651.144 2649.28 664.962 2655.08 673.634 2649.36 677.456 2643.61 668.858 2643.72 669.004 2633.45 655.258ZM2666.26 691.174 2673.38 703.14 2679.77 715.322 2673.69 718.518 2667.33 706.417 2667.42 706.577 2660.35 694.689ZM2688.88 734.027 2693.49 744.093 2699.54 759.111 2699.72 759.611 2693.25 761.93 2693.09 761.493 2693.14 761.619 2687.14 746.737 2687.2 746.884 2682.63 736.891ZM2706.53 779.22 2709.74 789.442 2713.9 804.738 2714.17 805.908 2707.47 807.452 2707.22 806.347 2707.25 806.478 2703.13 791.312 2703.16 791.441 2699.97 781.283ZM2718.6 826.188 2720.37 835.516 2722.67 850.97 2722.96 853.604 2716.12 854.352 2715.84 851.784 2715.86 851.917 2713.58 836.597 2713.6 836.73 2711.84 827.468ZM2724.91 874.268 2725.45 881.932 2725.92 897.411 2725.89 902.01 2719.01 901.954 2719.05 897.423 2719.05 897.556 2718.58 882.211 2718.58 882.345 2718.05 874.748ZM2725.33 922.757 2725.07 928.294 2723.75 943.668 2722.91 950.408 2716.09 949.555 2716.92 942.881 2716.91 943.013 2718.22 927.772 2718.21 927.905 2718.47 922.434ZM2719.87 970.938 2719.34 974.208 2716.25 989.345 2714.11 998.089 2707.43 996.457 2709.55 987.777 2709.52 987.905 2712.59 972.897 2712.56 973.027 2713.09 969.823ZM2708.65 1018.11 2708.32 1019.28 2703.49 1034.05 2699.67 1044.37 2693.23 1041.99 2697.02 1031.73 2696.98 1031.85 2701.77 1017.21 2701.73 1017.33 2702.04 1016.23ZM2691.84 1063.73 2685.58 1077.39 2679.9 1088.64 2673.76 1085.54 2679.41 1074.35 2679.35 1074.46 2685.58 1060.87ZM2669.84 1106.94 2662.6 1118.96 2655.15 1130.33 2649.4 1126.57 2656.81 1115.25 2656.74 1115.36 2663.95 1103.39ZM2643.08 1147.37 2634.64 1158.39 2625.89 1168.98 2620.59 1164.6 2629.3 1154.06 2629.22 1154.16 2637.63 1143.19ZM2612.03 1184.59 2601.79 1195.27 2594.9 1201.96 2590.12 1197.03 2596.96 1190.38 2596.87 1190.47 2607.06 1179.84ZM2638.97 1190.53 2587.43 1204.42 2602.86 1153.33C2603.41 1151.51 2605.33 1150.48 2607.15 1151.03 2608.97 1151.58 2609.99 1153.5 2609.44 1155.32L2595.8 1200.49 2591.61 1196.18 2637.18 1183.9C2639.01 1183.4 2640.9 1184.49 2641.39 1186.32 2641.89 1188.15 2640.8 1190.04 2638.97 1190.53Z" fill="#156082" fill-rule="nonzero" fill-opacity="1"/><path d="M2590.16 1214.45 2613.48 1206.89 2616.52 1206.06 2618.33 1212.69 2615.37 1213.5 2615.53 1213.45 2592.28 1220.99ZM2636.41 1200.62 2637.02 1200.45 2660.66 1195.15 2663.58 1194.64 2664.77 1201.41 2661.93 1201.91 2662.08 1201.88 2638.6 1207.14 2638.76 1207.11 2638.22 1207.25ZM2683.89 1191.06 2684.36 1190.98 2708.08 1187.9 2711.48 1187.62 2712.06 1194.47 2708.73 1194.75 2708.89 1194.73 2685.32 1197.78 2685.48 1197.76 2685.08 1197.83ZM2732.19 1185.91 2755.45 1185.01 2759.83 1185.04 2759.78 1191.91 2755.48 1191.89 2755.63 1191.89 2732.46 1192.78ZM2780.6 1185.24 2802.43 1186.35 2808.2 1186.9 2807.55 1193.75 2801.85 1193.2 2802.01 1193.21 2780.25 1192.11ZM2828.87 1189.01 2848.73 1191.8 2856.2 1193.18 2854.95 1199.94 2847.55 1198.57 2847.7 1198.59 2827.91 1195.82ZM2876.58 1197.19 2894.02 1201.22 2903.42 1203.83 2901.57 1210.46 2892.25 1207.87 2892.39 1207.9 2875.03 1203.89ZM2923.34 1209.72 2937.99 1214.5 2949.45 1218.81 2947.03 1225.24 2935.65 1220.96 2935.79 1221.01 2921.2 1216.25ZM2968.73 1226.54 2980.34 1231.51 2993.87 1238.03 2990.89 1244.22 2977.43 1237.74 2977.57 1237.8 2966.02 1232.86ZM3012.32 1247.58 3020.76 1252.12 3036.26 1261.42 3032.72 1267.32 3017.29 1258.06 3017.42 1258.14 3009.06 1253.63ZM3053.68 1272.75 3058.91 1276.22 3076.15 1288.87 3072.08 1294.42 3054.91 1281.81 3055.04 1281.9 3049.88 1278.47ZM3092.34 1301.92 3094.51 1303.67 3111.24 1318.62 3113.1 1320.45 3108.27 1325.35 3106.48 1323.58 3106.6 1323.69 3089.99 1308.86 3090.11 1308.96 3088.01 1307.26ZM3127.87 1335.08 3142.39 1350.88 3146.36 1355.66 3141.07 1360.05 3137.16 1355.33 3137.27 1355.46 3122.81 1339.73ZM3159.46 1371.81 3170.19 1386.18 3175.61 1394.28 3169.9 1398.1 3164.53 1390.07 3164.63 1390.22 3153.95 1375.93ZM3186.82 1411.8 3194.32 1424.4 3200.37 1435.93 3194.28 1439.13 3188.27 1427.68 3188.36 1427.84 3180.91 1415.32ZM3209.51 1454.62 3214.45 1465.4 3220.36 1480.06 3213.98 1482.62 3208.1 1468.04 3208.17 1468.19 3203.26 1457.48ZM3227.25 1499.77 3230.72 1510.8 3234.89 1526.11 3234.97 1526.45 3228.27 1527.99 3228.2 1527.72 3228.24 1527.85 3224.11 1512.67 3224.14 1512.8 3220.69 1501.84ZM3239.42 1546.72 3241.36 1556.92 3243.67 1572.39 3243.85 1574.12 3237.02 1574.87 3236.84 1573.21 3236.86 1573.34 3234.57 1558.01 3234.59 1558.14 3232.67 1548ZM3245.84 1594.78 3246.45 1603.39 3246.93 1618.89 3246.9 1622.52 3240.02 1622.47 3240.05 1618.9 3240.05 1619.03 3239.58 1603.67 3239.58 1603.8 3238.99 1595.26ZM3246.38 1643.27 3246.08 1649.81 3244.75 1665.2 3244.04 1670.93 3237.22 1670.08 3237.92 1664.41 3237.91 1664.54 3239.22 1649.28 3239.21 1649.42 3239.52 1642.95ZM3241.04 1691.47 3240.33 1695.77 3237.24 1710.93 3235.36 1718.63 3228.68 1717 3230.55 1709.36 3230.52 1709.49 3233.58 1694.46 3233.56 1694.59 3234.26 1690.35ZM3229.94 1738.67 3229.31 1740.89 3224.47 1755.68 3221.05 1764.96 3214.6 1762.57 3218 1753.36 3217.96 1753.48 3222.75 1738.82 3222.72 1738.95 3223.33 1736.78ZM3213.32 1784.22 3213.09 1784.78 3206.55 1799.07 3201.39 1809.28 3195.26 1806.18 3200.38 1796.03 3200.32 1796.15 3206.81 1781.98 3206.76 1782.1 3206.97 1781.59ZM3191.42 1827.62 3183.54 1840.69 3176.77 1851.04 3171.02 1847.28 3177.76 1836.98 3177.69 1837.09 3185.53 1824.07ZM3164.78 1868.13 3155.56 1880.17 3147.62 1889.78 3142.32 1885.4 3150.22 1875.84 3150.14 1875.93 3159.32 1863.95ZM3133.84 1905.45 3122.68 1917.09 3115.78 1923.79 3110.99 1918.86 3117.85 1912.2 3117.76 1912.29 3128.87 1900.7ZM3159.84 1912.36 3108.31 1926.26 3123.74 1875.16C3124.28 1873.34 3126.2 1872.31 3128.02 1872.86 3129.84 1873.41 3130.87 1875.33 3130.32 1877.15L3116.68 1922.32 3112.49 1918.01 3158.05 1905.72C3159.89 1905.23 3161.77 1906.31 3162.27 1908.15 3162.76 1909.98 3161.68 1911.87 3159.84 1912.36Z" fill="#4EA72E" fill-rule="nonzero" fill-opacity="1"/><rect x="2954.5" y="1523.5" width="570" height="100" stroke="#4EA72E" stroke-width="3.4375" stroke-linecap="butt" stroke-linejoin="round" stroke-miterlimit="10" stroke-opacity="1" fill="#FFFFFF" fill-opacity="1"/><text fill="#4EA72E" fill-opacity="1" font-family="Courier New,Courier New_MSFontService,sans-serif" font-style="normal" font-variant="normal" font-weight="400" font-stretch="normal" font-size="55" text-anchor="start" direction="ltr" writing-mode="lr-tb" unicode-bidi="normal" text-decoration="none" transform="matrix(1 0 0 1 2986.88 1588)">/MTMR/local/*cp</text><path d="M305.663 25.9512 328.982 18.3884 332.017 17.5587 333.83 24.1903 330.873 24.9988 331.027 24.9529 307.784 32.4908ZM351.912 12.1192 352.519 11.9531 376.158 6.65457 379.076 6.14029 380.269 12.9109 377.429 13.4115 377.584 13.3804 354.1 18.6443 354.255 18.6058 353.725 18.7508ZM399.387 2.56012 399.859 2.47697 423.584-0.595419 426.983-0.879731 427.556 5.97135 424.234 6.24916 424.389 6.23266 400.82 9.28495 400.975 9.26123 400.581 9.33074ZM447.692-2.59371 470.946-3.48764 475.328-3.45999 475.285 3.41487 470.979 3.38771 471.133 3.38524 447.956 4.27622ZM496.104-3.25775 517.931-2.14826 523.702-1.59802 523.049 5.24594 517.354 4.70292 517.506 4.71401 495.755 3.60838ZM544.368 0.514929 564.225 3.29667 571.698 4.68127 570.446 11.4412 563.047 10.0704 563.197 10.0947 543.414 7.32345ZM592.08 8.69018 609.517 12.7215 618.915 15.3348 617.073 21.9584 607.748 19.3654 607.895 19.4027 590.532 15.3885ZM638.836 21.2187 653.494 26.0008 664.945 30.3067 662.526 36.7418 651.146 32.4627 651.29 32.5132 636.704 27.7546ZM684.226 38.0395 695.845 43.0099 709.372 49.5297 706.387 55.7229 692.929 49.2367 693.07 49.3005 681.522 44.3605ZM727.823 59.0793 736.255 63.6245 751.76 72.9212 748.224 78.8175 732.787 69.5612 732.924 69.6389 724.561 65.1311ZM769.183 84.2457 774.413 87.7203 791.649 100.374 787.581 105.916 770.41 93.3099 770.542 93.4022 765.379 89.9721ZM807.836 113.416 810.005 115.174 826.74 130.12 828.595 131.948 823.77 136.845 821.975 135.077 822.098 135.192 805.487 120.356 805.613 120.464 803.508 118.759ZM843.375 146.577 857.893 162.377 861.862 167.16 856.572 171.551 852.658 166.834 852.772 166.965 838.312 151.228ZM874.962 183.312 885.691 197.679 891.11 205.782 885.395 209.604 880.025 201.575 880.129 201.721 869.453 187.426ZM902.32 223.302 909.817 235.9 915.871 247.431 909.784 250.627 903.772 239.177 903.862 239.337 896.412 226.818ZM925.01 266.118 929.949 276.9 935.855 291.556 929.478 294.125 923.602 279.543 923.666 279.69 918.76 268.982ZM942.753 311.275 946.222 322.299 950.389 337.611 950.466 337.946 943.766 339.49 943.704 339.221 943.737 339.352 939.606 324.169 939.644 324.298 936.195 313.338ZM954.923 358.218 956.858 368.424 959.166 383.895 959.355 385.624 952.521 386.372 952.339 384.71 952.356 384.843 950.068 369.505 950.09 369.638 948.169 359.498ZM961.344 406.284 961.947 414.892 962.425 430.389 962.396 434.024 955.521 433.968 955.55 430.401 955.551 430.534 955.077 415.171 955.084 415.305 954.486 406.765ZM961.883 454.772 961.576 461.306 960.254 476.698 959.538 482.43 952.716 481.577 953.424 475.911 953.41 476.043 954.72 460.785 954.711 460.918 955.015 454.45ZM956.541 502.966 955.833 507.272 952.741 522.427 950.858 530.133 944.18 528.502 946.047 520.859 946.018 520.987 949.084 505.963 949.06 506.092 949.757 501.851ZM945.444 550.167 944.808 552.395 939.975 567.181 936.547 576.457 930.099 574.074 933.503 564.859 933.461 564.983 938.253 550.321 938.215 550.447 938.833 548.282ZM928.823 595.718 928.59 596.282 922.046 610.568 916.895 620.778 910.757 617.681 915.878 607.529 915.822 607.646 922.313 593.478 922.261 593.596 922.469 593.093ZM906.919 639.12 899.044 652.194 892.273 662.541 886.52 658.777 893.256 648.483 893.188 648.592 901.03 635.573ZM880.279 679.629 871.059 691.666 863.12 701.275 857.82 696.896 865.719 687.336 865.64 687.436 874.821 675.449ZM849.335 716.951 838.184 728.593 831.281 735.293 826.492 730.36 833.351 723.703 833.262 723.792 844.371 712.196ZM875.343 723.861 823.807 737.756 839.236 686.659C839.784 684.842 841.703 683.813 843.52 684.362 845.338 684.911 846.366 686.829 845.817 688.646L832.177 733.82 827.992 729.508 873.553 717.223C875.386 716.729 877.272 717.814 877.767 719.647 878.261 721.48 877.176 723.367 875.343 723.861Z" fill="#156082" fill-rule="nonzero" fill-opacity="1" transform="matrix(-1 0 0 1 2329.5 472.5)"/><path d="M305.839 25.856 329.16 18.3102 332.198 17.4819 334.007 24.1146 331.047 24.9219 331.201 24.876 307.955 32.3972ZM352.096 12.0553 352.7 11.8906 376.341 6.60643 379.263 6.09298 380.453 12.8643 377.608 13.364 377.763 13.3331 354.277 18.5827 354.432 18.5443 353.905 18.6881ZM399.577 2.52396 400.044 2.44197 423.77-0.618553 427.174-0.901778 427.744 5.94956 424.417 6.22633 424.572 6.20991 401.001 9.25044 401.156 9.22683 400.767 9.29525ZM447.884-2.60628 471.133-3.49083 475.52-3.46165 475.474 3.4132 471.164 3.38453 471.317 3.38212 448.145 4.26375ZM496.295-3.25213 518.117-2.13654 523.893-1.58439 523.238 5.25941 517.538 4.71449 517.69 4.72561 495.944 3.6139ZM544.558 0.533641 564.408 3.3183 571.888 4.70519 570.634 11.465 563.229 10.0918 563.378 10.1161 543.603 7.34197ZM592.269 8.71716 609.696 12.748 619.103 15.3644 617.261 21.988 607.927 19.3919 608.073 19.4292 590.72 15.4153ZM639.024 21.2497 653.667 26.0275 665.132 30.3383 662.713 36.7735 651.319 32.4894 651.463 32.5398 636.891 27.7856ZM684.412 38.0712 696.01 43.0318 709.559 49.5605 706.575 55.754 693.095 49.2588 693.236 49.3225 681.709 44.3923ZM728.011 59.1093 736.412 63.6367 751.948 72.9495 748.414 78.8463 732.945 69.5739 733.081 69.6516 724.749 65.1615ZM769.372 84.273 774.56 87.7182 791.839 100.4 787.772 105.942 770.557 93.3085 770.689 93.4007 765.569 90.0001ZM808.026 113.441 810.14 115.152 826.869 130.088 828.784 131.975 823.96 136.873 822.105 135.045 822.228 135.16 805.623 120.336 805.749 120.443 803.7 118.784ZM843.563 146.604 858.008 162.318 862.05 167.188 856.76 171.579 852.773 166.776 852.887 166.907 838.501 151.256ZM875.147 183.342 885.791 197.59 891.292 205.814 885.578 209.637 880.126 201.487 880.229 201.633 869.639 187.457ZM902.497 223.337 909.901 235.776 916.041 247.47 909.955 250.666 903.857 239.053 903.946 239.213 896.589 226.853ZM925.171 266.162 930.016 276.736 936.007 291.604 929.63 294.173 923.669 279.38 923.732 279.527 918.921 269.026ZM942.885 311.33 946.272 322.097 950.433 337.397 950.573 338.008 943.874 339.55 943.748 339.005 943.781 339.136 939.656 323.966 939.694 324.096 936.327 313.393ZM955.015 358.284 956.888 368.182 959.19 383.639 959.414 385.695 952.58 386.44 952.363 384.451 952.38 384.585 950.098 369.262 950.121 369.394 948.26 359.562ZM961.382 406.358 961.956 414.607 962.428 430.089 962.393 434.099 955.519 434.04 955.552 430.097 955.554 430.231 955.087 414.883 955.093 415.018 954.524 406.835ZM961.854 454.847 961.563 460.976 960.233 476.352 959.461 482.5 952.639 481.643 953.403 475.561 953.389 475.694 954.707 460.451 954.698 460.584 954.987 454.52ZM956.433 503.032 955.796 506.895 952.694 522.033 950.695 530.188 944.018 528.551 946.002 520.46 945.973 520.589 949.047 505.581 949.023 505.711 949.65 501.913ZM945.247 550.214 944.744 551.97 939.902 566.739 936.291 576.484 929.844 574.095 933.433 564.411 933.39 564.535 938.191 549.89 938.153 550.015 938.637 548.322ZM928.528 595.736 928.498 595.809 921.945 610.075 916.541 620.762 910.406 617.659 915.781 607.03 915.725 607.147 922.224 592.996 922.175 593.109 922.181 593.094ZM906.509 639.073 898.915 651.65 891.82 662.468 886.071 658.697 893.131 647.933 893.063 648.041 900.623 635.52ZM879.772 679.517 870.903 691.07 862.571 701.13 857.276 696.745 865.567 686.734 865.488 686.833 874.318 675.331ZM848.735 716.761 837.999 727.944 831.091 734.632 826.309 729.693 833.171 723.049 833.083 723.137 843.776 711.999ZM875.167 723.25 823.615 737.087 839.102 686.007C839.653 684.19 841.572 683.164 843.389 683.715 845.206 684.266 846.232 686.185 845.681 688.002L831.99 733.16 827.809 728.843 873.384 716.61C875.218 716.118 877.103 717.206 877.595 719.039 878.088 720.873 877 722.758 875.167 723.25Z" fill="#4EA72E" fill-rule="nonzero" fill-opacity="1" transform="matrix(-1 0 0 1 1807.5 1218.5)"/><rect x="1232.5" y="736.5" width="406" height="99.9997" stroke="#156082" stroke-width="3.4375" stroke-linecap="butt" stroke-linejoin="round" stroke-miterlimit="10" stroke-opacity="1" fill="#FFFFFF" fill-opacity="1"/><text fill="#156082" fill-opacity="1" font-family="Arial,Arial_MSFontService,sans-serif" font-style="normal" font-variant="normal" font-weight="400" font-stretch="normal" font-size="55" text-anchor="start" direction="ltr" writing-mode="lr-tb" unicode-bidi="normal" text-decoration="none" transform="matrix(1 0 0 1 1264.88 805)">No ROS topic</text><rect x="600.5" y="1523.5" width="570" height="100" stroke="#4EA72E" stroke-width="3.4375" stroke-linecap="butt" stroke-linejoin="round" stroke-miterlimit="10" stroke-opacity="1" fill="#FFFFFF" fill-opacity="1"/><text fill="#4EA72E" fill-opacity="1" font-family="Courier New,Courier New_MSFontService,sans-serif" font-style="normal" font-variant="normal" font-weight="400" font-stretch="normal" font-size="55" text-anchor="start" direction="ltr" writing-mode="lr-tb" unicode-bidi="normal" text-decoration="none" transform="matrix(1 0 0 1 633.003 1588)">/MTML/local/*cp</text><path d="M1001.51 3.90659 1018.44 6.82052 1028.66 8.98841 1027.24 15.7139 1017.08 13.5597 1017.21 13.5847 1000.34 10.682ZM1048.89 13.62 1062.14 16.9612 1075.54 20.8837 1073.61 27.482 1060.27 23.5777 1060.39 23.6117 1047.21 20.2862ZM1095.32 27.1442 1105.12 30.409 1121.32 36.4734 1118.91 42.9122 1102.77 36.8697 1102.89 36.9115 1093.15 33.6665ZM1140.55 44.2591 1147.33 47.0787 1165.77 55.5122 1162.91 61.7642 1144.53 53.3557 1144.64 53.404 1137.91 50.6075ZM1184.37 64.703 1188.73 66.885 1208.72 77.7237 1205.44 83.767 1185.51 72.9558 1185.61 73.0092 1181.29 70.853ZM1226.62 88.1914 1229.27 89.7426 1249.2 102.289 1250.11 102.904 1246.26 108.604 1245.4 108.02 1245.49 108.078 1225.65 95.5899 1225.75 95.6472 1223.14 94.1238ZM1267.21 114.433 1268.89 115.567 1288.34 129.564 1289.7 130.606 1285.52 136.065 1284.21 135.054 1284.29 135.115 1264.92 121.178 1265 121.238 1263.37 120.134ZM1306.08 143.145 1307.55 144.272 1326.51 159.679 1327.58 160.601 1323.1 165.812 1322.06 164.921 1322.14 164.984 1303.26 149.639 1303.33 149.701 1301.9 148.603ZM1343.21 174.056 1345.21 175.775 1363.65 192.549 1363.74 192.637 1358.98 197.596 1358.92 197.54 1358.99 197.603 1340.62 180.892 1340.69 180.955 1338.73 179.267ZM1378.62 206.92 1381.82 209.991 1398.09 226.458 1393.21 231.291 1376.96 214.856 1377.02 214.919 1373.86 211.88ZM1412.32 241.513 1417.32 246.836 1430.84 261.956 1425.71 266.538 1412.22 251.45 1412.28 251.513 1407.31 246.22ZM1444.37 277.633 1451.68 286.228 1461.95 298.879 1456.61 303.212 1446.37 290.591 1446.42 290.653 1439.13 282.09ZM1474.81 315.105 1484.85 328.081 1491.49 337.064 1485.96 341.149 1479.35 332.198 1479.39 332.259 1469.37 319.313ZM1503.7 353.774 1516.78 372.315 1519.51 376.365 1513.81 380.206 1511.1 376.188 1511.14 376.248 1498.09 357.737ZM1531.04 393.469 1532.27 395.299 1546 416.626 1540.22 420.348 1526.51 399.05 1526.55 399.111 1525.34 397.311ZM1556.89 434.224 1562.26 442.947 1571.04 457.884 1565.11 461.368 1556.35 446.461 1556.39 446.52 1551.04 437.827ZM1581.37 475.814 1590.89 492.767 1594.73 499.923 1588.68 503.174 1584.85 496.048 1584.88 496.106 1575.37 479.182ZM1604.49 518.096 1604.69 518.467 1617.07 542.621 1610.95 545.757 1598.58 521.632 1598.61 521.689 1598.43 521.347ZM1626.2 561.184 1631.2 571.392 1638.06 586.067 1631.83 588.976 1624.98 574.33 1625.01 574.386 1620.03 564.206ZM1646.7 604.86 1656.24 626.283 1657.85 630.064 1651.52 632.751 1649.93 628.998 1649.95 629.053 1640.42 607.658ZM1665.91 649.049 1668.2 654.44 1676.33 674.561 1669.96 677.137 1661.83 657.045 1661.86 657.1 1659.58 651.736ZM1683.9 693.809 1690.95 712.126 1693.67 719.577 1687.21 721.936 1684.5 714.513 1684.52 714.567 1677.48 696.276ZM1700.75 738.95 1701.73 741.635 1709.82 764.971 1703.32 767.223 1695.24 743.913 1695.26 743.967 1694.29 741.309ZM1716.38 784.583 1722.07 801.93 1724.83 810.809 1718.26 812.848 1715.52 803.996 1715.53 804.049 1709.84 786.728ZM1730.95 830.507 1731.63 832.697 1738.73 856.939 1732.13 858.872 1725.04 834.657 1725.05 834.709 1724.38 832.545ZM1744.34 876.842 1749.47 895.416 1751.54 903.437 1744.89 905.162 1742.82 897.167 1742.83 897.219 1737.71 878.671ZM1756.72 923.403 1757.74 927.348 1763.28 950.164 1756.59 951.785 1751.07 928.995 1751.08 929.047 1750.06 925.127ZM1767.99 970.298 1772.97 992.306 1773.99 997.187 1767.27 998.602 1766.24 993.747 1766.26 993.798 1761.28 971.815ZM1778.24 1017.37 1779.91 1025.31 1783.62 1044.39 1776.87 1045.7 1773.16 1026.65 1773.17 1026.7 1771.51 1018.79ZM1787.47 1064.71 1792.32 1091.78 1785.55 1092.99 1780.71 1065.92ZM1795.66 1112.18 1797.97 1126.31 1799.91 1139.4 1793.11 1140.41 1791.17 1127.34 1791.18 1127.39 1788.88 1113.29ZM1802.93 1159.8 1803.05 1160.6 1806.58 1187.11 1799.76 1188.02 1796.24 1161.53 1796.24 1161.58 1796.13 1160.81ZM1809.12 1207.63 1811.76 1230.06 1812.27 1235 1805.44 1235.7 1804.93 1230.79 1804.93 1230.84 1802.29 1208.44ZM1814.39 1255.52 1815.39 1265.2 1816.95 1282.95 1810.1 1283.55 1808.54 1265.83 1808.55 1265.88 1807.55 1256.22ZM1818.73 1303.54 1820.74 1330.97 1813.89 1331.47 1811.87 1304.05ZM1822.04 1351.6 1823.25 1372.19 1823.55 1379.11 1816.68 1379.42 1816.38 1372.52 1816.38 1372.57 1815.17 1352.01ZM1824.46 1399.72 1824.84 1408.34 1825.4 1427.25 1818.53 1427.45 1817.97 1408.57 1817.97 1408.62 1817.59 1400.02ZM1825.97 1447.92 1826.38 1475.42 1819.5 1475.52 1819.09 1448.02ZM1000.92 7.29429 1015.91 32.5278 973.687 3.48828 1022.25-12.8645Z" fill="#E97132" fill-rule="nonzero" fill-opacity="1" transform="matrix(0.996593 0.0824725 0.0824725 -0.996593 109.137 1857.69)"/><rect x="1659.5" y="1409.5" width="368" height="100" stroke="#E97132" stroke-width="3.4375" stroke-linecap="butt" stroke-linejoin="round" stroke-miterlimit="10" stroke-opacity="1" fill="#FFFFFF" fill-opacity="1"/><text fill="#E97132" fill-opacity="1" font-family="Courier New,Courier New_MSFontService,sans-serif" font-style="normal" font-variant="normal" font-weight="400" font-stretch="normal" font-size="55" text-anchor="start" direction="ltr" writing-mode="lr-tb" unicode-bidi="normal" text-decoration="none" transform="matrix(1 0 0 1 1691.78 1473)">/MTML/*cp</text><path d="M2719.55 2305.06 2747.05 2305.47 2746.95 2312.34 2719.45 2311.94ZM2767.67 2305.77 2795.17 2306.18 2795.07 2313.05 2767.57 2312.65ZM2815.79 2306.48 2843.29 2306.89 2843.19 2313.76 2815.69 2313.36ZM2863.91 2307.19 2883.81 2307.48 2883.71 2314.36 2863.81 2314.06ZM2844.57 2284.42 2890.84 2311.02 2843.8 2336.26C2842.13 2337.15 2840.05 2336.53 2839.15 2334.85 2838.25 2333.18 2838.88 2331.1 2840.55 2330.2L2882.14 2307.89 2882.05 2313.9 2841.14 2290.38C2839.49 2289.43 2838.93 2287.33 2839.87 2285.69 2840.82 2284.04 2842.92 2283.47 2844.57 2284.42Z" fill="#E97132" fill-rule="nonzero" fill-opacity="1"/><path d="M1514.55 2314.06 1542.05 2314.47 1541.95 2321.34 1514.45 2320.94ZM1562.67 2314.77 1590.17 2315.18 1590.07 2322.05 1562.57 2321.65ZM1610.79 2315.48 1638.29 2315.89 1638.19 2322.76 1610.69 2322.36ZM1658.91 2316.19 1678.81 2316.48 1678.71 2323.36 1658.81 2323.06ZM1639.57 2293.42 1685.84 2320.02 1638.8 2345.26C1637.13 2346.15 1635.05 2345.52 1634.15 2343.85 1633.25 2342.18 1633.88 2340.1 1635.55 2339.2L1677.14 2316.89 1677.05 2322.9 1636.14 2299.38C1634.49 2298.43 1633.93 2296.33 1634.87 2294.69 1635.82 2293.04 1637.92 2292.47 1639.57 2293.42Z" fill="#4EA72E" fill-rule="nonzero" fill-opacity="1"/><path d="M651.551 2308.06 679.048 2308.47 678.946 2315.34 651.449 2314.94ZM699.67 2308.77 727.167 2309.18 727.066 2316.05 699.569 2315.65ZM747.79 2309.48 775.287 2309.89 775.186 2316.76 747.689 2316.35ZM795.91 2310.19 815.813 2310.48 815.711 2317.36 795.809 2317.06ZM776.567 2287.42 822.839 2314.02 775.803 2339.26C774.13 2340.15 772.047 2339.52 771.149 2337.85 770.252 2336.18 770.881 2334.09 772.554 2333.2L814.137 2310.89 814.048 2316.9 773.14 2293.38C771.495 2292.43 770.927 2290.33 771.874 2288.68 772.82 2287.04 774.922 2286.47 776.567 2287.42Z" fill="#156082" fill-rule="nonzero" fill-opacity="1"/><text fill="#156082" fill-opacity="1" font-family="Arial,Arial_MSFontService,sans-serif" font-style="normal" font-variant="normal" font-weight="400" font-stretch="normal" font-size="55" text-anchor="start" direction="ltr" writing-mode="lr-tb" unicode-bidi="normal" text-decoration="none" transform="matrix(1 0 0 1 893.426 2333)">From file or ROS topic</text><text fill="#4EA72E" fill-opacity="1" font-family="Arial,Arial_MSFontService,sans-serif" font-style="normal" font-variant="normal" font-weight="400" font-stretch="normal" font-size="55" text-anchor="start" direction="ltr" writing-mode="lr-tb" unicode-bidi="normal" text-decoration="none" transform="matrix(1 0 0 1 1748.52 2335)">Sensors </text><text fill="#4EA72E" fill-opacity="1" font-family="Arial,Arial_MSFontService,sans-serif" font-style="normal" font-variant="normal" font-weight="400" font-stretch="normal" font-size="55" text-anchor="start" direction="ltr" writing-mode="lr-tb" unicode-bidi="normal" text-decoration="none" transform="matrix(1 0 0 1 1965.08 2335)">and forward kinematics</text><text fill="#E97132" fill-opacity="1" font-family="Arial,Arial_MSFontService,sans-serif" font-style="normal" font-variant="normal" font-weight="400" font-stretch="normal" font-size="55" text-anchor="start" direction="ltr" writing-mode="lr-tb" unicode-bidi="normal" text-decoration="none" transform="matrix(1 0 0 1 2954.19 2333)">Composition</text><rect x="2526.5" y="737.5" width="406" height="100" stroke="#156082" stroke-width="3.4375" stroke-linecap="butt" stroke-linejoin="round" stroke-miterlimit="10" stroke-opacity="1" fill="#FFFFFF" fill-opacity="1"/><text fill="#156082" fill-opacity="1" font-family="Arial,Arial_MSFontService,sans-serif" font-style="normal" font-variant="normal" font-weight="400" font-stretch="normal" font-size="55" text-anchor="start" direction="ltr" writing-mode="lr-tb" unicode-bidi="normal" text-decoration="none" transform="matrix(1 0 0 1 2559.21 807)">No ROS topic</text><path d="M2950.58 1930.23 2937.21 1929.08 2923.1 1927.27 2923.97 1920.45 2938.01 1922.25 2937.87 1922.23 2951.17 1923.38ZM2902.59 1924.06 2896.41 1923.01 2876.12 1918.72 2875.38 1918.53 2877.06 1911.86 2877.74 1912.04 2877.61 1912.01 2897.76 1916.27 2897.63 1916.24 2903.74 1917.28ZM2855.26 1913.41 2835.79 1907.68 2828.84 1905.34 2831.03 1898.83 2837.92 1901.14 2837.79 1901.1 2857.2 1906.82ZM2809.25 1898.49 2795.84 1893.43 2783.59 1888.29 2786.24 1881.95 2798.44 1887.07 2798.33 1887.02 2811.68 1892.06ZM2764.63 1879.87 2756.33 1876.05 2739.82 1867.75 2742.91 1861.61 2759.37 1869.88 2759.26 1869.83 2767.51 1873.63ZM2721.55 1857.93 2717.3 1855.62 2697.99 1844.28 2697.58 1844.03 2701.24 1838.21 2701.61 1838.44 2701.52 1838.38 2720.74 1849.66 2720.64 1849.61 2724.84 1851.9ZM2680.13 1833.04 2678.82 1832.21 2659.79 1819.42 2657.16 1817.55 2661.16 1811.95 2663.75 1813.8 2663.67 1813.75 2682.61 1826.48 2682.52 1826.42 2683.79 1827.22ZM2640.32 1805.47 2622.2 1791.71 2618.43 1788.68 2622.73 1783.32 2626.47 1786.32 2626.4 1786.26 2644.48 1799.99ZM2602.31 1775.67 2585.28 1761.22 2581.36 1757.72 2585.94 1752.59 2589.83 1756.06 2589.76 1756.01 2606.76 1770.42ZM2565.94 1743.89 2549.07 1728.03 2545.91 1724.92 2550.74 1720.03 2553.87 1723.11 2553.81 1723.05 2570.65 1738.88ZM2531.18 1710.38 2513.62 1692.23 2512.04 1690.52 2517.09 1685.85 2518.65 1687.54 2518.59 1687.48 2536.12 1705.6ZM2498.05 1675.37 2496.2 1673.37 2479.75 1654.74 2484.9 1650.19 2501.33 1668.79 2501.28 1668.73 2503.1 1670.7ZM2466.37 1638.95 2462 1633.78 2448.91 1617.61 2454.25 1613.28 2467.32 1629.42 2467.27 1629.37 2471.62 1634.51ZM2436.12 1601.34 2428.69 1591.76 2419.46 1579.37 2424.97 1575.27 2434.18 1587.63 2434.14 1587.57 2441.55 1597.12ZM2407.24 1562.68 2396.31 1547.4 2391.34 1540.16 2397.01 1536.26 2401.96 1543.48 2401.93 1543.42 2412.83 1558.68ZM2379.66 1523.08 2364.93 1500.76 2364.5 1500.07 2370.3 1496.39 2370.72 1497.05 2370.69 1497 2385.4 1519.3ZM2353.46 1482.64 2349.63 1476.61 2339.01 1459.17 2344.88 1455.6 2355.49 1473.01 2355.46 1472.95 2359.26 1478.96ZM2328.44 1441.4 2319.83 1426.7 2314.67 1417.52 2320.66 1414.15 2325.81 1423.31 2325.78 1423.26 2334.37 1437.92ZM2304.55 1399.49 2291.47 1375.3 2297.52 1372.03 2310.6 1396.21ZM2281.92 1356.95 2277.25 1347.97 2269.46 1332.37 2275.61 1329.3 2283.39 1344.87 2283.37 1344.82 2288.02 1353.78ZM2260.33 1313.82 2250.35 1293.01 2248.48 1288.95 2254.72 1286.07 2256.58 1290.11 2256.56 1290.06 2266.53 1310.85ZM2239.85 1270.21 2237.36 1264.81 2228.63 1245.05 2234.91 1242.27 2243.64 1262.01 2243.62 1261.96 2246.1 1267.34ZM2220.42 1226.07 2212.35 1207.04 2209.76 1200.67 2216.13 1198.08 2218.71 1204.43 2218.69 1204.38 2226.75 1223.39ZM2201.99 1181.56 2200.34 1177.49 2191.94 1155.91 2198.34 1153.42 2206.73 1174.97 2206.72 1174.93 2208.36 1178.97ZM2184.59 1136.58 2177.33 1117.09 2175.06 1110.74 2181.54 1108.43 2183.8 1114.76 2183.78 1114.71 2191.04 1134.18ZM2168.14 1091.31 2166.35 1086.26 2159.2 1065.25 2165.71 1063.04 2172.85 1084.02 2172.83 1083.98 2174.62 1089ZM2152.67 1045.63 2145.46 1023.4 2144.23 1019.41 2150.8 1017.38 2152.02 1021.35 2152.01 1021.3 2159.21 1043.51ZM2138.14 999.707 2135.57 991.385 2130.26 973.311 2136.85 971.373 2142.16 989.424 2142.14 989.378 2144.71 997.677ZM2124.51 953.455 2117.12 926.965 2123.74 925.119 2131.13 951.608ZM2111.83 906.981 2108.17 893.119 2104.97 880.302 2111.64 878.638 2114.84 891.432 2114.82 891.386 2118.48 905.226ZM2099.98 860.291 2099.82 859.655 2093.67 833.478 2100.36 831.904 2106.51 858.059 2106.5 858.013 2106.65 858.627ZM2089.1 813.317 2084.33 791.722 2083.23 786.403 2089.96 785.011 2091.06 790.307 2091.05 790.262 2095.82 811.833ZM2079.05 766.206 2077.21 757.272 2073.72 739.182 2080.47 737.88 2083.95 755.948 2083.94 755.902 2085.79 764.813ZM2069.85 718.876 2065.01 691.807 2071.77 690.595 2076.62 717.665ZM2061.58 671.423 2058.38 652.104 2057.19 644.229 2063.99 643.198 2065.18 651.051 2065.17 651.005 2068.36 670.302ZM2054.1 623.837 2052.98 616.473 2050.23 596.564 2057.04 595.624 2059.79 615.511 2059.78 615.465 2060.89 622.806ZM2047.47 576.08 2044.07 548.79 2050.89 547.941 2054.29 575.23ZM2950.87 1926.8 2933.82 1902.92 2978.33 1928.3 2931.32 1948.68Z" fill="#E97132" fill-rule="nonzero" fill-opacity="1"/><rect x="2152.5" y="1407.5" width="369" height="99.9996" stroke="#E97132" stroke-width="3.4375" stroke-linecap="butt" stroke-linejoin="round" stroke-miterlimit="10" stroke-opacity="1" fill="#FFFFFF" fill-opacity="1"/><text fill="#E97132" fill-opacity="1" font-family="Courier New,Courier New_MSFontService,sans-serif" font-style="normal" font-variant="normal" font-weight="400" font-stretch="normal" font-size="55" text-anchor="start" direction="ltr" writing-mode="lr-tb" unicode-bidi="normal" text-decoration="none" transform="matrix(1 0 0 1 2185.26 1471)">/MTMR/*cp</text></g></g></svg>