<svg width="1558" height="1192" xmlns="http://www.w3.org/2000/svg" xmlns:xlink="http://www.w3.org/1999/xlink" xml:space="preserve" overflow="hidden"><g transform="translate(-1645 -82)"><g><rect x="2563.5" y="237.5" width="636" height="100" stroke="#000000" stroke-width="3.4375" stroke-linecap="butt" stroke-linejoin="round" stroke-miterlimit="10" stroke-opacity="1" fill="#FF0000" fill-opacity="1"/><text fill="#000000" fill-opacity="1" font-family="Arial,Arial_MSFontService,sans-serif" font-style="normal" font-variant="normal" font-weight="400" font-stretch="normal" font-size="55" text-anchor="start" direction="ltr" writing-mode="lr-tb" unicode-bidi="normal" text-decoration="none" transform="matrix(1 0 0 1 2660.17 307)">Proprietary cables</text><rect x="1650.5" y="388.5" width="483" height="100" stroke="#000000" stroke-width="3.4375" stroke-linecap="butt" stroke-linejoin="round" stroke-miterlimit="10" stroke-opacity="1" fill="#EDEDED" fill-opacity="1"/><text fill="#000000" fill-opacity="1" font-family="Arial,Arial_MSFontService,sans-serif" font-style="normal" font-variant="normal" font-weight="400" font-stretch="normal" font-size="55" text-anchor="start" direction="ltr" writing-mode="lr-tb" unicode-bidi="normal" text-decoration="none" transform="matrix(1 0 0 1 1778.6 458)">Left CCU</text><rect x="2267.5" y="388.5" width="483" height="100" stroke="#000000" stroke-width="3.4375" stroke-linecap="butt" stroke-linejoin="round" stroke-miterlimit="10" stroke-opacity="1" fill="#EDEDED" fill-opacity="1"/><text fill="#000000" fill-opacity="1" font-family="Arial,Arial_MSFontService,sans-serif" font-style="normal" font-variant="normal" font-weight="400" font-stretch="normal" font-size="55" text-anchor="start" direction="ltr" writing-mode="lr-tb" unicode-bidi="normal" text-decoration="none" transform="matrix(1 0 0 1 2377.34 458)">Right CCU</text><rect x="2015.5" y="86.5001" width="370" height="100" stroke="#000000" stroke-width="3.4375" stroke-linecap="butt" stroke-linejoin="round" stroke-miterlimit="10" stroke-opacity="1" fill="#EDEDED" fill-opacity="1"/><text fill="#000000" fill-opacity="1" font-family="Arial,Arial_MSFontService,sans-serif" font-style="normal" font-variant="normal" font-weight="400" font-stretch="normal" font-size="55" text-anchor="start" direction="ltr" writing-mode="lr-tb" unicode-bidi="normal" text-decoration="none" transform="matrix(1 0 0 1 2088.85 156)">Cameras</text><path d="M2200.68 186.054 2200.45 190.842 2199.78 195.67 2198.67 200.473 2197.15 205.24 2195.22 209.962 2192.91 214.647 2187.21 223.77 2180.15 232.59 2171.84 241.02 2162.4 248.992 2151.95 256.434 2140.6 263.275 2128.46 269.443 2115.64 274.865 2102.25 279.467 2088.4 283.176 2074.22 285.918 2059.8 287.618 2045.31 288.2 2030.87 288.779 2030.96 288.772 2016.63 290.462 2016.71 290.45 2002.61 293.176 2002.68 293.158 1988.92 296.846 1988.99 296.823 1975.68 301.399 1975.75 301.371 1963.01 306.762 1963.08 306.728 1951.01 312.859 1951.08 312.819 1939.8 319.616 1939.87 319.568 1929.5 326.957 1929.57 326.899 1920.21 334.806 1920.29 334.735 1912.06 343.086 1912.14 342.998 1905.15 351.72 1905.23 351.61 1899.6 360.628 1899.72 360.368 1897.84 366.273 1895.66 365.579 1897.58 359.536 1903.32 350.34 1910.39 341.52 1918.69 333.089 1928.13 325.118 1938.58 317.676 1949.93 310.835 1962.08 304.667 1974.9 299.245 1988.29 294.643 2002.13 290.933 2016.32 288.191 2030.73 286.491 2045.22 285.91 2059.66 285.33 2059.58 285.337 2073.91 283.647 2073.82 283.66 2087.93 280.934 2087.85 280.952 2101.62 277.264 2101.54 277.287 2114.85 272.71 2114.78 272.738 2127.53 267.348 2127.46 267.381 2139.53 261.251 2139.45 261.291 2150.73 254.494 2150.66 254.542 2161.04 247.153 2160.96 247.211 2170.32 239.304 2170.24 239.375 2178.47 231.023 2178.4 231.111 2185.38 222.39 2185.3 222.499 2190.94 213.482 2190.88 213.581 2193.15 208.984 2193.12 209.06 2195.01 204.417 2194.98 204.5 2196.47 199.821 2196.45 199.912 2197.53 195.204 2197.51 195.303 2198.18 190.577 2198.17 190.681 2198.39 185.946ZM1911.21 364.94 1891 388.109 1884.59 358.039Z" fill="#000000" fill-rule="nonzero" fill-opacity="1"/><path d="M0.0540012-1.14456 4.84197-0.91866 9.66988-0.24358 14.4725 0.862461 19.2397 2.38372 23.9621 4.30454 28.6469 6.61754 37.7696 12.3087 46.5894 19.3676 55.02 27.6674 62.9917 37.0943 70.4338 47.5353 77.2749 58.8782 83.4428 71.0109 88.8645 83.8215 93.4669 97.1982 97.1762 111.029 99.9181 125.202 101.618 139.606 102.2 154.081 102.78 168.511 102.773 168.423 104.463 182.741 104.45 182.657 107.176 196.749 107.158 196.67 110.846 210.423 110.823 210.348 115.399 223.649 115.371 223.575 120.762 236.313 120.728 236.24 126.859 248.3 126.819 248.228 133.616 259.497 133.567 259.424 140.957 269.791 140.898 269.716 148.806 279.067 148.735 278.99 157.086 287.212 156.998 287.134 165.719 294.114 165.61 294.036 174.627 299.662 174.367 299.542 180.272 301.415 179.578 303.6 173.537 301.682 164.34 295.945 155.52 288.886 147.09 280.586 139.118 271.159 131.676 260.718 124.835 249.376 118.667 237.243 113.245 224.432 108.643 211.056 104.934 197.225 102.192 183.051 100.492 168.648 99.91 154.173 99.3302 139.742 99.3372 139.831 97.6472 125.513 97.6602 125.596 94.9339 111.504 94.9522 111.583 91.2638 97.8302 91.287 97.9062 86.7104 84.6045 86.7387 84.6783 81.348 71.941 81.3818 72.0136 75.2509 59.9537 75.2911 60.0262 68.4941 48.7564 68.5422 48.8297 61.153 38.463 61.2112 38.5378 53.3039 29.1871 53.375 29.2638 45.0236 21.0419 45.1115 21.12 36.3901 14.1399 36.4996 14.2174 27.4821 8.59197 27.5814 8.64723 22.9847 6.37775 23.0603 6.41171 18.4174 4.52322 18.5008 4.55344 13.8209 3.06005 13.9121 3.08505 9.20441 2.00088 9.30289 2.01907 4.57673 1.35821 4.68141 1.36798-0.0540012 1.14456ZM178.936 288.048 202.109 308.254 172.04 314.669Z" fill="#000000" fill-rule="nonzero" fill-opacity="1" transform="matrix(1.83697e-16 1 1 -1.83697e-16 2200 186)"/><rect x="1650.5" y="690.5" width="483" height="234" stroke="#000000" stroke-width="3.4375" stroke-linecap="butt" stroke-linejoin="round" stroke-miterlimit="10" stroke-opacity="1" fill="#EDEDED" fill-opacity="1"/><text fill="#000000" fill-opacity="1" font-family="Arial,Arial_MSFontService,sans-serif" font-style="normal" font-variant="normal" font-weight="400" font-stretch="normal" font-size="55" text-anchor="start" direction="ltr" writing-mode="lr-tb" unicode-bidi="normal" text-decoration="none" transform="matrix(1 0 0 1 1717.71 760)">Left Converter</text><text fill="#000000" fill-opacity="1" font-family="Arial,Arial_MSFontService,sans-serif" font-style="normal" font-variant="normal" font-weight="400" font-stretch="normal" font-size="55" text-anchor="start" direction="ltr" writing-mode="lr-tb" unicode-bidi="normal" text-decoration="none" transform="matrix(1 0 0 1 1718.65 826)">SDI to VGA </text><text fill="#000000" fill-opacity="1" font-family="Arial,Arial_MSFontService,sans-serif" font-style="italic" font-variant="normal" font-weight="400" font-stretch="normal" font-size="55" text-anchor="start" direction="ltr" writing-mode="lr-tb" unicode-bidi="normal" text-decoration="none" transform="matrix(1 0 0 1 2015.84 826)">or</text><text fill="#000000" fill-opacity="1" font-family="Arial,Arial_MSFontService,sans-serif" font-style="normal" font-variant="normal" font-weight="400" font-stretch="normal" font-size="55" text-anchor="start" direction="ltr" writing-mode="lr-tb" unicode-bidi="normal" text-decoration="none" transform="matrix(1 0 0 1 1698.17 892)">S</text><text fill="#000000" fill-opacity="1" font-family="Arial,Arial_MSFontService,sans-serif" font-style="normal" font-variant="normal" font-weight="400" font-stretch="normal" font-size="55" text-anchor="start" direction="ltr" writing-mode="lr-tb" unicode-bidi="normal" text-decoration="none" transform="matrix(1 0 0 1 1734.83 892)">-</text><text fill="#000000" fill-opacity="1" font-family="Arial,Arial_MSFontService,sans-serif" font-style="normal" font-variant="normal" font-weight="400" font-stretch="normal" font-size="55" text-anchor="start" direction="ltr" writing-mode="lr-tb" unicode-bidi="normal" text-decoration="none" transform="matrix(1 0 0 1 1753.17 892)">Video to VGA</text><rect x="2267.5" y="690.5" width="483" height="234" stroke="#000000" stroke-width="3.4375" stroke-linecap="butt" stroke-linejoin="round" stroke-miterlimit="10" stroke-opacity="1" fill="#EDEDED" fill-opacity="1"/><text fill="#000000" fill-opacity="1" font-family="Arial,Arial_MSFontService,sans-serif" font-style="normal" font-variant="normal" font-weight="400" font-stretch="normal" font-size="55" text-anchor="start" direction="ltr" writing-mode="lr-tb" unicode-bidi="normal" text-decoration="none" transform="matrix(1 0 0 1 2316.47 760)">Right Converter</text><text fill="#000000" fill-opacity="1" font-family="Arial,Arial_MSFontService,sans-serif" font-style="normal" font-variant="normal" font-weight="400" font-stretch="normal" font-size="55" text-anchor="start" direction="ltr" writing-mode="lr-tb" unicode-bidi="normal" text-decoration="none" transform="matrix(1 0 0 1 2335.44 826)">SDI to VGA </text><text fill="#000000" fill-opacity="1" font-family="Arial,Arial_MSFontService,sans-serif" font-style="italic" font-variant="normal" font-weight="400" font-stretch="normal" font-size="55" text-anchor="start" direction="ltr" writing-mode="lr-tb" unicode-bidi="normal" text-decoration="none" transform="matrix(1 0 0 1 2632.62 826)">or</text><text fill="#000000" fill-opacity="1" font-family="Arial,Arial_MSFontService,sans-serif" font-style="normal" font-variant="normal" font-weight="400" font-stretch="normal" font-size="55" text-anchor="start" direction="ltr" writing-mode="lr-tb" unicode-bidi="normal" text-decoration="none" transform="matrix(1 0 0 1 2314.95 892)">S</text><text fill="#000000" fill-opacity="1" font-family="Arial,Arial_MSFontService,sans-serif" font-style="normal" font-variant="normal" font-weight="400" font-stretch="normal" font-size="55" text-anchor="start" direction="ltr" writing-mode="lr-tb" unicode-bidi="normal" text-decoration="none" transform="matrix(1 0 0 1 2351.62 892)">-</text><text fill="#000000" fill-opacity="1" font-family="Arial,Arial_MSFontService,sans-serif" font-style="normal" font-variant="normal" font-weight="400" font-stretch="normal" font-size="55" text-anchor="start" direction="ltr" writing-mode="lr-tb" unicode-bidi="normal" text-decoration="none" transform="matrix(1 0 0 1 2369.95 892)">Video to VGA</text><rect x="2578.5" y="539.5" width="621" height="100" stroke="#000000" stroke-width="3.4375" stroke-linecap="butt" stroke-linejoin="round" stroke-miterlimit="10" stroke-opacity="1" fill="#00B050" fill-opacity="1"/><text fill="#000000" fill-opacity="1" font-family="Arial,Arial_MSFontService,sans-serif" font-style="normal" font-variant="normal" font-weight="400" font-stretch="normal" font-size="55" text-anchor="start" direction="ltr" writing-mode="lr-tb" unicode-bidi="normal" text-decoration="none" transform="matrix(1 0 0 1 2690.68 609)">Standard cables</text><rect x="2267.5" y="1148.5" width="483" height="100" stroke="#000000" stroke-width="3.4375" stroke-linecap="butt" stroke-linejoin="round" stroke-miterlimit="10" stroke-opacity="1" fill="#EDEDED" fill-opacity="1"/><text fill="#000000" fill-opacity="1" font-family="Arial,Arial_MSFontService,sans-serif" font-style="normal" font-variant="normal" font-weight="400" font-stretch="normal" font-size="55" text-anchor="start" direction="ltr" writing-mode="lr-tb" unicode-bidi="normal" text-decoration="none" transform="matrix(1 0 0 1 2345.12 1217)">Right Monitor</text><rect x="1650.5" y="1156.5" width="483" height="100" stroke="#000000" stroke-width="3.4375" stroke-linecap="butt" stroke-linejoin="round" stroke-miterlimit="10" stroke-opacity="1" fill="#EDEDED" fill-opacity="1"/><text fill="#000000" fill-opacity="1" font-family="Arial,Arial_MSFontService,sans-serif" font-style="normal" font-variant="normal" font-weight="400" font-stretch="normal" font-size="55" text-anchor="start" direction="ltr" writing-mode="lr-tb" unicode-bidi="normal" text-decoration="none" transform="matrix(1 0 0 1 1746.66 1226)">Left Monitor</text><rect x="2578.5" y="997.5" width="621" height="100" stroke="#000000" stroke-width="3.4375" stroke-linecap="butt" stroke-linejoin="round" stroke-miterlimit="10" stroke-opacity="1" fill="#00B050" fill-opacity="1"/><text fill="#000000" fill-opacity="1" font-family="Arial,Arial_MSFontService,sans-serif" font-style="normal" font-variant="normal" font-weight="400" font-stretch="normal" font-size="55" text-anchor="start" direction="ltr" writing-mode="lr-tb" unicode-bidi="normal" text-decoration="none" transform="matrix(1 0 0 1 2745.18 1066)">VGA cables</text><path d="M9.56385e-05-1.14583 18.8492-1.14426 37.1064-1.13981 45.8279-1.13663 54.1794-1.13289 62.0867-1.12863 69.476-1.12391 76.2732-1.11877 82.4042-1.11327 87.7952-1.10745 92.372-1.10137 96.0609-1.09509 98.7878-1.08863 100.484-1.08205 101.068-1.07538 101.648-1.06883 101.639-1.0689 103.329-1.06239 106.054-1.056 109.741-1.04975 114.317-1.04371 119.708-1.03792 125.838-1.03244 132.635-1.02732 140.024-1.02262 147.931-1.01837 156.283-1.01463 165.004-1.01146 179.193-1.00851 179.193 1.28315 165.003 1.2802 156.282 1.27703 147.93 1.2733 140.023 1.26905 132.634 1.26434 125.836 1.25922 119.705 1.25374 114.314 1.24796 109.737 1.24191 106.048 1.23566 103.32 1.22926 101.626 1.22274 101.042 1.21613 100.462 1.20951 100.471 1.20958 98.7824 1.20303 96.057 1.19658 92.369 1.19029 87.7927 1.18421 82.4022 1.1784 76.2714 1.1729 69.4745 1.16776 62.0855 1.16303 54.1783 1.15877 45.8271 1.15503 37.1058 1.15186 18.849 1.14741-9.56385e-05 1.14583ZM174.611-13.6133 202.109 0.140387 174.608 13.8867Z" fill="#000000" fill-rule="nonzero" fill-opacity="1" transform="matrix(1.83697e-16 1 1 -1.83697e-16 1891 488)"/><path d="M9.56385e-05-1.14583 18.8492-1.14426 37.1064-1.13981 45.8279-1.13663 54.1794-1.13289 62.0867-1.12863 69.476-1.12391 76.2732-1.11877 82.4042-1.11327 87.7952-1.10745 92.372-1.10137 96.0609-1.09509 98.7878-1.08863 100.484-1.08205 101.068-1.07538 101.648-1.06883 101.639-1.0689 103.329-1.06239 106.054-1.056 109.741-1.04975 114.317-1.04371 119.708-1.03792 125.838-1.03244 132.635-1.02732 140.024-1.02262 147.931-1.01837 156.283-1.01463 165.004-1.01146 179.193-1.00851 179.193 1.28315 165.003 1.2802 156.282 1.27703 147.93 1.2733 140.023 1.26905 132.634 1.26434 125.836 1.25922 119.705 1.25374 114.314 1.24796 109.737 1.24191 106.048 1.23566 103.32 1.22926 101.626 1.22274 101.042 1.21613 100.462 1.20951 100.471 1.20958 98.7824 1.20303 96.057 1.19658 92.369 1.19029 87.7927 1.18421 82.4022 1.1784 76.2714 1.1729 69.4745 1.16776 62.0855 1.16303 54.1783 1.15877 45.8271 1.15503 37.1058 1.15186 18.849 1.14741-9.56385e-05 1.14583ZM174.611-13.6133 202.109 0.140387 174.608 13.8867Z" fill="#000000" fill-rule="nonzero" fill-opacity="1" transform="matrix(1.83697e-16 1 1 -1.83697e-16 2508 488)"/><path d="M1893.15 924 1893.15 945.722 1893.15 966.761 1893.15 976.812 1893.15 986.436 1893.15 995.548 1893.15 1004.06 1893.15 1011.9 1893.15 1018.96 1893.15 1025.17 1893.15 1030.45 1893.15 1034.7 1893.15 1037.84 1893.15 1039.79 1893.15 1040.46 1893.15 1041.12 1893.15 1043.07 1893.15 1046.21 1893.15 1050.46 1893.15 1055.74 1893.15 1061.95 1893.15 1069.02 1893.15 1076.85 1893.15 1085.36 1893.15 1094.48 1893.15 1104.1 1893.15 1114.15 1893.15 1134 1890.85 1134 1890.85 1114.15 1890.85 1104.1 1890.85 1094.48 1890.85 1085.36 1890.85 1076.85 1890.85 1069.02 1890.85 1061.95 1890.85 1055.74 1890.85 1050.46 1890.85 1046.21 1890.85 1043.07 1890.85 1041.12 1890.85 1040.46 1890.85 1039.79 1890.85 1037.84 1890.85 1034.7 1890.85 1030.45 1890.85 1025.17 1890.85 1018.96 1890.85 1011.9 1890.85 1004.06 1890.85 995.548 1890.85 986.436 1890.85 976.812 1890.85 966.761 1890.85 945.722 1890.85 924ZM1905.75 1129.41 1892 1156.91 1878.25 1129.41Z" fill="#000000" fill-rule="nonzero" fill-opacity="1"/><path d="M2509.43 924 2509.42 944.921 2509.41 965.185 2509.41 974.865 2509.4 984.135 2509.39 992.911 2509.38 1001.11 2509.37 1008.66 2509.36 1015.46 2509.35 1021.45 2509.34 1026.53 2509.33 1030.62 2509.31 1033.65 2509.3 1035.53 2509.29 1036.19 2509.27 1036.83 2509.27 1036.81 2509.26 1038.69 2509.25 1041.71 2509.23 1045.8 2509.22 1050.88 2509.21 1056.87 2509.2 1063.67 2509.19 1071.21 2509.18 1079.42 2509.17 1088.19 2509.16 1097.46 2509.16 1107.14 2509.15 1125.41 2506.86 1125.41 2506.87 1107.14 2506.87 1097.46 2506.88 1088.19 2506.89 1079.41 2506.9 1071.21 2506.91 1063.67 2506.92 1056.86 2506.93 1050.88 2506.94 1045.8 2506.96 1041.7 2506.97 1038.67 2506.98 1036.79 2506.99 1036.14 2507.01 1035.5 2507.01 1035.51 2507.02 1033.64 2507.03 1030.61 2507.05 1026.52 2507.06 1021.44 2507.07 1015.46 2507.08 1008.65 2507.09 1001.11 2507.1 992.909 2507.11 984.133 2507.12 974.864 2507.12 965.184 2507.13 944.921 2507.14 924ZM2521.76 1120.83 2508 1148.32 2494.26 1120.82Z" fill="#000000" fill-rule="nonzero" fill-opacity="1"/></g></g></svg>