<svg width="1590" height="1595" xmlns="http://www.w3.org/2000/svg" xmlns:xlink="http://www.w3.org/1999/xlink" xml:space="preserve" overflow="hidden"><g transform="translate(-1613 -82)"><g><rect x="1616.5" y="717.5" width="1158" height="620" stroke="#000000" stroke-width="4.58333" stroke-linecap="butt" stroke-linejoin="miter" stroke-miterlimit="8" stroke-opacity="1" fill="#BB5AB5" fill-opacity="1"/><rect x="2563.5" y="237.5" width="636" height="100" stroke="#000000" stroke-width="3.4375" stroke-linecap="butt" stroke-linejoin="round" stroke-miterlimit="10" stroke-opacity="1" fill="#FF0000" fill-opacity="1"/><text fill="#000000" fill-opacity="1" font-family="Arial,Arial_MSFontService,sans-serif" font-style="normal" font-variant="normal" font-weight="400" font-stretch="normal" font-size="55" text-anchor="start" direction="ltr" writing-mode="lr-tb" unicode-bidi="normal" text-decoration="none" transform="matrix(1 0 0 1 2660.17 307)">Proprietary cables</text><rect x="1650.5" y="388.5" width="483" height="100" stroke="#000000" stroke-width="3.4375" stroke-linecap="butt" stroke-linejoin="round" stroke-miterlimit="10" stroke-opacity="1" fill="#EDEDED" fill-opacity="1"/><text fill="#000000" fill-opacity="1" font-family="Arial,Arial_MSFontService,sans-serif" font-style="normal" font-variant="normal" font-weight="400" font-stretch="normal" font-size="55" text-anchor="start" direction="ltr" writing-mode="lr-tb" unicode-bidi="normal" text-decoration="none" transform="matrix(1 0 0 1 1778.6 458)">Left CCU</text><rect x="2267.5" y="388.5" width="483" height="100" stroke="#000000" stroke-width="3.4375" stroke-linecap="butt" stroke-linejoin="round" stroke-miterlimit="10" stroke-opacity="1" fill="#EDEDED" fill-opacity="1"/><text fill="#000000" fill-opacity="1" font-family="Arial,Arial_MSFontService,sans-serif" font-style="normal" font-variant="normal" font-weight="400" font-stretch="normal" font-size="55" text-anchor="start" direction="ltr" writing-mode="lr-tb" unicode-bidi="normal" text-decoration="none" transform="matrix(1 0 0 1 2377.34 458)">Right CCU</text><rect x="2015.5" y="86.5001" width="370" height="100" stroke="#000000" stroke-width="3.4375" stroke-linecap="butt" stroke-linejoin="round" stroke-miterlimit="10" stroke-opacity="1" fill="#EDEDED" fill-opacity="1"/><text fill="#000000" fill-opacity="1" font-family="Arial,Arial_MSFontService,sans-serif" font-style="normal" font-variant="normal" font-weight="400" font-stretch="normal" font-size="55" text-anchor="start" direction="ltr" writing-mode="lr-tb" unicode-bidi="normal" text-decoration="none" transform="matrix(1 0 0 1 2088.85 156)">Cameras</text><path d="M2200.68 186.054 2200.45 190.842 2199.78 195.67 2198.67 200.473 2197.15 205.24 2195.22 209.962 2192.91 214.647 2187.21 223.77 2180.15 232.59 2171.84 241.02 2162.4 248.992 2151.95 256.434 2140.6 263.275 2128.46 269.443 2115.64 274.865 2102.25 279.467 2088.4 283.176 2074.22 285.918 2059.8 287.618 2045.31 288.2 2030.87 288.779 2030.96 288.772 2016.63 290.462 2016.71 290.45 2002.61 293.176 2002.68 293.158 1988.92 296.846 1988.99 296.823 1975.68 301.399 1975.75 301.371 1963.01 306.762 1963.08 306.728 1951.01 312.859 1951.08 312.819 1939.8 319.616 1939.87 319.568 1929.5 326.957 1929.57 326.899 1920.21 334.806 1920.29 334.735 1912.06 343.086 1912.14 342.998 1905.15 351.72 1905.23 351.61 1899.6 360.628 1899.72 360.368 1897.84 366.273 1895.66 365.579 1897.58 359.536 1903.32 350.34 1910.39 341.52 1918.69 333.089 1928.13 325.118 1938.58 317.676 1949.93 310.835 1962.08 304.667 1974.9 299.245 1988.29 294.643 2002.13 290.933 2016.32 288.191 2030.73 286.491 2045.22 285.91 2059.66 285.33 2059.58 285.337 2073.91 283.647 2073.82 283.66 2087.93 280.934 2087.85 280.952 2101.62 277.264 2101.54 277.287 2114.85 272.71 2114.78 272.738 2127.53 267.348 2127.46 267.381 2139.53 261.251 2139.45 261.291 2150.73 254.494 2150.66 254.542 2161.04 247.153 2160.96 247.211 2170.32 239.304 2170.24 239.375 2178.47 231.023 2178.4 231.111 2185.38 222.39 2185.3 222.499 2190.94 213.482 2190.88 213.581 2193.15 208.984 2193.12 209.06 2195.01 204.417 2194.98 204.5 2196.47 199.821 2196.45 199.912 2197.53 195.204 2197.51 195.303 2198.18 190.577 2198.17 190.681 2198.39 185.946ZM1911.21 364.94 1891 388.109 1884.59 358.039Z" fill="#000000" fill-rule="nonzero" fill-opacity="1"/><path d="M0.0540012-1.14456 4.84197-0.91866 9.66988-0.24358 14.4725 0.862461 19.2397 2.38372 23.9621 4.30454 28.6469 6.61754 37.7696 12.3087 46.5894 19.3676 55.02 27.6674 62.9917 37.0943 70.4338 47.5353 77.2749 58.8782 83.4428 71.0109 88.8645 83.8215 93.4669 97.1982 97.1762 111.029 99.9181 125.202 101.618 139.606 102.2 154.081 102.78 168.511 102.773 168.423 104.463 182.741 104.45 182.657 107.176 196.749 107.158 196.67 110.846 210.423 110.823 210.348 115.399 223.649 115.371 223.575 120.762 236.313 120.728 236.24 126.859 248.3 126.819 248.228 133.616 259.497 133.567 259.424 140.957 269.791 140.898 269.716 148.806 279.067 148.735 278.99 157.086 287.212 156.998 287.134 165.719 294.114 165.61 294.036 174.627 299.662 174.367 299.542 180.272 301.415 179.578 303.6 173.537 301.682 164.34 295.945 155.52 288.886 147.09 280.586 139.118 271.159 131.676 260.718 124.835 249.376 118.667 237.243 113.245 224.432 108.643 211.056 104.934 197.225 102.192 183.051 100.492 168.648 99.91 154.173 99.3302 139.742 99.3372 139.831 97.6472 125.513 97.6602 125.596 94.9339 111.504 94.9522 111.583 91.2638 97.8302 91.287 97.9062 86.7104 84.6045 86.7387 84.6783 81.348 71.941 81.3818 72.0136 75.2509 59.9537 75.2911 60.0262 68.4941 48.7564 68.5422 48.8297 61.153 38.463 61.2112 38.5378 53.3039 29.1871 53.375 29.2638 45.0236 21.0419 45.1115 21.12 36.3901 14.1399 36.4996 14.2174 27.4821 8.59197 27.5814 8.64723 22.9847 6.37775 23.0603 6.41171 18.4174 4.52322 18.5008 4.55344 13.8209 3.06005 13.9121 3.08505 9.20441 2.00088 9.30289 2.01907 4.57673 1.35821 4.68141 1.36798-0.0540012 1.14456ZM178.936 288.048 202.109 308.254 172.04 314.669Z" fill="#000000" fill-rule="nonzero" fill-opacity="1" transform="matrix(1.83697e-16 1 1 -1.83697e-16 2200 186)"/><rect x="1650.5" y="690.5" width="483" height="234" stroke="#000000" stroke-width="3.4375" stroke-linecap="butt" stroke-linejoin="round" stroke-miterlimit="10" stroke-opacity="1" fill="#EDEDED" fill-opacity="1"/><text fill="#000000" fill-opacity="1" font-family="Arial,Arial_MSFontService,sans-serif" font-style="normal" font-variant="normal" font-weight="400" font-stretch="normal" font-size="55" text-anchor="start" direction="ltr" writing-mode="lr-tb" unicode-bidi="normal" text-decoration="none" transform="matrix(1 0 0 1 1845.78 760)">Left</text><text fill="#000000" fill-opacity="1" font-family="Arial,Arial_MSFontService,sans-serif" font-style="normal" font-variant="normal" font-weight="400" font-stretch="normal" font-size="55" text-anchor="start" direction="ltr" writing-mode="lr-tb" unicode-bidi="normal" text-decoration="none" transform="matrix(1 0 0 1 1703.98 826)">Frame Grabber</text><text fill="#000000" fill-opacity="1" font-family="Arial,Arial_MSFontService,sans-serif" font-style="normal" font-variant="normal" font-weight="400" font-stretch="normal" font-size="55" text-anchor="start" direction="ltr" writing-mode="lr-tb" unicode-bidi="normal" text-decoration="none" transform="matrix(1 0 0 1 1709.06 892)">SDI </text><text fill="#000000" fill-opacity="1" font-family="Arial,Arial_MSFontService,sans-serif" font-style="italic" font-variant="normal" font-weight="400" font-stretch="normal" font-size="55" text-anchor="start" direction="ltr" writing-mode="lr-tb" unicode-bidi="normal" text-decoration="none" transform="matrix(1 0 0 1 1816.2 892)">or</text><text fill="#000000" fill-opacity="1" font-family="Arial,Arial_MSFontService,sans-serif" font-style="normal" font-variant="normal" font-weight="400" font-stretch="normal" font-size="55" text-anchor="start" direction="ltr" writing-mode="lr-tb" unicode-bidi="normal" text-decoration="none" transform="matrix(1 0 0 1 1880.37 892)">S</text><text fill="#000000" fill-opacity="1" font-family="Arial,Arial_MSFontService,sans-serif" font-style="normal" font-variant="normal" font-weight="400" font-stretch="normal" font-size="55" text-anchor="start" direction="ltr" writing-mode="lr-tb" unicode-bidi="normal" text-decoration="none" transform="matrix(1 0 0 1 1917.03 892)">-</text><text fill="#000000" fill-opacity="1" font-family="Arial,Arial_MSFontService,sans-serif" font-style="normal" font-variant="normal" font-weight="400" font-stretch="normal" font-size="55" text-anchor="start" direction="ltr" writing-mode="lr-tb" unicode-bidi="normal" text-decoration="none" transform="matrix(1 0 0 1 1935.37 892)">Video </text><rect x="2578.5" y="539.5" width="621" height="100" stroke="#000000" stroke-width="3.4375" stroke-linecap="butt" stroke-linejoin="round" stroke-miterlimit="10" stroke-opacity="1" fill="#00B050" fill-opacity="1"/><text fill="#000000" fill-opacity="1" font-family="Arial,Arial_MSFontService,sans-serif" font-style="normal" font-variant="normal" font-weight="400" font-stretch="normal" font-size="55" text-anchor="start" direction="ltr" writing-mode="lr-tb" unicode-bidi="normal" text-decoration="none" transform="matrix(1 0 0 1 2690.68 609)">Standard cables</text><rect x="2267.5" y="1005.5" width="483" height="100" stroke="#000000" stroke-width="3.4375" stroke-linecap="butt" stroke-linejoin="round" stroke-miterlimit="10" stroke-opacity="1" fill="#EDEDED" fill-opacity="1"/><text fill="#000000" fill-opacity="1" font-family="Arial,Arial_MSFontService,sans-serif" font-style="normal" font-variant="normal" font-weight="400" font-stretch="normal" font-size="55" text-anchor="start" direction="ltr" writing-mode="lr-tb" unicode-bidi="normal" text-decoration="none" transform="matrix(1 0 0 1 2372.62 1074)">Processing</text><rect x="1650.5" y="1005.5" width="483" height="100" stroke="#000000" stroke-width="3.4375" stroke-linecap="butt" stroke-linejoin="round" stroke-miterlimit="10" stroke-opacity="1" fill="#EDEDED" fill-opacity="1"/><text fill="#000000" fill-opacity="1" font-family="Arial,Arial_MSFontService,sans-serif" font-style="normal" font-variant="normal" font-weight="400" font-stretch="normal" font-size="55" text-anchor="start" direction="ltr" writing-mode="lr-tb" unicode-bidi="normal" text-decoration="none" transform="matrix(1 0 0 1 1756.11 1074)">Processing</text><path d="M9.56385e-05-1.14583 18.8492-1.14426 37.1064-1.13981 45.8279-1.13663 54.1794-1.13289 62.0867-1.12863 69.476-1.12391 76.2732-1.11877 82.4042-1.11327 87.7952-1.10745 92.372-1.10137 96.0609-1.09509 98.7878-1.08863 100.484-1.08205 101.068-1.07538 101.648-1.06883 101.639-1.0689 103.329-1.06239 106.054-1.056 109.741-1.04975 114.317-1.04371 119.708-1.03792 125.838-1.03244 132.635-1.02732 140.024-1.02262 147.931-1.01837 156.283-1.01463 165.004-1.01146 179.193-1.00851 179.193 1.28315 165.003 1.2802 156.282 1.27703 147.93 1.2733 140.023 1.26905 132.634 1.26434 125.836 1.25922 119.705 1.25374 114.314 1.24796 109.737 1.24191 106.048 1.23566 103.32 1.22926 101.626 1.22274 101.042 1.21613 100.462 1.20951 100.471 1.20958 98.7824 1.20303 96.057 1.19658 92.369 1.19029 87.7927 1.18421 82.4022 1.1784 76.2714 1.1729 69.4745 1.16776 62.0855 1.16303 54.1783 1.15877 45.8271 1.15503 37.1058 1.15186 18.849 1.14741-9.56385e-05 1.14583ZM174.611-13.6133 202.109 0.140387 174.608 13.8867Z" fill="#000000" fill-rule="nonzero" fill-opacity="1" transform="matrix(1.83697e-16 1 1 -1.83697e-16 1891 488)"/><path d="M9.56391e-05-1.14583 18.8491-1.14426 37.1062-1.13981 45.8277-1.13663 54.1791-1.13289 62.0864-1.12863 69.4757-1.12391 76.2728-1.11877 82.4039-1.11327 87.7948-1.10745 92.3717-1.10137 96.0605-1.09509 98.7875-1.08863 100.484-1.08205 101.068-1.07538 101.647-1.06883 101.639-1.0689 103.329-1.06239 106.053-1.056 109.741-1.04975 114.317-1.04371 119.707-1.03792 125.838-1.03244 132.635-1.02733 140.024-1.02262 147.931-1.01837 156.282-1.01463 165.003-1.01146 179.192-1.00851 179.192 1.28316 165.003 1.2802 156.281 1.27703 147.93 1.2733 140.022 1.26905 132.633 1.26434 125.836 1.25922 119.705 1.25374 114.314 1.24796 109.737 1.24191 106.048 1.23566 103.32 1.22926 101.626 1.22274 101.041 1.21613 100.462 1.20951 100.47 1.20958 98.7821 1.20303 96.0566 1.19658 92.3686 1.19029 87.7923 1.18421 82.4018 1.1784 76.2711 1.1729 69.4742 1.16776 62.0852 1.16303 54.1781 1.15877 45.8269 1.15503 37.1056 1.15186 18.8489 1.14741-9.56391e-05 1.14583ZM174.611-13.6133 202.109 0.140387 174.607 13.8867Z" fill="#000000" fill-rule="nonzero" fill-opacity="1" transform="matrix(1.83697e-16 1 1 -1.83697e-16 2508 488)"/><path d="M1893.15 924 1893.15 931.572 1893.15 938.906 1893.15 945.764 1893.15 951.909 1893.15 957.102 1893.15 961.106 1893.15 962.588 1893.15 963.683 1893.15 964.362 1893.15 964.595 1893.15 964.828 1893.15 965.507 1893.15 966.602 1893.15 968.083 1893.15 972.087 1893.15 977.281 1893.15 982.273 1890.85 982.273 1890.85 977.281 1890.85 972.087 1890.85 968.083 1890.85 966.602 1890.85 965.507 1890.85 964.828 1890.85 964.594 1890.85 964.362 1890.85 963.683 1890.85 962.588 1890.85 961.106 1890.85 957.102 1890.85 951.909 1890.85 945.764 1890.85 938.906 1890.85 931.572 1890.85 924ZM1905.75 977.69 1892 1005.19 1878.25 977.69Z" fill="#000000" fill-rule="nonzero" fill-opacity="1"/><path d="M2511.73 926.008 2511.68 933.587 2511.53 940.937 2511.31 947.811 2511.01 953.975 2510.66 959.196 2510.27 963.241 2510.06 964.775 2509.83 965.964 2509.52 966.951 2509.13 967.372 2508.92 967.605 2509.17 967.172 2508.96 967.85 2508.99 967.723 2508.78 968.818 2508.79 968.759 2508.59 970.241 2508.59 970.195 2508.2 974.199 2508.21 974.165 2507.86 979.358 2507.86 979.313 2507.73 984.313 2505.43 984.251 2505.57 979.228 2505.92 973.995 2506.31 969.951 2506.52 968.417 2506.75 967.228 2507.06 966.241 2507.45 965.819 2507.66 965.586 2507.41 966.02 2507.63 965.341 2507.59 965.469 2507.8 964.373 2507.79 964.432 2508 962.95 2507.99 962.997 2508.38 958.993 2508.38 959.027 2508.72 953.833 2508.72 953.855 2509.02 947.71 2509.02 947.727 2509.24 940.869 2509.24 940.884 2509.39 933.549 2509.39 933.564 2509.44 925.992ZM2520.44 980.048 2506 1007.19 2492.95 979.352Z" fill="#000000" fill-rule="nonzero" fill-opacity="1"/><rect x="2267.5" y="690.5" width="483" height="234" stroke="#000000" stroke-width="3.4375" stroke-linecap="butt" stroke-linejoin="round" stroke-miterlimit="10" stroke-opacity="1" fill="#EDEDED" fill-opacity="1"/><text fill="#000000" fill-opacity="1" font-family="Arial,Arial_MSFontService,sans-serif" font-style="normal" font-variant="normal" font-weight="400" font-stretch="normal" font-size="55" text-anchor="start" direction="ltr" writing-mode="lr-tb" unicode-bidi="normal" text-decoration="none" transform="matrix(1 0 0 1 2444.23 760)">Right</text><text fill="#000000" fill-opacity="1" font-family="Arial,Arial_MSFontService,sans-serif" font-style="normal" font-variant="normal" font-weight="400" font-stretch="normal" font-size="55" text-anchor="start" direction="ltr" writing-mode="lr-tb" unicode-bidi="normal" text-decoration="none" transform="matrix(1 0 0 1 2320.48 826)">Frame Grabber</text><text fill="#000000" fill-opacity="1" font-family="Arial,Arial_MSFontService,sans-serif" font-style="normal" font-variant="normal" font-weight="400" font-stretch="normal" font-size="55" text-anchor="start" direction="ltr" writing-mode="lr-tb" unicode-bidi="normal" text-decoration="none" transform="matrix(1 0 0 1 2325.57 892)">SDI </text><text fill="#000000" fill-opacity="1" font-family="Arial,Arial_MSFontService,sans-serif" font-style="italic" font-variant="normal" font-weight="400" font-stretch="normal" font-size="55" text-anchor="start" direction="ltr" writing-mode="lr-tb" unicode-bidi="normal" text-decoration="none" transform="matrix(1 0 0 1 2432.71 892)">or</text><text fill="#000000" fill-opacity="1" font-family="Arial,Arial_MSFontService,sans-serif" font-style="normal" font-variant="normal" font-weight="400" font-stretch="normal" font-size="55" text-anchor="start" direction="ltr" writing-mode="lr-tb" unicode-bidi="normal" text-decoration="none" transform="matrix(1 0 0 1 2496.87 892)">S</text><text fill="#000000" fill-opacity="1" font-family="Arial,Arial_MSFontService,sans-serif" font-style="normal" font-variant="normal" font-weight="400" font-stretch="normal" font-size="55" text-anchor="start" direction="ltr" writing-mode="lr-tb" unicode-bidi="normal" text-decoration="none" transform="matrix(1 0 0 1 2533.54 892)">-</text><text fill="#000000" fill-opacity="1" font-family="Arial,Arial_MSFontService,sans-serif" font-style="normal" font-variant="normal" font-weight="400" font-stretch="normal" font-size="55" text-anchor="start" direction="ltr" writing-mode="lr-tb" unicode-bidi="normal" text-decoration="none" transform="matrix(1 0 0 1 2551.87 892)">Video </text><rect x="1650.5" y="1175.5" width="483" height="167" stroke="#000000" stroke-width="3.4375" stroke-linecap="butt" stroke-linejoin="round" stroke-miterlimit="10" stroke-opacity="1" fill="#EDEDED" fill-opacity="1"/><text fill="#000000" fill-opacity="1" font-family="Arial,Arial_MSFontService,sans-serif" font-style="normal" font-variant="normal" font-weight="400" font-stretch="normal" font-size="55" text-anchor="start" direction="ltr" writing-mode="lr-tb" unicode-bidi="normal" text-decoration="none" transform="matrix(1 0 0 1 1748.11 1244)">Left Render</text><text fill="#000000" fill-opacity="1" font-family="Arial,Arial_MSFontService,sans-serif" font-style="normal" font-variant="normal" font-weight="400" font-stretch="normal" font-size="55" text-anchor="start" direction="ltr" writing-mode="lr-tb" unicode-bidi="normal" text-decoration="none" transform="matrix(1 0 0 1 1728.33 1310)">Graphic Card</text><rect x="2267.5" y="1175.5" width="483" height="167" stroke="#000000" stroke-width="3.4375" stroke-linecap="butt" stroke-linejoin="round" stroke-miterlimit="10" stroke-opacity="1" fill="#EDEDED" fill-opacity="1"/><text fill="#000000" fill-opacity="1" font-family="Arial,Arial_MSFontService,sans-serif" font-style="normal" font-variant="normal" font-weight="400" font-stretch="normal" font-size="55" text-anchor="start" direction="ltr" writing-mode="lr-tb" unicode-bidi="normal" text-decoration="none" transform="matrix(1 0 0 1 2346.84 1244)">Right Render</text><text fill="#000000" fill-opacity="1" font-family="Arial,Arial_MSFontService,sans-serif" font-style="normal" font-variant="normal" font-weight="400" font-stretch="normal" font-size="55" text-anchor="start" direction="ltr" writing-mode="lr-tb" unicode-bidi="normal" text-decoration="none" transform="matrix(1 0 0 1 2345.12 1310)">Graphic Card</text><path d="M1892.43 1105 1892.42 1111.61 1892.41 1118.02 1892.4 1124.01 1892.38 1129.38 1892.36 1133.91 1892.34 1137.41 1892.31 1139.67 1892.3 1140.3 1892.28 1140.52 1892.27 1140.73 1892.27 1140.68 1892.26 1141.27 1892.26 1141.26 1892.23 1143.51 1892.23 1143.5 1892.21 1147 1892.21 1147 1892.19 1152.99 1889.9 1152.98 1889.92 1146.99 1889.94 1143.49 1889.97 1141.23 1889.98 1140.6 1890 1140.38 1890.01 1140.17 1890.01 1140.22 1890.02 1139.63 1890.02 1139.64 1890.05 1137.39 1890.05 1137.4 1890.07 1133.9 1890.09 1129.37 1890.11 1124 1890.12 1118.02 1890.13 1111.61 1890.13 1105ZM1904.81 1148.43 1891 1175.9 1877.31 1148.37Z" fill="#000000" fill-rule="nonzero" fill-opacity="1"/><path d="M2511.73 1107.01 2511.68 1113.57 2511.53 1119.93 2511.3 1125.88 2511.01 1131.22 2510.66 1135.74 2510.27 1139.26 2509.83 1141.63 2509.49 1142.56 2509.08 1142.95 2508.86 1143.15 2509.15 1142.71 2508.94 1143.29 2508.99 1143.11 2508.58 1145.34 2508.59 1145.26 2508.2 1148.72 2508.21 1148.64 2507.96 1154.38 2505.67 1154.27 2505.92 1148.51 2506.32 1144.96 2506.75 1142.6 2507.09 1141.67 2507.51 1141.28 2507.72 1141.08 2507.43 1141.52 2507.64 1140.93 2507.59 1141.12 2508.01 1138.89 2507.99 1138.97 2508.38 1135.51 2508.38 1135.54 2508.72 1131.05 2508.72 1131.08 2509.02 1125.76 2509.02 1125.78 2509.24 1119.85 2509.24 1119.87 2509.39 1113.52 2509.39 1113.54 2509.44 1106.99ZM2520.72 1150.23 2506 1177.23 2493.23 1149.26Z" fill="#000000" fill-rule="nonzero" fill-opacity="1"/><text fill="#000000" fill-opacity="1" font-family="Arial,Arial_MSFontService,sans-serif" font-style="normal" font-variant="normal" font-weight="400" font-stretch="normal" font-size="55" text-anchor="start" direction="ltr" writing-mode="lr-tb" unicode-bidi="normal" text-decoration="none" transform="matrix(1 0 0 1 2161.9 1054)">PC</text><rect x="2578.5" y="1403.5" width="621" height="100" stroke="#000000" stroke-width="3.4375" stroke-linecap="butt" stroke-linejoin="round" stroke-miterlimit="10" stroke-opacity="1" fill="#00B050" fill-opacity="1"/><text fill="#000000" fill-opacity="1" font-family="Arial,Arial_MSFontService,sans-serif" font-style="normal" font-variant="normal" font-weight="400" font-stretch="normal" font-size="55" text-anchor="start" direction="ltr" writing-mode="lr-tb" unicode-bidi="normal" text-decoration="none" transform="matrix(1 0 0 1 2745.18 1473)">VGA cables</text><path d="M0.000204385-1.14583 17.7195-1.14267 34.8826-1.13374 43.0815-1.12737 50.9325-1.11987 58.366-1.11135 65.3125-1.10189 71.7024-1.09162 77.4661-1.08063 82.5342-1.06903 86.8371-1.05691 90.3053-1.04439 92.8715-1.03156 94.4712-1.01845 95.0253-1.00511 95.5704-0.991938 95.5521-0.992234 97.1408-0.97917 97.1372-0.979194 99.7-0.966344 103.166-0.953814 107.467-0.941697 112.534-0.930098 118.297-0.919118 124.686-0.908861 131.632-0.899428 139.065-0.890922 146.916-0.883445 155.114-0.877098 167.079-0.871904 167.078 1.41976 155.112 1.41457 146.913 1.40822 139.062 1.40074 131.629 1.39224 124.682 1.3828 118.293 1.37254 112.529 1.36156 107.461 1.34996 103.157 1.33784 99.6885 1.32529 97.1238 1.31243 95.5242 1.29928 94.9701 1.28589 94.4251 1.27277 94.4433 1.27307 92.8546 1.26005 92.8582 1.26007 90.297 1.24726 86.8306 1.23474 82.529 1.22263 77.4618 1.21103 71.6987 1.20004 65.3094 1.18977 58.3634 1.18032 50.9303 1.17179 43.0797 1.16429 34.8814 1.15792 17.7191 1.14899-0.000204385 1.14583ZM162.499-13.4774 189.995 0.280774 162.491 14.0226Z" fill="#000000" fill-rule="nonzero" fill-opacity="1" transform="matrix(1.83697e-16 1 1 -1.83697e-16 1891 1364)"/><path d="M0.000182615-1.14583 19.8363-1.14267 39.0496-1.13374 48.2279-1.12736 57.0167-1.11985 65.3382-1.11132 73.1145-1.10185 80.2677-1.09156 86.7199-1.08054 92.3933-1.06891 97.2101-1.05676 101.092-1.0442 103.963-1.03133 105.753-1.01817 106.371-1.00482 106.981-0.991706 106.965-0.99194 108.743-0.978921 111.609-0.96612 115.489-0.953607 120.305-0.941497 125.977-0.929896 132.429-0.918908 139.581-0.908636 147.357-0.899184 155.678-0.890656 164.467-0.883156 173.644-0.876788 189.776-0.8703 189.776 1.42137 173.643 1.41488 164.465 1.40851 155.676 1.40101 147.354 1.39248 139.578 1.38303 132.425 1.37276 125.972 1.36177 120.299 1.35016 115.482 1.33805 111.599 1.32552 108.727 1.31268 106.94 1.29961 106.322 1.28631 105.711 1.27314 105.728 1.27337 103.953 1.26032 101.085 1.24745 97.2043 1.2349 92.3886 1.22275 86.716 1.21112 80.2644 1.20011 73.1117 1.18982 65.3359 1.18035 57.0148 1.17181 48.2263 1.1643 39.0485 1.15793 19.8359 1.14899-0.000182615 1.14583ZM185.196-13.4756 212.693 0.281135 185.189 14.0244Z" fill="#000000" fill-rule="nonzero" fill-opacity="1" transform="matrix(1.83697e-16 1 1 -1.83697e-16 2508 1342)"/><rect x="2264.5" y="1557.5" width="483" height="100" stroke="#000000" stroke-width="3.4375" stroke-linecap="butt" stroke-linejoin="round" stroke-miterlimit="10" stroke-opacity="1" fill="#EDEDED" fill-opacity="1"/><text fill="#000000" fill-opacity="1" font-family="Arial,Arial_MSFontService,sans-serif" font-style="normal" font-variant="normal" font-weight="400" font-stretch="normal" font-size="55" text-anchor="start" direction="ltr" writing-mode="lr-tb" unicode-bidi="normal" text-decoration="none" transform="matrix(1 0 0 1 2342.83 1627)">Right Monitor</text><rect x="1653.5" y="1555.5" width="483" height="100" stroke="#000000" stroke-width="3.4375" stroke-linecap="butt" stroke-linejoin="round" stroke-miterlimit="10" stroke-opacity="1" fill="#EDEDED" fill-opacity="1"/><text fill="#000000" fill-opacity="1" font-family="Arial,Arial_MSFontService,sans-serif" font-style="normal" font-variant="normal" font-weight="400" font-stretch="normal" font-size="55" text-anchor="start" direction="ltr" writing-mode="lr-tb" unicode-bidi="normal" text-decoration="none" transform="matrix(1 0 0 1 1749.23 1625)">Left Monitor</text></g></g></svg>