<svg width="3337" height="1999" xmlns="http://www.w3.org/2000/svg" xmlns:xlink="http://www.w3.org/1999/xlink" xml:space="preserve" overflow="hidden"><g transform="translate(-476 -242)"><g><path d="M870.5 430.899C870.5 413.006 885.006 398.5 902.899 398.5L1624.1 398.5C1641.99 398.5 1656.5 413.006 1656.5 430.899L1656.5 863.101C1656.5 880.994 1641.99 895.5 1624.1 895.5L902.899 895.5C885.006 895.5 870.5 880.994 870.5 863.101Z" stroke="#042433" stroke-width="6.875" stroke-linecap="butt" stroke-linejoin="miter" stroke-miterlimit="8" stroke-opacity="1" fill="#FDE49F" fill-rule="evenodd" fill-opacity="1"/><rect x="905.5" y="753.5" width="339" height="123" stroke="#042433" stroke-width="6.875" stroke-linecap="butt" stroke-linejoin="miter" stroke-miterlimit="8" stroke-opacity="1" fill="#FDD466" fill-opacity="1"/><text fill="#000000" fill-opacity="1" font-family="Arial,Arial_MSFontService,sans-serif" font-style="normal" font-variant="normal" font-weight="400" font-stretch="normal" font-size="64" text-anchor="start" direction="ltr" writing-mode="lr-tb" unicode-bidi="normal" text-decoration="none" transform="matrix(1 0 0 1 1010.43 838)">QLA</text><path d="M484.5 620.668C484.5 592.409 507.408 569.5 535.668 569.5L772.332 569.5C800.592 569.5 823.5 592.409 823.5 620.668L823.5 825.332C823.5 853.591 800.592 876.5 772.332 876.5L535.668 876.5C507.408 876.5 484.5 853.591 484.5 825.332Z" stroke="#042433" stroke-width="6.875" stroke-linecap="butt" stroke-linejoin="miter" stroke-miterlimit="8" stroke-opacity="1" fill="#A6CAEC" fill-rule="evenodd" fill-opacity="1"/><text fill="#000000" fill-opacity="1" font-family="Arial,Arial_MSFontService,sans-serif" font-style="normal" font-variant="normal" font-weight="400" font-stretch="normal" font-size="83" text-anchor="start" direction="ltr" writing-mode="lr-tb" unicode-bidi="normal" text-decoration="none" transform="matrix(1 0 0 1 596.254 753)">PC</text><rect x="1279.5" y="753.5" width="339" height="123" stroke="#042433" stroke-width="6.875" stroke-linecap="butt" stroke-linejoin="miter" stroke-miterlimit="8" stroke-opacity="1" fill="#FDD466" fill-opacity="1"/><text fill="#000000" fill-opacity="1" font-family="Arial,Arial_MSFontService,sans-serif" font-style="normal" font-variant="normal" font-weight="400" font-stretch="normal" font-size="64" text-anchor="start" direction="ltr" writing-mode="lr-tb" unicode-bidi="normal" text-decoration="none" transform="matrix(1 0 0 1 1384.28 838)">QLA</text><path d="M2536.5 565.512C2536.5 552.803 2546.8 542.5 2559.51 542.5L3298.49 542.5C3311.2 542.5 3321.5 552.803 3321.5 565.512L3321.5 872.488C3321.5 885.197 3311.2 895.5 3298.49 895.5L2559.51 895.5C2546.8 895.5 2536.5 885.197 2536.5 872.488Z" stroke="#042433" stroke-width="6.875" stroke-linecap="butt" stroke-linejoin="miter" stroke-miterlimit="8" stroke-opacity="1" fill="#FDE49F" fill-rule="evenodd" fill-opacity="1"/><rect x="2571.5" y="753.5" width="339" height="123" stroke="#042433" stroke-width="6.875" stroke-linecap="butt" stroke-linejoin="miter" stroke-miterlimit="8" stroke-opacity="1" fill="#FDD466" fill-opacity="1"/><text fill="#000000" fill-opacity="1" font-family="Arial,Arial_MSFontService,sans-serif" font-style="normal" font-variant="normal" font-weight="400" font-stretch="normal" font-size="64" text-anchor="start" direction="ltr" writing-mode="lr-tb" unicode-bidi="normal" text-decoration="none" transform="matrix(1 0 0 1 2676.04 838)">QLA</text><rect x="2945.5" y="753.5" width="339" height="123" stroke="#042433" stroke-width="6.875" stroke-linecap="butt" stroke-linejoin="miter" stroke-miterlimit="8" stroke-opacity="1" fill="#FDD466" fill-opacity="1"/><text fill="#000000" fill-opacity="1" font-family="Arial,Arial_MSFontService,sans-serif" font-style="normal" font-variant="normal" font-weight="400" font-stretch="normal" font-size="64" text-anchor="start" direction="ltr" writing-mode="lr-tb" unicode-bidi="normal" text-decoration="none" transform="matrix(1 0 0 1 3049.89 838)">QLA</text><path d="M3366.5 565.512C3366.5 552.803 3376.8 542.5 3389.51 542.5L3757.49 542.5C3770.2 542.5 3780.5 552.803 3780.5 565.512L3780.5 872.488C3780.5 885.197 3770.2 895.5 3757.49 895.5L3389.51 895.5C3376.8 895.5 3366.5 885.197 3366.5 872.488Z" stroke="#042433" stroke-width="6.875" stroke-linecap="butt" stroke-linejoin="miter" stroke-miterlimit="8" stroke-opacity="1" fill="#FDE49F" fill-rule="evenodd" fill-opacity="1"/><rect x="3404.5" y="753.5" width="338" height="123" stroke="#042433" stroke-width="6.875" stroke-linecap="butt" stroke-linejoin="miter" stroke-miterlimit="8" stroke-opacity="1" fill="#FDD466" fill-opacity="1"/><text fill="#000000" fill-opacity="1" font-family="Arial,Arial_MSFontService,sans-serif" font-style="normal" font-variant="normal" font-weight="400" font-stretch="normal" font-size="64" text-anchor="start" direction="ltr" writing-mode="lr-tb" unicode-bidi="normal" text-decoration="none" transform="matrix(1 0 0 1 3487.35 838)">dRAC</text><path d="M1705.5 430.9C1705.5 413.006 1720.01 398.5 1737.9 398.5L2458.1 398.5C2475.99 398.5 2490.5 413.006 2490.5 430.9L2490.5 863.112C2490.5 881.006 2475.99 895.512 2458.1 895.512L1737.9 895.512C1720.01 895.512 1705.5 881.006 1705.5 863.112Z" stroke="#042433" stroke-width="6.875" stroke-linecap="butt" stroke-linejoin="miter" stroke-miterlimit="8" stroke-opacity="1" fill="#FDE49F" fill-rule="evenodd" fill-opacity="1"/><rect x="1740.5" y="753.5" width="339" height="123" stroke="#042433" stroke-width="6.875" stroke-linecap="butt" stroke-linejoin="miter" stroke-miterlimit="8" stroke-opacity="1" fill="#FDD466" fill-opacity="1"/><text fill="#000000" fill-opacity="1" font-family="Arial,Arial_MSFontService,sans-serif" font-style="normal" font-variant="normal" font-weight="400" font-stretch="normal" font-size="64" text-anchor="start" direction="ltr" writing-mode="lr-tb" unicode-bidi="normal" text-decoration="none" transform="matrix(1 0 0 1 1844.97 838)">QLA</text><rect x="2114.5" y="753.5" width="338" height="123" stroke="#042433" stroke-width="6.875" stroke-linecap="butt" stroke-linejoin="miter" stroke-miterlimit="8" stroke-opacity="1" fill="#FDD466" fill-opacity="1"/><text fill="#000000" fill-opacity="1" font-family="Arial,Arial_MSFontService,sans-serif" font-style="normal" font-variant="normal" font-weight="400" font-stretch="normal" font-size="64" text-anchor="start" direction="ltr" writing-mode="lr-tb" unicode-bidi="normal" text-decoration="none" transform="matrix(1 0 0 1 2218.82 838)">QLA</text><rect x="905.5" y="568.5" width="339" height="184" stroke="#042433" stroke-width="6.875" stroke-linecap="butt" stroke-linejoin="miter" stroke-miterlimit="8" stroke-opacity="1" fill="#FDD466" fill-opacity="1"/><text fill="#000000" fill-opacity="1" font-family="Arial,Arial_MSFontService,sans-serif" font-style="normal" font-variant="normal" font-weight="400" font-stretch="normal" font-size="64" text-anchor="start" direction="ltr" writing-mode="lr-tb" unicode-bidi="normal" text-decoration="none" transform="matrix(1 0 0 1 987.224 645)">FPGA</text><text fill="#000000" fill-opacity="1" font-family="Arial,Arial_MSFontService,sans-serif" font-style="normal" font-variant="normal" font-weight="400" font-stretch="normal" font-size="64" text-anchor="start" direction="ltr" writing-mode="lr-tb" unicode-bidi="normal" text-decoration="none" transform="matrix(1 0 0 1 1035.35 722)">V1</text><path d="M0 0 0.000360892 94.6798" stroke="#000000" stroke-width="44.6875" stroke-linecap="round" stroke-linejoin="miter" stroke-miterlimit="8" stroke-opacity="1" fill="none" fill-rule="evenodd" transform="matrix(1 0 0 -1 1188.5 568.18)"/><rect x="1279.5" y="569.5" width="339" height="184" stroke="#042433" stroke-width="6.875" stroke-linecap="butt" stroke-linejoin="miter" stroke-miterlimit="8" stroke-opacity="1" fill="#FDD466" fill-opacity="1"/><text fill="#000000" fill-opacity="1" font-family="Arial,Arial_MSFontService,sans-serif" font-style="normal" font-variant="normal" font-weight="400" font-stretch="normal" font-size="64" text-anchor="start" direction="ltr" writing-mode="lr-tb" unicode-bidi="normal" text-decoration="none" transform="matrix(1 0 0 1 1361.08 646)">FPGA</text><text fill="#000000" fill-opacity="1" font-family="Arial,Arial_MSFontService,sans-serif" font-style="normal" font-variant="normal" font-weight="400" font-stretch="normal" font-size="64" text-anchor="start" direction="ltr" writing-mode="lr-tb" unicode-bidi="normal" text-decoration="none" transform="matrix(1 0 0 1 1409.2 723)">V1</text><path d="M0 0 0.000360892 229.375" stroke="#000000" stroke-width="44.6875" stroke-linecap="round" stroke-linejoin="miter" stroke-miterlimit="8" stroke-opacity="1" fill="none" fill-rule="evenodd" transform="matrix(1 0 0 -1 1562.5 569.875)"/><path d="M0 0 0.000360892 95.979" stroke="#000000" stroke-width="44.6875" stroke-linecap="round" stroke-linejoin="miter" stroke-miterlimit="8" stroke-opacity="1" fill="none" fill-rule="evenodd" transform="matrix(1 0 0 -1 1495.5 569.479)"/><rect x="1740.5" y="568.5" width="339" height="184" stroke="#042433" stroke-width="6.875" stroke-linecap="butt" stroke-linejoin="miter" stroke-miterlimit="8" stroke-opacity="1" fill="#FDD466" fill-opacity="1"/><text fill="#000000" fill-opacity="1" font-family="Arial,Arial_MSFontService,sans-serif" font-style="normal" font-variant="normal" font-weight="400" font-stretch="normal" font-size="64" text-anchor="start" direction="ltr" writing-mode="lr-tb" unicode-bidi="normal" text-decoration="none" transform="matrix(1 0 0 1 1821.77 645)">FPGA</text><text fill="#000000" fill-opacity="1" font-family="Arial,Arial_MSFontService,sans-serif" font-style="normal" font-variant="normal" font-weight="400" font-stretch="normal" font-size="64" text-anchor="start" direction="ltr" writing-mode="lr-tb" unicode-bidi="normal" text-decoration="none" transform="matrix(1 0 0 1 1869.89 722)">V2</text><path d="M0 0 0.000360892 94.6798" stroke="#000000" stroke-width="44.6875" stroke-linecap="round" stroke-linejoin="miter" stroke-miterlimit="8" stroke-opacity="1" fill="none" fill-rule="evenodd" transform="matrix(1 0 0 -1 2022.5 568.18)"/><path d="M0 0 0.000360892 228.076" stroke="#000000" stroke-width="44.6875" stroke-linecap="round" stroke-linejoin="miter" stroke-miterlimit="8" stroke-opacity="1" fill="none" fill-rule="evenodd" transform="matrix(1 0 0 -1 1956.5 568.576)"/><path d="M0 0 0.000360892 169.421" stroke="#4E95D9" stroke-width="44.6875" stroke-linecap="round" stroke-linejoin="miter" stroke-miterlimit="8" stroke-opacity="1" fill="none" fill-rule="evenodd" transform="matrix(1 0 0 -1 1800.5 567.921)"/><rect x="2114.5" y="568.5" width="338" height="184" stroke="#042433" stroke-width="6.875" stroke-linecap="butt" stroke-linejoin="miter" stroke-miterlimit="8" stroke-opacity="1" fill="#FDD466" fill-opacity="1"/><text fill="#000000" fill-opacity="1" font-family="Arial,Arial_MSFontService,sans-serif" font-style="normal" font-variant="normal" font-weight="400" font-stretch="normal" font-size="64" text-anchor="start" direction="ltr" writing-mode="lr-tb" unicode-bidi="normal" text-decoration="none" transform="matrix(1 0 0 1 2195.62 645)">FPGA</text><text fill="#000000" fill-opacity="1" font-family="Arial,Arial_MSFontService,sans-serif" font-style="normal" font-variant="normal" font-weight="400" font-stretch="normal" font-size="64" text-anchor="start" direction="ltr" writing-mode="lr-tb" unicode-bidi="normal" text-decoration="none" transform="matrix(1 0 0 1 2243.74 722)">V2</text><path d="M0 0 0.000360892 228.076" stroke="#000000" stroke-width="44.6875" stroke-linecap="round" stroke-linejoin="miter" stroke-miterlimit="8" stroke-opacity="1" fill="none" fill-rule="evenodd" transform="matrix(1 0 0 -1 2396.5 568.576)"/><path d="M0 0 0.000360892 94.6798" stroke="#000000" stroke-width="44.6875" stroke-linecap="round" stroke-linejoin="miter" stroke-miterlimit="8" stroke-opacity="1" fill="none" fill-rule="evenodd" transform="matrix(1 0 0 -1 2330.5 568.18)"/><path d="M0 0 0.000360892 169.421" stroke="#4E95D9" stroke-width="44.6875" stroke-linecap="round" stroke-linejoin="miter" stroke-miterlimit="8" stroke-opacity="1" fill="none" fill-rule="evenodd" transform="matrix(1 0 0 -1 2174.5 567.921)"/><rect x="2757.5" y="568.5" width="339" height="184" stroke="#042433" stroke-width="6.875" stroke-linecap="butt" stroke-linejoin="miter" stroke-miterlimit="8" stroke-opacity="1" fill="#FDD466" fill-opacity="1"/><text fill="#000000" fill-opacity="1" font-family="Arial,Arial_MSFontService,sans-serif" font-style="normal" font-variant="normal" font-weight="400" font-stretch="normal" font-size="64" text-anchor="start" direction="ltr" writing-mode="lr-tb" unicode-bidi="normal" text-decoration="none" transform="matrix(1 0 0 1 2838.7 645)">FPGA</text><text fill="#000000" fill-opacity="1" font-family="Arial,Arial_MSFontService,sans-serif" font-style="normal" font-variant="normal" font-weight="400" font-stretch="normal" font-size="64" text-anchor="start" direction="ltr" writing-mode="lr-tb" unicode-bidi="normal" text-decoration="none" transform="matrix(1 0 0 1 2886.82 722)">V3</text><path d="M0 0 0.000360892 228.076" stroke="#000000" stroke-width="44.6875" stroke-linecap="round" stroke-linejoin="miter" stroke-miterlimit="8" stroke-opacity="1" fill="none" fill-rule="evenodd" transform="matrix(1 0 0 -1 3039.5 568.576)"/><path d="M0 0 0.000360892 228.076" stroke="#000000" stroke-width="44.6875" stroke-linecap="round" stroke-linejoin="miter" stroke-miterlimit="8" stroke-opacity="1" fill="none" fill-rule="evenodd" transform="matrix(1 0 0 -1 2973.5 568.576)"/><path d="M0 0 0.000360892 301.698" stroke="#4E95D9" stroke-width="44.6875" stroke-linecap="round" stroke-linejoin="miter" stroke-miterlimit="8" stroke-opacity="1" fill="none" fill-rule="evenodd" transform="matrix(1 0 0 -1 2817.5 568.198)"/><path d="M0 0 0.000360892 25.9781" stroke="#4E95D9" stroke-width="44.6875" stroke-linecap="round" stroke-linejoin="miter" stroke-miterlimit="8" stroke-opacity="1" fill="none" fill-rule="evenodd" transform="matrix(1 0 0 -1 2876.5 568.478)"/><rect x="3403.5" y="568.5" width="339" height="184" stroke="#042433" stroke-width="6.875" stroke-linecap="butt" stroke-linejoin="miter" stroke-miterlimit="8" stroke-opacity="1" fill="#FDD466" fill-opacity="1"/><text fill="#000000" fill-opacity="1" font-family="Arial,Arial_MSFontService,sans-serif" font-style="normal" font-variant="normal" font-weight="400" font-stretch="normal" font-size="64" text-anchor="start" direction="ltr" writing-mode="lr-tb" unicode-bidi="normal" text-decoration="none" transform="matrix(1 0 0 1 3484.82 645)">FPGA</text><text fill="#000000" fill-opacity="1" font-family="Arial,Arial_MSFontService,sans-serif" font-style="normal" font-variant="normal" font-weight="400" font-stretch="normal" font-size="64" text-anchor="start" direction="ltr" writing-mode="lr-tb" unicode-bidi="normal" text-decoration="none" transform="matrix(1 0 0 1 3532.95 722)">V3</text><path d="M0 0 0.000360892 25.9781" stroke="#000000" stroke-width="44.6875" stroke-linecap="round" stroke-linejoin="miter" stroke-miterlimit="8" stroke-opacity="1" fill="none" fill-rule="evenodd" transform="matrix(1 0 0 -1 3685.5 568.478)"/><path d="M0 0 0.000360892 228.076" stroke="#000000" stroke-width="44.6875" stroke-linecap="round" stroke-linejoin="miter" stroke-miterlimit="8" stroke-opacity="1" fill="none" fill-rule="evenodd" transform="matrix(1 0 0 -1 3619.5 568.576)"/><path d="M0 0 0.000360892 25.9781" stroke="#4E95D9" stroke-width="44.6875" stroke-linecap="round" stroke-linejoin="miter" stroke-miterlimit="8" stroke-opacity="1" fill="none" fill-rule="evenodd" transform="matrix(1 0 0 -1 3463.5 568.478)"/><path d="M0 0 0.000360892 25.9781" stroke="#4E95D9" stroke-width="44.6875" stroke-linecap="round" stroke-linejoin="miter" stroke-miterlimit="8" stroke-opacity="1" fill="none" fill-rule="evenodd" transform="matrix(1 0 0 -1 3522.5 568.478)"/><path d="M0 0 307.267 0.000360892" stroke="#000000" stroke-width="44.6875" stroke-linecap="round" stroke-linejoin="miter" stroke-miterlimit="8" stroke-opacity="1" fill="none" fill-rule="evenodd" transform="matrix(-1 0 0 1 1495.77 473.5)"/><path d="M0 0 394.107 0.000360892" stroke="#000000" stroke-width="44.6875" stroke-linecap="round" stroke-linejoin="miter" stroke-miterlimit="8" stroke-opacity="1" fill="none" fill-rule="evenodd" transform="matrix(-1 0 0 1 1956.61 340.5)"/><path d="M0 0 307.267 0.000360892" stroke="#000000" stroke-width="44.6875" stroke-linecap="round" stroke-linejoin="miter" stroke-miterlimit="8" stroke-opacity="1" fill="none" fill-rule="evenodd" transform="matrix(-1 0 0 1 2329.77 473.5)"/><path d="M0 0 576.493 0.000360892" stroke="#000000" stroke-width="44.6875" stroke-linecap="round" stroke-linejoin="miter" stroke-miterlimit="8" stroke-opacity="1" fill="none" fill-rule="evenodd" transform="matrix(-1 0 0 1 2972.99 340.5)"/><path d="M0 0 579.541 0.000360892" stroke="#000000" stroke-width="44.6875" stroke-linecap="round" stroke-linejoin="miter" stroke-miterlimit="8" stroke-opacity="1" fill="none" fill-rule="evenodd" transform="matrix(-1 0 0 1 3619.04 340.5)"/><path d="M1188.5 814.5 1341.17 814.5" stroke="#3B7D23" stroke-width="44.6875" stroke-linecap="round" stroke-linejoin="miter" stroke-miterlimit="8" stroke-opacity="1" fill="none" fill-rule="evenodd"/><path d="M2022.5 814.5 2174.21 814.5" stroke="#3B7D23" stroke-width="44.6875" stroke-linecap="round" stroke-linejoin="miter" stroke-miterlimit="8" stroke-opacity="1" fill="none" fill-rule="evenodd"/><path d="M2660.5 945.236C2660.5 940.411 2664.41 936.5 2669.24 936.5L3188.76 936.5C3193.59 936.5 3197.5 940.411 3197.5 945.236L3197.5 1061.76C3197.5 1066.59 3193.59 1070.5 3188.76 1070.5L2669.24 1070.5C2664.41 1070.5 2660.5 1066.59 2660.5 1061.76Z" stroke="#042433" stroke-width="6.875" stroke-linecap="butt" stroke-linejoin="miter" stroke-miterlimit="8" stroke-opacity="1" fill="#F2AA84" fill-rule="evenodd" fill-opacity="1"/><text fill="#000000" fill-opacity="1" font-family="Arial,Arial_MSFontService,sans-serif" font-style="normal" font-variant="normal" font-weight="400" font-stretch="normal" font-size="83" text-anchor="start" direction="ltr" writing-mode="lr-tb" unicode-bidi="normal" text-decoration="none" transform="matrix(1 0 0 1 2710.7 1035)">Classic Arm</text><path d="M0 0 0.191273 121.336" stroke="#3B7D23" stroke-width="44.6875" stroke-linecap="round" stroke-linejoin="miter" stroke-miterlimit="8" stroke-opacity="1" fill="none" fill-rule="evenodd" transform="matrix(-1 0 0 1 2928.69 814.5)"/><path d="M2861.5 814.5 2997.94 814.5" stroke="#3B7D23" stroke-width="44.6875" stroke-linecap="round" stroke-linejoin="miter" stroke-miterlimit="8" stroke-opacity="1" fill="none" fill-rule="evenodd"/><path d="M3366.5 945.235C3366.5 940.411 3370.41 936.5 3375.24 936.5L3771.76 936.5C3776.59 936.5 3780.5 940.411 3780.5 945.235L3780.5 1061.76C3780.5 1066.59 3776.59 1070.5 3771.76 1070.5L3375.24 1070.5C3370.41 1070.5 3366.5 1066.59 3366.5 1061.76Z" stroke="#042433" stroke-width="6.875" stroke-linecap="butt" stroke-linejoin="miter" stroke-miterlimit="8" stroke-opacity="1" fill="#F2AA84" fill-rule="evenodd" fill-opacity="1"/><text fill="#000000" fill-opacity="1" font-family="Arial,Arial_MSFontService,sans-serif" font-style="normal" font-variant="normal" font-weight="400" font-stretch="normal" font-size="83" text-anchor="start" direction="ltr" writing-mode="lr-tb" unicode-bidi="normal" text-decoration="none" transform="matrix(1 0 0 1 3451.54 1035)">Si Arm</text><path d="M3573.5 876.5 3573.5 936.518" stroke="#3B7D23" stroke-width="44.6875" stroke-linecap="round" stroke-linejoin="miter" stroke-miterlimit="8" stroke-opacity="1" fill="none" fill-rule="evenodd"/><path d="M1829.5 945.236C1829.5 940.411 1833.41 936.5 1838.24 936.5L2357.76 936.5C2362.59 936.5 2366.5 940.411 2366.5 945.236L2366.5 1061.76C2366.5 1066.59 2362.59 1070.5 2357.76 1070.5L1838.24 1070.5C1833.41 1070.5 1829.5 1066.59 1829.5 1061.76Z" stroke="#042433" stroke-width="6.875" stroke-linecap="butt" stroke-linejoin="miter" stroke-miterlimit="8" stroke-opacity="1" fill="#F2AA84" fill-rule="evenodd" fill-opacity="1"/><text fill="#000000" fill-opacity="1" font-family="Arial,Arial_MSFontService,sans-serif" font-style="normal" font-variant="normal" font-weight="400" font-stretch="normal" font-size="83" text-anchor="start" direction="ltr" writing-mode="lr-tb" unicode-bidi="normal" text-decoration="none" transform="matrix(1 0 0 1 1879.83 1035)">Classic Arm</text><path d="M2098.5 814.5 2098.5 935.835" stroke="#3B7D23" stroke-width="44.6875" stroke-linecap="round" stroke-linejoin="miter" stroke-miterlimit="8" stroke-opacity="1" fill="none" fill-rule="evenodd"/><path d="M994.5 945.236C994.5 940.411 998.411 936.5 1003.24 936.5L1522.76 936.5C1527.59 936.5 1531.5 940.411 1531.5 945.236L1531.5 1061.76C1531.5 1066.59 1527.59 1070.5 1522.76 1070.5L1003.24 1070.5C998.411 1070.5 994.5 1066.59 994.5 1061.76Z" stroke="#042433" stroke-width="6.875" stroke-linecap="butt" stroke-linejoin="miter" stroke-miterlimit="8" stroke-opacity="1" fill="#F2AA84" fill-rule="evenodd" fill-opacity="1"/><text fill="#000000" fill-opacity="1" font-family="Arial,Arial_MSFontService,sans-serif" font-style="normal" font-variant="normal" font-weight="400" font-stretch="normal" font-size="83" text-anchor="start" direction="ltr" writing-mode="lr-tb" unicode-bidi="normal" text-decoration="none" transform="matrix(1 0 0 1 1044.57 1035)">Classic Arm</text><path d="M1263.5 814.5 1263.5 935.835" stroke="#3B7D23" stroke-width="44.6875" stroke-linecap="round" stroke-linejoin="miter" stroke-miterlimit="8" stroke-opacity="1" fill="none" fill-rule="evenodd"/><path d="M0 0 308.411 0.000360892" stroke="#4E95D9" stroke-width="44.6875" stroke-linecap="round" stroke-linejoin="miter" stroke-miterlimit="8" stroke-opacity="1" fill="none" fill-rule="evenodd" transform="matrix(-1 0 0 1 2800.91 2139.5)"/><path d="M0 0 307.267 0.000360892" stroke="#000000" stroke-width="44.6875" stroke-linecap="round" stroke-linejoin="miter" stroke-miterlimit="8" stroke-opacity="1" fill="none" fill-rule="evenodd" transform="matrix(-1 0 0 1 2000.77 2139.5)"/><path d="M3314.5 2145.5 3622.91 2145.5" stroke="#3B7D23" stroke-width="44.6875" stroke-linecap="round" stroke-linejoin="miter" stroke-miterlimit="8" stroke-opacity="1" fill="none" fill-rule="evenodd"/><text fill="#000000" fill-opacity="1" font-family="Arial,Arial_MSFontService,sans-serif" font-style="normal" font-variant="normal" font-weight="400" font-stretch="normal" font-size="83" text-anchor="start" direction="ltr" writing-mode="lr-tb" unicode-bidi="normal" text-decoration="none" transform="matrix(1 0 0 1 2033.83 2169)">FireWire</text><text fill="#000000" fill-opacity="1" font-family="Arial,Arial_MSFontService,sans-serif" font-style="normal" font-variant="normal" font-weight="400" font-stretch="normal" font-size="83" text-anchor="start" direction="ltr" writing-mode="lr-tb" unicode-bidi="normal" text-decoration="none" transform="matrix(1 0 0 1 2830.71 2169)">Ethernet</text><text fill="#000000" fill-opacity="1" font-family="Arial,Arial_MSFontService,sans-serif" font-style="normal" font-variant="normal" font-weight="400" font-stretch="normal" font-size="83" text-anchor="start" direction="ltr" writing-mode="lr-tb" unicode-bidi="normal" text-decoration="none" transform="matrix(1 0 0 1 3652.41 2169)">I/O</text><path d="M0 0 0.000360892 301.698" stroke="#4E95D9" stroke-width="44.6875" stroke-linecap="round" stroke-linejoin="miter" stroke-miterlimit="8" stroke-opacity="1" fill="none" fill-rule="evenodd" transform="matrix(1 0 0 -1 660.5 568.198)"/><path d="M0 0 2157.35 0.000360892" stroke="#4E95D9" stroke-width="44.6875" stroke-linecap="round" stroke-linejoin="miter" stroke-miterlimit="8" stroke-opacity="1" fill="none" fill-rule="evenodd" transform="matrix(-1 0 0 1 2817.85 266.5)"/><path d="M0 0 0.000360892 169.421" stroke="#000000" stroke-width="44.6875" stroke-linecap="round" stroke-linejoin="miter" stroke-miterlimit="8" stroke-opacity="1" fill="none" fill-rule="evenodd" transform="matrix(1 0 0 -1 1121.5 567.921)"/><path d="M870.5 1364.9C870.5 1347.01 885.006 1332.5 902.899 1332.5L1624.1 1332.5C1641.99 1332.5 1656.5 1347.01 1656.5 1364.9L1656.5 1797.1C1656.5 1814.99 1641.99 1829.5 1624.1 1829.5L902.899 1829.5C885.006 1829.5 870.5 1814.99 870.5 1797.1Z" stroke="#042433" stroke-width="6.875" stroke-linecap="butt" stroke-linejoin="miter" stroke-miterlimit="8" stroke-opacity="1" fill="#FDE49F" fill-rule="evenodd" fill-opacity="1"/><rect x="905.5" y="1686.5" width="339" height="123" stroke="#042433" stroke-width="6.875" stroke-linecap="butt" stroke-linejoin="miter" stroke-miterlimit="8" stroke-opacity="1" fill="#FDD466" fill-opacity="1"/><text fill="#000000" fill-opacity="1" font-family="Arial,Arial_MSFontService,sans-serif" font-style="normal" font-variant="normal" font-weight="400" font-stretch="normal" font-size="64" text-anchor="start" direction="ltr" writing-mode="lr-tb" unicode-bidi="normal" text-decoration="none" transform="matrix(1 0 0 1 1010.43 1771)">QLA</text><path d="M484.5 1553.67C484.5 1525.41 507.408 1502.5 535.668 1502.5L772.332 1502.5C800.592 1502.5 823.5 1525.41 823.5 1553.67L823.5 1758.33C823.5 1786.59 800.592 1809.5 772.332 1809.5L535.668 1809.5C507.408 1809.5 484.5 1786.59 484.5 1758.33Z" stroke="#042433" stroke-width="6.875" stroke-linecap="butt" stroke-linejoin="miter" stroke-miterlimit="8" stroke-opacity="1" fill="#A6CAEC" fill-rule="evenodd" fill-opacity="1"/><text fill="#000000" fill-opacity="1" font-family="Arial,Arial_MSFontService,sans-serif" font-style="normal" font-variant="normal" font-weight="400" font-stretch="normal" font-size="83" text-anchor="start" direction="ltr" writing-mode="lr-tb" unicode-bidi="normal" text-decoration="none" transform="matrix(1 0 0 1 596.254 1686)">PC</text><rect x="1279.5" y="1686.5" width="339" height="123" stroke="#042433" stroke-width="6.875" stroke-linecap="butt" stroke-linejoin="miter" stroke-miterlimit="8" stroke-opacity="1" fill="#FDD466" fill-opacity="1"/><text fill="#000000" fill-opacity="1" font-family="Arial,Arial_MSFontService,sans-serif" font-style="normal" font-variant="normal" font-weight="400" font-stretch="normal" font-size="64" text-anchor="start" direction="ltr" writing-mode="lr-tb" unicode-bidi="normal" text-decoration="none" transform="matrix(1 0 0 1 1384.28 1771)">QLA</text><path d="M2536.5 1498.58C2536.5 1485.83 2546.83 1475.5 2559.58 1475.5L3298.42 1475.5C3311.17 1475.5 3321.5 1485.83 3321.5 1498.58L3321.5 1806.42C3321.5 1819.17 3311.17 1829.5 3298.42 1829.5L2559.58 1829.5C2546.83 1829.5 2536.5 1819.17 2536.5 1806.42Z" stroke="#042433" stroke-width="6.875" stroke-linecap="butt" stroke-linejoin="miter" stroke-miterlimit="8" stroke-opacity="1" fill="#FDE49F" fill-rule="evenodd" fill-opacity="1"/><rect x="2571.5" y="1686.5" width="339" height="123" stroke="#042433" stroke-width="6.875" stroke-linecap="butt" stroke-linejoin="miter" stroke-miterlimit="8" stroke-opacity="1" fill="#FDD466" fill-opacity="1"/><text fill="#000000" fill-opacity="1" font-family="Arial,Arial_MSFontService,sans-serif" font-style="normal" font-variant="normal" font-weight="400" font-stretch="normal" font-size="64" text-anchor="start" direction="ltr" writing-mode="lr-tb" unicode-bidi="normal" text-decoration="none" transform="matrix(1 0 0 1 2676.04 1771)">QLA</text><rect x="2945.5" y="1686.5" width="339" height="123" stroke="#042433" stroke-width="6.875" stroke-linecap="butt" stroke-linejoin="miter" stroke-miterlimit="8" stroke-opacity="1" fill="#FDD466" fill-opacity="1"/><text fill="#000000" fill-opacity="1" font-family="Arial,Arial_MSFontService,sans-serif" font-style="normal" font-variant="normal" font-weight="400" font-stretch="normal" font-size="64" text-anchor="start" direction="ltr" writing-mode="lr-tb" unicode-bidi="normal" text-decoration="none" transform="matrix(1 0 0 1 3049.89 1771)">QLA</text><path d="M3366.5 1498.58C3366.5 1485.83 3376.83 1475.5 3389.58 1475.5L3757.42 1475.5C3770.17 1475.5 3780.5 1485.83 3780.5 1498.58L3780.5 1806.42C3780.5 1819.17 3770.17 1829.5 3757.42 1829.5L3389.58 1829.5C3376.83 1829.5 3366.5 1819.17 3366.5 1806.42Z" stroke="#042433" stroke-width="6.875" stroke-linecap="butt" stroke-linejoin="miter" stroke-miterlimit="8" stroke-opacity="1" fill="#FDE49F" fill-rule="evenodd" fill-opacity="1"/><rect x="3404.5" y="1686.5" width="338" height="123" stroke="#042433" stroke-width="6.875" stroke-linecap="butt" stroke-linejoin="miter" stroke-miterlimit="8" stroke-opacity="1" fill="#FDD466" fill-opacity="1"/><text fill="#000000" fill-opacity="1" font-family="Arial,Arial_MSFontService,sans-serif" font-style="normal" font-variant="normal" font-weight="400" font-stretch="normal" font-size="64" text-anchor="start" direction="ltr" writing-mode="lr-tb" unicode-bidi="normal" text-decoration="none" transform="matrix(1 0 0 1 3487.35 1771)">dRAC</text><path d="M1705.5 1364.9C1705.5 1347.01 1720.01 1332.5 1737.9 1332.5L2458.1 1332.5C2475.99 1332.5 2490.5 1347.01 2490.5 1364.9L2490.5 1797.11C2490.5 1815.01 2475.99 1829.51 2458.1 1829.51L1737.9 1829.51C1720.01 1829.51 1705.5 1815.01 1705.5 1797.11Z" stroke="#042433" stroke-width="6.875" stroke-linecap="butt" stroke-linejoin="miter" stroke-miterlimit="8" stroke-opacity="1" fill="#FDE49F" fill-rule="evenodd" fill-opacity="1"/><rect x="1740.5" y="1686.5" width="339" height="123" stroke="#042433" stroke-width="6.875" stroke-linecap="butt" stroke-linejoin="miter" stroke-miterlimit="8" stroke-opacity="1" fill="#FDD466" fill-opacity="1"/><text fill="#000000" fill-opacity="1" font-family="Arial,Arial_MSFontService,sans-serif" font-style="normal" font-variant="normal" font-weight="400" font-stretch="normal" font-size="64" text-anchor="start" direction="ltr" writing-mode="lr-tb" unicode-bidi="normal" text-decoration="none" transform="matrix(1 0 0 1 1844.97 1771)">QLA</text><rect x="2114.5" y="1686.5" width="338" height="123" stroke="#042433" stroke-width="6.875" stroke-linecap="butt" stroke-linejoin="miter" stroke-miterlimit="8" stroke-opacity="1" fill="#FDD466" fill-opacity="1"/><text fill="#000000" fill-opacity="1" font-family="Arial,Arial_MSFontService,sans-serif" font-style="normal" font-variant="normal" font-weight="400" font-stretch="normal" font-size="64" text-anchor="start" direction="ltr" writing-mode="lr-tb" unicode-bidi="normal" text-decoration="none" transform="matrix(1 0 0 1 2218.82 1771)">QLA</text><rect x="905.5" y="1501.5" width="339" height="184" stroke="#042433" stroke-width="6.875" stroke-linecap="butt" stroke-linejoin="miter" stroke-miterlimit="8" stroke-opacity="1" fill="#FDD466" fill-opacity="1"/><text fill="#000000" fill-opacity="1" font-family="Arial,Arial_MSFontService,sans-serif" font-style="normal" font-variant="normal" font-weight="400" font-stretch="normal" font-size="64" text-anchor="start" direction="ltr" writing-mode="lr-tb" unicode-bidi="normal" text-decoration="none" transform="matrix(1 0 0 1 987.224 1578)">FPGA</text><text fill="#000000" fill-opacity="1" font-family="Arial,Arial_MSFontService,sans-serif" font-style="normal" font-variant="normal" font-weight="400" font-stretch="normal" font-size="64" text-anchor="start" direction="ltr" writing-mode="lr-tb" unicode-bidi="normal" text-decoration="none" transform="matrix(1 0 0 1 1035.35 1655)">V1</text><path d="M0 0 0.000360892 94.6798" stroke="#000000" stroke-width="44.6875" stroke-linecap="round" stroke-linejoin="miter" stroke-miterlimit="8" stroke-opacity="1" fill="none" fill-rule="evenodd" transform="matrix(1 0 0 -1 1188.5 1501.18)"/><path d="M0 0 0.000360892 169.421" stroke="#000000" stroke-width="44.6875" stroke-linecap="round" stroke-linejoin="miter" stroke-miterlimit="8" stroke-opacity="1" fill="none" fill-rule="evenodd" transform="matrix(1 0 0 -1 1121.5 1501.92)"/><rect x="1279.5" y="1502.5" width="339" height="184" stroke="#042433" stroke-width="6.875" stroke-linecap="butt" stroke-linejoin="miter" stroke-miterlimit="8" stroke-opacity="1" fill="#FDD466" fill-opacity="1"/><text fill="#000000" fill-opacity="1" font-family="Arial,Arial_MSFontService,sans-serif" font-style="normal" font-variant="normal" font-weight="400" font-stretch="normal" font-size="64" text-anchor="start" direction="ltr" writing-mode="lr-tb" unicode-bidi="normal" text-decoration="none" transform="matrix(1 0 0 1 1361.08 1579)">FPGA</text><text fill="#000000" fill-opacity="1" font-family="Arial,Arial_MSFontService,sans-serif" font-style="normal" font-variant="normal" font-weight="400" font-stretch="normal" font-size="64" text-anchor="start" direction="ltr" writing-mode="lr-tb" unicode-bidi="normal" text-decoration="none" transform="matrix(1 0 0 1 1409.2 1656)">V1</text><path d="M0 0 0.000360892 229.599" stroke="#000000" stroke-width="44.6875" stroke-linecap="round" stroke-linejoin="miter" stroke-miterlimit="8" stroke-opacity="1" fill="none" fill-rule="evenodd" transform="matrix(1 0 0 -1 1562.5 1503.1)"/><path d="M0 0 0.000360892 95.979" stroke="#000000" stroke-width="44.6875" stroke-linecap="round" stroke-linejoin="miter" stroke-miterlimit="8" stroke-opacity="1" fill="none" fill-rule="evenodd" transform="matrix(1 0 0 -1 1495.5 1502.48)"/><rect x="1740.5" y="1501.5" width="339" height="184" stroke="#042433" stroke-width="6.875" stroke-linecap="butt" stroke-linejoin="miter" stroke-miterlimit="8" stroke-opacity="1" fill="#FDD466" fill-opacity="1"/><text fill="#000000" fill-opacity="1" font-family="Arial,Arial_MSFontService,sans-serif" font-style="normal" font-variant="normal" font-weight="400" font-stretch="normal" font-size="64" text-anchor="start" direction="ltr" writing-mode="lr-tb" unicode-bidi="normal" text-decoration="none" transform="matrix(1 0 0 1 1821.77 1578)">FPGA</text><text fill="#000000" fill-opacity="1" font-family="Arial,Arial_MSFontService,sans-serif" font-style="normal" font-variant="normal" font-weight="400" font-stretch="normal" font-size="64" text-anchor="start" direction="ltr" writing-mode="lr-tb" unicode-bidi="normal" text-decoration="none" transform="matrix(1 0 0 1 1869.89 1655)">V2</text><path d="M0 0 0.000360892 94.6798" stroke="#000000" stroke-width="44.6875" stroke-linecap="round" stroke-linejoin="miter" stroke-miterlimit="8" stroke-opacity="1" fill="none" fill-rule="evenodd" transform="matrix(1 0 0 -1 2022.5 1501.18)"/><path d="M0 0 0.000360892 228.076" stroke="#000000" stroke-width="44.6875" stroke-linecap="round" stroke-linejoin="miter" stroke-miterlimit="8" stroke-opacity="1" fill="none" fill-rule="evenodd" transform="matrix(1 0 0 -1 1956.5 1501.58)"/><path d="M0 0 0.000360892 169.421" stroke="#4E95D9" stroke-width="44.6875" stroke-linecap="round" stroke-linejoin="miter" stroke-miterlimit="8" stroke-opacity="1" fill="none" fill-rule="evenodd" transform="matrix(1 0 0 -1 1800.5 1501.92)"/><rect x="2114.5" y="1501.5" width="338" height="184" stroke="#042433" stroke-width="6.875" stroke-linecap="butt" stroke-linejoin="miter" stroke-miterlimit="8" stroke-opacity="1" fill="#FDD466" fill-opacity="1"/><text fill="#000000" fill-opacity="1" font-family="Arial,Arial_MSFontService,sans-serif" font-style="normal" font-variant="normal" font-weight="400" font-stretch="normal" font-size="64" text-anchor="start" direction="ltr" writing-mode="lr-tb" unicode-bidi="normal" text-decoration="none" transform="matrix(1 0 0 1 2195.62 1578)">FPGA</text><text fill="#000000" fill-opacity="1" font-family="Arial,Arial_MSFontService,sans-serif" font-style="normal" font-variant="normal" font-weight="400" font-stretch="normal" font-size="64" text-anchor="start" direction="ltr" writing-mode="lr-tb" unicode-bidi="normal" text-decoration="none" transform="matrix(1 0 0 1 2243.74 1655)">V2</text><path d="M0 0 0.000360892 228.076" stroke="#000000" stroke-width="44.6875" stroke-linecap="round" stroke-linejoin="miter" stroke-miterlimit="8" stroke-opacity="1" fill="none" fill-rule="evenodd" transform="matrix(1 0 0 -1 2396.5 1501.58)"/><path d="M0 0 0.000360892 94.6798" stroke="#000000" stroke-width="44.6875" stroke-linecap="round" stroke-linejoin="miter" stroke-miterlimit="8" stroke-opacity="1" fill="none" fill-rule="evenodd" transform="matrix(1 0 0 -1 2330.5 1501.18)"/><path d="M0 0 0.000360892 25.9785" stroke="#4E95D9" stroke-width="44.6875" stroke-linecap="round" stroke-linejoin="miter" stroke-miterlimit="8" stroke-opacity="1" fill="none" fill-rule="evenodd" transform="matrix(1 0 0 -1 2174.5 1501.48)"/><rect x="2757.5" y="1501.5" width="339" height="184" stroke="#042433" stroke-width="6.875" stroke-linecap="butt" stroke-linejoin="miter" stroke-miterlimit="8" stroke-opacity="1" fill="#FDD466" fill-opacity="1"/><text fill="#000000" fill-opacity="1" font-family="Arial,Arial_MSFontService,sans-serif" font-style="normal" font-variant="normal" font-weight="400" font-stretch="normal" font-size="64" text-anchor="start" direction="ltr" writing-mode="lr-tb" unicode-bidi="normal" text-decoration="none" transform="matrix(1 0 0 1 2838.7 1578)">FPGA</text><text fill="#000000" fill-opacity="1" font-family="Arial,Arial_MSFontService,sans-serif" font-style="normal" font-variant="normal" font-weight="400" font-stretch="normal" font-size="64" text-anchor="start" direction="ltr" writing-mode="lr-tb" unicode-bidi="normal" text-decoration="none" transform="matrix(1 0 0 1 2886.82 1655)">V3</text><path d="M0 0 0.000360892 228.076" stroke="#000000" stroke-width="44.6875" stroke-linecap="round" stroke-linejoin="miter" stroke-miterlimit="8" stroke-opacity="1" fill="none" fill-rule="evenodd" transform="matrix(1 0 0 -1 3039.5 1501.58)"/><path d="M0 0 0.000360892 228.076" stroke="#000000" stroke-width="44.6875" stroke-linecap="round" stroke-linejoin="miter" stroke-miterlimit="8" stroke-opacity="1" fill="none" fill-rule="evenodd" transform="matrix(1 0 0 -1 2973.5 1501.58)"/><path d="M0 0 0.000360892 25.9781" stroke="#4E95D9" stroke-width="44.6875" stroke-linecap="round" stroke-linejoin="miter" stroke-miterlimit="8" stroke-opacity="1" fill="none" fill-rule="evenodd" transform="matrix(1 0 0 -1 2817.5 1501.48)"/><path d="M0 0 0.000360892 25.9781" stroke="#4E95D9" stroke-width="44.6875" stroke-linecap="round" stroke-linejoin="miter" stroke-miterlimit="8" stroke-opacity="1" fill="none" fill-rule="evenodd" transform="matrix(1 0 0 -1 2876.5 1501.48)"/><rect x="3403.5" y="1501.5" width="339" height="184" stroke="#042433" stroke-width="6.875" stroke-linecap="butt" stroke-linejoin="miter" stroke-miterlimit="8" stroke-opacity="1" fill="#FDD466" fill-opacity="1"/><text fill="#000000" fill-opacity="1" font-family="Arial,Arial_MSFontService,sans-serif" font-style="normal" font-variant="normal" font-weight="400" font-stretch="normal" font-size="64" text-anchor="start" direction="ltr" writing-mode="lr-tb" unicode-bidi="normal" text-decoration="none" transform="matrix(1 0 0 1 3484.82 1578)">FPGA</text><text fill="#000000" fill-opacity="1" font-family="Arial,Arial_MSFontService,sans-serif" font-style="normal" font-variant="normal" font-weight="400" font-stretch="normal" font-size="64" text-anchor="start" direction="ltr" writing-mode="lr-tb" unicode-bidi="normal" text-decoration="none" transform="matrix(1 0 0 1 3532.95 1655)">V3</text><path d="M0 0 0.000360892 25.9781" stroke="#000000" stroke-width="44.6875" stroke-linecap="round" stroke-linejoin="miter" stroke-miterlimit="8" stroke-opacity="1" fill="none" fill-rule="evenodd" transform="matrix(1 0 0 -1 3685.5 1501.48)"/><path d="M0 0 0.000360892 228.076" stroke="#000000" stroke-width="44.6875" stroke-linecap="round" stroke-linejoin="miter" stroke-miterlimit="8" stroke-opacity="1" fill="none" fill-rule="evenodd" transform="matrix(1 0 0 -1 3619.5 1501.58)"/><path d="M0 0 0.000360892 294.052" stroke="#4E95D9" stroke-width="44.6875" stroke-linecap="round" stroke-linejoin="miter" stroke-miterlimit="8" stroke-opacity="1" fill="none" fill-rule="evenodd" transform="matrix(1 0 0 -1 3463.5 1501.55)"/><path d="M0 0 0.000360892 25.9781" stroke="#4E95D9" stroke-width="44.6875" stroke-linecap="round" stroke-linejoin="miter" stroke-miterlimit="8" stroke-opacity="1" fill="none" fill-rule="evenodd" transform="matrix(1 0 0 -1 3522.5 1501.48)"/><path d="M0 0 307.267 0.000360892" stroke="#000000" stroke-width="44.6875" stroke-linecap="round" stroke-linejoin="miter" stroke-miterlimit="8" stroke-opacity="1" fill="none" fill-rule="evenodd" transform="matrix(-1 0 0 1 1495.77 1406.5)"/><path d="M0 0 307.267 0.000360892" stroke="#000000" stroke-width="44.6875" stroke-linecap="round" stroke-linejoin="miter" stroke-miterlimit="8" stroke-opacity="1" fill="none" fill-rule="evenodd" transform="matrix(-1 0 0 1 2329.77 1406.5)"/><path d="M0 0 576.493 0.000360892" stroke="#000000" stroke-width="44.6875" stroke-linecap="round" stroke-linejoin="miter" stroke-miterlimit="8" stroke-opacity="1" fill="none" fill-rule="evenodd" transform="matrix(-1 0 0 1 2972.99 1273.5)"/><path d="M0 0 579.541 0.000360892" stroke="#000000" stroke-width="44.6875" stroke-linecap="round" stroke-linejoin="miter" stroke-miterlimit="8" stroke-opacity="1" fill="none" fill-rule="evenodd" transform="matrix(-1 0 0 1 3619.04 1273.5)"/><path d="M1188.5 1748.5 1341.17 1748.5" stroke="#3B7D23" stroke-width="44.6875" stroke-linecap="round" stroke-linejoin="miter" stroke-miterlimit="8" stroke-opacity="1" fill="none" fill-rule="evenodd"/><path d="M2022.5 1748.5 2174.21 1748.5" stroke="#3B7D23" stroke-width="44.6875" stroke-linecap="round" stroke-linejoin="miter" stroke-miterlimit="8" stroke-opacity="1" fill="none" fill-rule="evenodd"/><path d="M2660.5 1878.24C2660.5 1873.41 2664.41 1869.5 2669.24 1869.5L3188.76 1869.5C3193.59 1869.5 3197.5 1873.41 3197.5 1878.24L3197.5 1994.76C3197.5 1999.59 3193.59 2003.5 3188.76 2003.5L2669.24 2003.5C2664.41 2003.5 2660.5 1999.59 2660.5 1994.76Z" stroke="#042433" stroke-width="6.875" stroke-linecap="butt" stroke-linejoin="miter" stroke-miterlimit="8" stroke-opacity="1" fill="#F2AA84" fill-rule="evenodd" fill-opacity="1"/><text fill="#000000" fill-opacity="1" font-family="Arial,Arial_MSFontService,sans-serif" font-style="normal" font-variant="normal" font-weight="400" font-stretch="normal" font-size="83" text-anchor="start" direction="ltr" writing-mode="lr-tb" unicode-bidi="normal" text-decoration="none" transform="matrix(1 0 0 1 2710.7 1968)">Classic Arm</text><path d="M0 0 0.191273 121.336" stroke="#3B7D23" stroke-width="44.6875" stroke-linecap="round" stroke-linejoin="miter" stroke-miterlimit="8" stroke-opacity="1" fill="none" fill-rule="evenodd" transform="matrix(-1 0 0 1 2928.69 1748.5)"/><path d="M2861.5 1748.5 2997.94 1748.5" stroke="#3B7D23" stroke-width="44.6875" stroke-linecap="round" stroke-linejoin="miter" stroke-miterlimit="8" stroke-opacity="1" fill="none" fill-rule="evenodd"/><path d="M3366.5 1878.24C3366.5 1873.41 3370.41 1869.5 3375.24 1869.5L3771.76 1869.5C3776.59 1869.5 3780.5 1873.41 3780.5 1878.24L3780.5 1994.76C3780.5 1999.59 3776.59 2003.5 3771.76 2003.5L3375.24 2003.5C3370.41 2003.5 3366.5 1999.59 3366.5 1994.76Z" stroke="#042433" stroke-width="6.875" stroke-linecap="butt" stroke-linejoin="miter" stroke-miterlimit="8" stroke-opacity="1" fill="#F2AA84" fill-rule="evenodd" fill-opacity="1"/><text fill="#000000" fill-opacity="1" font-family="Arial,Arial_MSFontService,sans-serif" font-style="normal" font-variant="normal" font-weight="400" font-stretch="normal" font-size="83" text-anchor="start" direction="ltr" writing-mode="lr-tb" unicode-bidi="normal" text-decoration="none" transform="matrix(1 0 0 1 3451.54 1968)">Si Arm</text><path d="M3573.5 1809.5 3573.5 1869.52" stroke="#3B7D23" stroke-width="44.6875" stroke-linecap="round" stroke-linejoin="miter" stroke-miterlimit="8" stroke-opacity="1" fill="none" fill-rule="evenodd"/><path d="M1829.5 1878.24C1829.5 1873.41 1833.41 1869.5 1838.24 1869.5L2357.76 1869.5C2362.59 1869.5 2366.5 1873.41 2366.5 1878.24L2366.5 1994.76C2366.5 1999.59 2362.59 2003.5 2357.76 2003.5L1838.24 2003.5C1833.41 2003.5 1829.5 1999.59 1829.5 1994.76Z" stroke="#042433" stroke-width="6.875" stroke-linecap="butt" stroke-linejoin="miter" stroke-miterlimit="8" stroke-opacity="1" fill="#F2AA84" fill-rule="evenodd" fill-opacity="1"/><text fill="#000000" fill-opacity="1" font-family="Arial,Arial_MSFontService,sans-serif" font-style="normal" font-variant="normal" font-weight="400" font-stretch="normal" font-size="83" text-anchor="start" direction="ltr" writing-mode="lr-tb" unicode-bidi="normal" text-decoration="none" transform="matrix(1 0 0 1 1879.83 1968)">Classic Arm</text><path d="M2098.5 1748.5 2098.5 1869.84" stroke="#3B7D23" stroke-width="44.6875" stroke-linecap="round" stroke-linejoin="miter" stroke-miterlimit="8" stroke-opacity="1" fill="none" fill-rule="evenodd"/><path d="M994.5 1878.24C994.5 1873.41 998.411 1869.5 1003.24 1869.5L1522.76 1869.5C1527.59 1869.5 1531.5 1873.41 1531.5 1878.24L1531.5 1994.76C1531.5 1999.59 1527.59 2003.5 1522.76 2003.5L1003.24 2003.5C998.411 2003.5 994.5 1999.59 994.5 1994.76Z" stroke="#042433" stroke-width="6.875" stroke-linecap="butt" stroke-linejoin="miter" stroke-miterlimit="8" stroke-opacity="1" fill="#F2AA84" fill-rule="evenodd" fill-opacity="1"/><text fill="#000000" fill-opacity="1" font-family="Arial,Arial_MSFontService,sans-serif" font-style="normal" font-variant="normal" font-weight="400" font-stretch="normal" font-size="83" text-anchor="start" direction="ltr" writing-mode="lr-tb" unicode-bidi="normal" text-decoration="none" transform="matrix(1 0 0 1 1044.57 1968)">Classic Arm</text><path d="M1263.5 1748.5 1263.5 1869.84" stroke="#3B7D23" stroke-width="44.6875" stroke-linecap="round" stroke-linejoin="miter" stroke-miterlimit="8" stroke-opacity="1" fill="none" fill-rule="evenodd"/><path d="M0 0 394.107 0.000360892" stroke="#000000" stroke-width="44.6875" stroke-linecap="round" stroke-linejoin="miter" stroke-miterlimit="8" stroke-opacity="1" fill="none" fill-rule="evenodd" transform="matrix(-1 0 0 1 1956.61 1273.5)"/><path d="M0 0 0.000360892 301.698" stroke="#4E95D9" stroke-width="44.6875" stroke-linecap="round" stroke-linejoin="miter" stroke-miterlimit="8" stroke-opacity="1" fill="none" fill-rule="evenodd" transform="matrix(1 0 0 -1 660.5 1501.2)"/><path d="M0 0 2803.47 0.000360892" stroke="#4E95D9" stroke-width="44.6875" stroke-linecap="round" stroke-linejoin="miter" stroke-miterlimit="8" stroke-opacity="1" fill="none" fill-rule="evenodd" transform="matrix(-1 0 0 1 3463.97 1199.5)"/></g></g></svg>