<svg width="3337" height="1040" xmlns="http://www.w3.org/2000/svg" xmlns:xlink="http://www.w3.org/1999/xlink" xml:space="preserve" overflow="hidden"><g transform="translate(-476 -307)"><g><path d="M870.5 430.899C870.5 413.006 885.006 398.5 902.899 398.5L1624.1 398.5C1641.99 398.5 1656.5 413.006 1656.5 430.899L1656.5 863.101C1656.5 880.994 1641.99 895.5 1624.1 895.5L902.899 895.5C885.006 895.5 870.5 880.994 870.5 863.101Z" stroke="#042433" stroke-width="6.875" stroke-linecap="butt" stroke-linejoin="miter" stroke-miterlimit="8" stroke-opacity="1" fill="#FDE49F" fill-rule="evenodd" fill-opacity="1"/><rect x="905.5" y="753.5" width="339" height="123" stroke="#042433" stroke-width="6.875" stroke-linecap="butt" stroke-linejoin="miter" stroke-miterlimit="8" stroke-opacity="1" fill="#FDD466" fill-opacity="1"/><text fill="#000000" fill-opacity="1" font-family="Arial,Arial_MSFontService,sans-serif" font-style="normal" font-variant="normal" font-weight="400" font-stretch="normal" font-size="64" text-anchor="start" direction="ltr" writing-mode="lr-tb" unicode-bidi="normal" text-decoration="none" transform="matrix(1 0 0 1 1010.43 838)">QLA</text><path d="M484.5 620.668C484.5 592.409 507.408 569.5 535.668 569.5L772.332 569.5C800.592 569.5 823.5 592.409 823.5 620.668L823.5 825.332C823.5 853.591 800.592 876.5 772.332 876.5L535.668 876.5C507.408 876.5 484.5 853.591 484.5 825.332Z" stroke="#042433" stroke-width="6.875" stroke-linecap="butt" stroke-linejoin="miter" stroke-miterlimit="8" stroke-opacity="1" fill="#A6CAEC" fill-rule="evenodd" fill-opacity="1"/><text fill="#000000" fill-opacity="1" font-family="Arial,Arial_MSFontService,sans-serif" font-style="normal" font-variant="normal" font-weight="400" font-stretch="normal" font-size="83" text-anchor="start" direction="ltr" writing-mode="lr-tb" unicode-bidi="normal" text-decoration="none" transform="matrix(1 0 0 1 596.254 753)">PC</text><rect x="1279.5" y="753.5" width="339" height="123" stroke="#042433" stroke-width="6.875" stroke-linecap="butt" stroke-linejoin="miter" stroke-miterlimit="8" stroke-opacity="1" fill="#FDD466" fill-opacity="1"/><text fill="#000000" fill-opacity="1" font-family="Arial,Arial_MSFontService,sans-serif" font-style="normal" font-variant="normal" font-weight="400" font-stretch="normal" font-size="64" text-anchor="start" direction="ltr" writing-mode="lr-tb" unicode-bidi="normal" text-decoration="none" transform="matrix(1 0 0 1 1384.28 838)">QLA</text><path d="M2536.5 565.512C2536.5 552.803 2546.8 542.5 2559.51 542.5L3298.49 542.5C3311.2 542.5 3321.5 552.803 3321.5 565.512L3321.5 872.488C3321.5 885.197 3311.2 895.5 3298.49 895.5L2559.51 895.5C2546.8 895.5 2536.5 885.197 2536.5 872.488Z" stroke="#042433" stroke-width="6.875" stroke-linecap="butt" stroke-linejoin="miter" stroke-miterlimit="8" stroke-opacity="1" fill="#FDE49F" fill-rule="evenodd" fill-opacity="1"/><rect x="2571.5" y="753.5" width="339" height="123" stroke="#042433" stroke-width="6.875" stroke-linecap="butt" stroke-linejoin="miter" stroke-miterlimit="8" stroke-opacity="1" fill="#FDD466" fill-opacity="1"/><text fill="#000000" fill-opacity="1" font-family="Arial,Arial_MSFontService,sans-serif" font-style="normal" font-variant="normal" font-weight="400" font-stretch="normal" font-size="64" text-anchor="start" direction="ltr" writing-mode="lr-tb" unicode-bidi="normal" text-decoration="none" transform="matrix(1 0 0 1 2676.04 838)">QLA</text><rect x="2945.5" y="753.5" width="339" height="123" stroke="#042433" stroke-width="6.875" stroke-linecap="butt" stroke-linejoin="miter" stroke-miterlimit="8" stroke-opacity="1" fill="#FDD466" fill-opacity="1"/><text fill="#000000" fill-opacity="1" font-family="Arial,Arial_MSFontService,sans-serif" font-style="normal" font-variant="normal" font-weight="400" font-stretch="normal" font-size="64" text-anchor="start" direction="ltr" writing-mode="lr-tb" unicode-bidi="normal" text-decoration="none" transform="matrix(1 0 0 1 3049.89 838)">QLA</text><path d="M1121.87 336.203 683.5 331.5" stroke="#000000" stroke-width="44.6875" stroke-linecap="round" stroke-linejoin="miter" stroke-miterlimit="8" stroke-opacity="1" fill="none" fill-rule="evenodd"/><path d="M3366.5 565.512C3366.5 552.803 3376.8 542.5 3389.51 542.5L3757.49 542.5C3770.2 542.5 3780.5 552.803 3780.5 565.512L3780.5 872.488C3780.5 885.197 3770.2 895.5 3757.49 895.5L3389.51 895.5C3376.8 895.5 3366.5 885.197 3366.5 872.488Z" stroke="#042433" stroke-width="6.875" stroke-linecap="butt" stroke-linejoin="miter" stroke-miterlimit="8" stroke-opacity="1" fill="#FDE49F" fill-rule="evenodd" fill-opacity="1"/><rect x="3404.5" y="753.5" width="338" height="123" stroke="#042433" stroke-width="6.875" stroke-linecap="butt" stroke-linejoin="miter" stroke-miterlimit="8" stroke-opacity="1" fill="#FDD466" fill-opacity="1"/><text fill="#000000" fill-opacity="1" font-family="Arial,Arial_MSFontService,sans-serif" font-style="normal" font-variant="normal" font-weight="400" font-stretch="normal" font-size="64" text-anchor="start" direction="ltr" writing-mode="lr-tb" unicode-bidi="normal" text-decoration="none" transform="matrix(1 0 0 1 3487.35 838)">dRAC</text><path d="M1705.5 430.9C1705.5 413.006 1720.01 398.5 1737.9 398.5L2458.1 398.5C2475.99 398.5 2490.5 413.006 2490.5 430.9L2490.5 863.112C2490.5 881.006 2475.99 895.512 2458.1 895.512L1737.9 895.512C1720.01 895.512 1705.5 881.006 1705.5 863.112Z" stroke="#042433" stroke-width="6.875" stroke-linecap="butt" stroke-linejoin="miter" stroke-miterlimit="8" stroke-opacity="1" fill="#FDE49F" fill-rule="evenodd" fill-opacity="1"/><rect x="1740.5" y="753.5" width="339" height="123" stroke="#042433" stroke-width="6.875" stroke-linecap="butt" stroke-linejoin="miter" stroke-miterlimit="8" stroke-opacity="1" fill="#FDD466" fill-opacity="1"/><text fill="#000000" fill-opacity="1" font-family="Arial,Arial_MSFontService,sans-serif" font-style="normal" font-variant="normal" font-weight="400" font-stretch="normal" font-size="64" text-anchor="start" direction="ltr" writing-mode="lr-tb" unicode-bidi="normal" text-decoration="none" transform="matrix(1 0 0 1 1844.97 838)">QLA</text><rect x="2114.5" y="753.5" width="338" height="123" stroke="#042433" stroke-width="6.875" stroke-linecap="butt" stroke-linejoin="miter" stroke-miterlimit="8" stroke-opacity="1" fill="#FDD466" fill-opacity="1"/><text fill="#000000" fill-opacity="1" font-family="Arial,Arial_MSFontService,sans-serif" font-style="normal" font-variant="normal" font-weight="400" font-stretch="normal" font-size="64" text-anchor="start" direction="ltr" writing-mode="lr-tb" unicode-bidi="normal" text-decoration="none" transform="matrix(1 0 0 1 2218.82 838)">QLA</text><rect x="905.5" y="568.5" width="339" height="184" stroke="#042433" stroke-width="6.875" stroke-linecap="butt" stroke-linejoin="miter" stroke-miterlimit="8" stroke-opacity="1" fill="#FDD466" fill-opacity="1"/><text fill="#000000" fill-opacity="1" font-family="Arial,Arial_MSFontService,sans-serif" font-style="normal" font-variant="normal" font-weight="400" font-stretch="normal" font-size="64" text-anchor="start" direction="ltr" writing-mode="lr-tb" unicode-bidi="normal" text-decoration="none" transform="matrix(1 0 0 1 987.224 645)">FPGA</text><text fill="#000000" fill-opacity="1" font-family="Arial,Arial_MSFontService,sans-serif" font-style="normal" font-variant="normal" font-weight="400" font-stretch="normal" font-size="64" text-anchor="start" direction="ltr" writing-mode="lr-tb" unicode-bidi="normal" text-decoration="none" transform="matrix(1 0 0 1 1035.35 722)">V1</text><path d="M0 0 0.000360892 94.6798" stroke="#000000" stroke-width="44.6875" stroke-linecap="round" stroke-linejoin="miter" stroke-miterlimit="8" stroke-opacity="1" fill="none" fill-rule="evenodd" transform="matrix(1 0 0 -1 1188.5 568.18)"/><path d="M0 0 0.000360892 231.731" stroke="#000000" stroke-width="44.6875" stroke-linecap="round" stroke-linejoin="miter" stroke-miterlimit="8" stroke-opacity="1" fill="none" fill-rule="evenodd" transform="matrix(1 0 0 -1 1121.5 568.231)"/><rect x="1279.5" y="569.5" width="339" height="184" stroke="#042433" stroke-width="6.875" stroke-linecap="butt" stroke-linejoin="miter" stroke-miterlimit="8" stroke-opacity="1" fill="#FDD466" fill-opacity="1"/><text fill="#000000" fill-opacity="1" font-family="Arial,Arial_MSFontService,sans-serif" font-style="normal" font-variant="normal" font-weight="400" font-stretch="normal" font-size="64" text-anchor="start" direction="ltr" writing-mode="lr-tb" unicode-bidi="normal" text-decoration="none" transform="matrix(1 0 0 1 1361.08 646)">FPGA</text><text fill="#000000" fill-opacity="1" font-family="Arial,Arial_MSFontService,sans-serif" font-style="normal" font-variant="normal" font-weight="400" font-stretch="normal" font-size="64" text-anchor="start" direction="ltr" writing-mode="lr-tb" unicode-bidi="normal" text-decoration="none" transform="matrix(1 0 0 1 1409.2 723)">V1</text><path d="M0 0 0.000360892 229.375" stroke="#000000" stroke-width="44.6875" stroke-linecap="round" stroke-linejoin="miter" stroke-miterlimit="8" stroke-opacity="1" fill="none" fill-rule="evenodd" transform="matrix(1 0 0 -1 1562.5 569.875)"/><path d="M0 0 0.000360892 95.979" stroke="#000000" stroke-width="44.6875" stroke-linecap="round" stroke-linejoin="miter" stroke-miterlimit="8" stroke-opacity="1" fill="none" fill-rule="evenodd" transform="matrix(1 0 0 -1 1495.5 569.479)"/><rect x="1740.5" y="568.5" width="339" height="184" stroke="#042433" stroke-width="6.875" stroke-linecap="butt" stroke-linejoin="miter" stroke-miterlimit="8" stroke-opacity="1" fill="#FDD466" fill-opacity="1"/><text fill="#000000" fill-opacity="1" font-family="Arial,Arial_MSFontService,sans-serif" font-style="normal" font-variant="normal" font-weight="400" font-stretch="normal" font-size="64" text-anchor="start" direction="ltr" writing-mode="lr-tb" unicode-bidi="normal" text-decoration="none" transform="matrix(1 0 0 1 1821.77 645)">FPGA</text><text fill="#000000" fill-opacity="1" font-family="Arial,Arial_MSFontService,sans-serif" font-style="normal" font-variant="normal" font-weight="400" font-stretch="normal" font-size="64" text-anchor="start" direction="ltr" writing-mode="lr-tb" unicode-bidi="normal" text-decoration="none" transform="matrix(1 0 0 1 1869.89 722)">V2</text><path d="M0 0 0.000360892 94.6798" stroke="#000000" stroke-width="44.6875" stroke-linecap="round" stroke-linejoin="miter" stroke-miterlimit="8" stroke-opacity="1" fill="none" fill-rule="evenodd" transform="matrix(1 0 0 -1 2022.5 568.18)"/><path d="M0 0 0.000360892 228.076" stroke="#000000" stroke-width="44.6875" stroke-linecap="round" stroke-linejoin="miter" stroke-miterlimit="8" stroke-opacity="1" fill="none" fill-rule="evenodd" transform="matrix(1 0 0 -1 1956.5 568.576)"/><path d="M0 0 0.000360892 169.421" stroke="#4E95D9" stroke-width="44.6875" stroke-linecap="round" stroke-linejoin="miter" stroke-miterlimit="8" stroke-opacity="1" fill="none" fill-rule="evenodd" transform="matrix(1 0 0 -1 1800.5 567.921)"/><rect x="2114.5" y="568.5" width="338" height="184" stroke="#042433" stroke-width="6.875" stroke-linecap="butt" stroke-linejoin="miter" stroke-miterlimit="8" stroke-opacity="1" fill="#FDD466" fill-opacity="1"/><text fill="#000000" fill-opacity="1" font-family="Arial,Arial_MSFontService,sans-serif" font-style="normal" font-variant="normal" font-weight="400" font-stretch="normal" font-size="64" text-anchor="start" direction="ltr" writing-mode="lr-tb" unicode-bidi="normal" text-decoration="none" transform="matrix(1 0 0 1 2195.62 645)">FPGA</text><text fill="#000000" fill-opacity="1" font-family="Arial,Arial_MSFontService,sans-serif" font-style="normal" font-variant="normal" font-weight="400" font-stretch="normal" font-size="64" text-anchor="start" direction="ltr" writing-mode="lr-tb" unicode-bidi="normal" text-decoration="none" transform="matrix(1 0 0 1 2243.74 722)">V2</text><path d="M0 0 0.000360892 228.076" stroke="#000000" stroke-width="44.6875" stroke-linecap="round" stroke-linejoin="miter" stroke-miterlimit="8" stroke-opacity="1" fill="none" fill-rule="evenodd" transform="matrix(1 0 0 -1 2396.5 568.576)"/><path d="M0 0 0.000360892 94.6798" stroke="#000000" stroke-width="44.6875" stroke-linecap="round" stroke-linejoin="miter" stroke-miterlimit="8" stroke-opacity="1" fill="none" fill-rule="evenodd" transform="matrix(1 0 0 -1 2330.5 568.18)"/><path d="M0 0 0.000360892 169.421" stroke="#4E95D9" stroke-width="44.6875" stroke-linecap="round" stroke-linejoin="miter" stroke-miterlimit="8" stroke-opacity="1" fill="none" fill-rule="evenodd" transform="matrix(1 0 0 -1 2174.5 567.921)"/><rect x="2757.5" y="568.5" width="339" height="184" stroke="#042433" stroke-width="6.875" stroke-linecap="butt" stroke-linejoin="miter" stroke-miterlimit="8" stroke-opacity="1" fill="#FDD466" fill-opacity="1"/><text fill="#000000" fill-opacity="1" font-family="Arial,Arial_MSFontService,sans-serif" font-style="normal" font-variant="normal" font-weight="400" font-stretch="normal" font-size="64" text-anchor="start" direction="ltr" writing-mode="lr-tb" unicode-bidi="normal" text-decoration="none" transform="matrix(1 0 0 1 2838.7 645)">FPGA</text><text fill="#000000" fill-opacity="1" font-family="Arial,Arial_MSFontService,sans-serif" font-style="normal" font-variant="normal" font-weight="400" font-stretch="normal" font-size="64" text-anchor="start" direction="ltr" writing-mode="lr-tb" unicode-bidi="normal" text-decoration="none" transform="matrix(1 0 0 1 2886.82 722)">V3</text><path d="M0 0 0.000360892 228.076" stroke="#000000" stroke-width="44.6875" stroke-linecap="round" stroke-linejoin="miter" stroke-miterlimit="8" stroke-opacity="1" fill="none" fill-rule="evenodd" transform="matrix(1 0 0 -1 3039.5 568.576)"/><path d="M0 0 0.000360892 228.076" stroke="#000000" stroke-width="44.6875" stroke-linecap="round" stroke-linejoin="miter" stroke-miterlimit="8" stroke-opacity="1" fill="none" fill-rule="evenodd" transform="matrix(1 0 0 -1 2973.5 568.576)"/><path d="M0 0 0.000360892 25.9781" stroke="#4E95D9" stroke-width="44.6875" stroke-linecap="round" stroke-linejoin="miter" stroke-miterlimit="8" stroke-opacity="1" fill="none" fill-rule="evenodd" transform="matrix(1 0 0 -1 2817.5 568.478)"/><path d="M0 0 0.000360892 25.9781" stroke="#4E95D9" stroke-width="44.6875" stroke-linecap="round" stroke-linejoin="miter" stroke-miterlimit="8" stroke-opacity="1" fill="none" fill-rule="evenodd" transform="matrix(1 0 0 -1 2876.5 568.478)"/><rect x="3403.5" y="568.5" width="339" height="184" stroke="#042433" stroke-width="6.875" stroke-linecap="butt" stroke-linejoin="miter" stroke-miterlimit="8" stroke-opacity="1" fill="#FDD466" fill-opacity="1"/><text fill="#000000" fill-opacity="1" font-family="Arial,Arial_MSFontService,sans-serif" font-style="normal" font-variant="normal" font-weight="400" font-stretch="normal" font-size="64" text-anchor="start" direction="ltr" writing-mode="lr-tb" unicode-bidi="normal" text-decoration="none" transform="matrix(1 0 0 1 3484.82 645)">FPGA</text><text fill="#000000" fill-opacity="1" font-family="Arial,Arial_MSFontService,sans-serif" font-style="normal" font-variant="normal" font-weight="400" font-stretch="normal" font-size="64" text-anchor="start" direction="ltr" writing-mode="lr-tb" unicode-bidi="normal" text-decoration="none" transform="matrix(1 0 0 1 3532.95 722)">V3</text><path d="M0 0 0.000360892 25.9781" stroke="#000000" stroke-width="44.6875" stroke-linecap="round" stroke-linejoin="miter" stroke-miterlimit="8" stroke-opacity="1" fill="none" fill-rule="evenodd" transform="matrix(1 0 0 -1 3685.5 568.478)"/><path d="M0 0 0.000360892 228.076" stroke="#000000" stroke-width="44.6875" stroke-linecap="round" stroke-linejoin="miter" stroke-miterlimit="8" stroke-opacity="1" fill="none" fill-rule="evenodd" transform="matrix(1 0 0 -1 3619.5 568.576)"/><path d="M0 0 0.000360892 25.9781" stroke="#4E95D9" stroke-width="44.6875" stroke-linecap="round" stroke-linejoin="miter" stroke-miterlimit="8" stroke-opacity="1" fill="none" fill-rule="evenodd" transform="matrix(1 0 0 -1 3463.5 568.478)"/><path d="M0 0 0.000360892 25.9781" stroke="#4E95D9" stroke-width="44.6875" stroke-linecap="round" stroke-linejoin="miter" stroke-miterlimit="8" stroke-opacity="1" fill="none" fill-rule="evenodd" transform="matrix(1 0 0 -1 3522.5 568.478)"/><path d="M0 0 307.267 0.000360892" stroke="#000000" stroke-width="44.6875" stroke-linecap="round" stroke-linejoin="miter" stroke-miterlimit="8" stroke-opacity="1" fill="none" fill-rule="evenodd" transform="matrix(-1 0 0 1 1495.77 473.5)"/><path d="M0 0 0.000360892 234.082" stroke="#000000" stroke-width="44.6875" stroke-linecap="round" stroke-linejoin="miter" stroke-miterlimit="8" stroke-opacity="1" fill="none" fill-rule="evenodd" transform="matrix(1 0 0 -1 683.5 568.582)"/><path d="M0 0 394.107 0.000360892" stroke="#000000" stroke-width="44.6875" stroke-linecap="round" stroke-linejoin="miter" stroke-miterlimit="8" stroke-opacity="1" fill="none" fill-rule="evenodd" transform="matrix(-1 0 0 1 1956.61 340.5)"/><path d="M0 0 307.267 0.000360892" stroke="#000000" stroke-width="44.6875" stroke-linecap="round" stroke-linejoin="miter" stroke-miterlimit="8" stroke-opacity="1" fill="none" fill-rule="evenodd" transform="matrix(-1 0 0 1 2329.77 473.5)"/><path d="M0 0 576.493 0.000360892" stroke="#000000" stroke-width="44.6875" stroke-linecap="round" stroke-linejoin="miter" stroke-miterlimit="8" stroke-opacity="1" fill="none" fill-rule="evenodd" transform="matrix(-1 0 0 1 2972.99 340.5)"/><path d="M0 0 579.541 0.000360892" stroke="#000000" stroke-width="44.6875" stroke-linecap="round" stroke-linejoin="miter" stroke-miterlimit="8" stroke-opacity="1" fill="none" fill-rule="evenodd" transform="matrix(-1 0 0 1 3619.04 340.5)"/><path d="M1188.5 814.5 1341.17 814.5" stroke="#3B7D23" stroke-width="44.6875" stroke-linecap="round" stroke-linejoin="miter" stroke-miterlimit="8" stroke-opacity="1" fill="none" fill-rule="evenodd"/><path d="M2022.5 814.5 2174.21 814.5" stroke="#3B7D23" stroke-width="44.6875" stroke-linecap="round" stroke-linejoin="miter" stroke-miterlimit="8" stroke-opacity="1" fill="none" fill-rule="evenodd"/><path d="M2660.5 945.236C2660.5 940.411 2664.41 936.5 2669.24 936.5L3188.76 936.5C3193.59 936.5 3197.5 940.411 3197.5 945.236L3197.5 1061.76C3197.5 1066.59 3193.59 1070.5 3188.76 1070.5L2669.24 1070.5C2664.41 1070.5 2660.5 1066.59 2660.5 1061.76Z" stroke="#042433" stroke-width="6.875" stroke-linecap="butt" stroke-linejoin="miter" stroke-miterlimit="8" stroke-opacity="1" fill="#F2AA84" fill-rule="evenodd" fill-opacity="1"/><text fill="#000000" fill-opacity="1" font-family="Arial,Arial_MSFontService,sans-serif" font-style="normal" font-variant="normal" font-weight="400" font-stretch="normal" font-size="83" text-anchor="start" direction="ltr" writing-mode="lr-tb" unicode-bidi="normal" text-decoration="none" transform="matrix(1 0 0 1 2710.7 1035)">Classic Arm</text><path d="M0 0 0.191273 121.336" stroke="#3B7D23" stroke-width="44.6875" stroke-linecap="round" stroke-linejoin="miter" stroke-miterlimit="8" stroke-opacity="1" fill="none" fill-rule="evenodd" transform="matrix(-1 0 0 1 2928.69 814.5)"/><path d="M2861.5 814.5 2997.94 814.5" stroke="#3B7D23" stroke-width="44.6875" stroke-linecap="round" stroke-linejoin="miter" stroke-miterlimit="8" stroke-opacity="1" fill="none" fill-rule="evenodd"/><path d="M3366.5 945.235C3366.5 940.411 3370.41 936.5 3375.24 936.5L3771.76 936.5C3776.59 936.5 3780.5 940.411 3780.5 945.235L3780.5 1061.76C3780.5 1066.59 3776.59 1070.5 3771.76 1070.5L3375.24 1070.5C3370.41 1070.5 3366.5 1066.59 3366.5 1061.76Z" stroke="#042433" stroke-width="6.875" stroke-linecap="butt" stroke-linejoin="miter" stroke-miterlimit="8" stroke-opacity="1" fill="#F2AA84" fill-rule="evenodd" fill-opacity="1"/><text fill="#000000" fill-opacity="1" font-family="Arial,Arial_MSFontService,sans-serif" font-style="normal" font-variant="normal" font-weight="400" font-stretch="normal" font-size="83" text-anchor="start" direction="ltr" writing-mode="lr-tb" unicode-bidi="normal" text-decoration="none" transform="matrix(1 0 0 1 3451.54 1035)">Si Arm</text><path d="M3573.5 876.5 3573.5 936.518" stroke="#3B7D23" stroke-width="44.6875" stroke-linecap="round" stroke-linejoin="miter" stroke-miterlimit="8" stroke-opacity="1" fill="none" fill-rule="evenodd"/><path d="M1829.5 945.236C1829.5 940.411 1833.41 936.5 1838.24 936.5L2357.76 936.5C2362.59 936.5 2366.5 940.411 2366.5 945.236L2366.5 1061.76C2366.5 1066.59 2362.59 1070.5 2357.76 1070.5L1838.24 1070.5C1833.41 1070.5 1829.5 1066.59 1829.5 1061.76Z" stroke="#042433" stroke-width="6.875" stroke-linecap="butt" stroke-linejoin="miter" stroke-miterlimit="8" stroke-opacity="1" fill="#F2AA84" fill-rule="evenodd" fill-opacity="1"/><text fill="#000000" fill-opacity="1" font-family="Arial,Arial_MSFontService,sans-serif" font-style="normal" font-variant="normal" font-weight="400" font-stretch="normal" font-size="83" text-anchor="start" direction="ltr" writing-mode="lr-tb" unicode-bidi="normal" text-decoration="none" transform="matrix(1 0 0 1 1879.83 1035)">Classic Arm</text><path d="M2098.5 814.5 2098.5 935.835" stroke="#3B7D23" stroke-width="44.6875" stroke-linecap="round" stroke-linejoin="miter" stroke-miterlimit="8" stroke-opacity="1" fill="none" fill-rule="evenodd"/><path d="M994.5 945.236C994.5 940.411 998.411 936.5 1003.24 936.5L1522.76 936.5C1527.59 936.5 1531.5 940.411 1531.5 945.236L1531.5 1061.76C1531.5 1066.59 1527.59 1070.5 1522.76 1070.5L1003.24 1070.5C998.411 1070.5 994.5 1066.59 994.5 1061.76Z" stroke="#042433" stroke-width="6.875" stroke-linecap="butt" stroke-linejoin="miter" stroke-miterlimit="8" stroke-opacity="1" fill="#F2AA84" fill-rule="evenodd" fill-opacity="1"/><text fill="#000000" fill-opacity="1" font-family="Arial,Arial_MSFontService,sans-serif" font-style="normal" font-variant="normal" font-weight="400" font-stretch="normal" font-size="83" text-anchor="start" direction="ltr" writing-mode="lr-tb" unicode-bidi="normal" text-decoration="none" transform="matrix(1 0 0 1 1044.57 1035)">Classic Arm</text><path d="M1263.5 814.5 1263.5 935.835" stroke="#3B7D23" stroke-width="44.6875" stroke-linecap="round" stroke-linejoin="miter" stroke-miterlimit="8" stroke-opacity="1" fill="none" fill-rule="evenodd"/><path d="M0 0 308.411 0.000360892" stroke="#4E95D9" stroke-width="44.6875" stroke-linecap="round" stroke-linejoin="miter" stroke-miterlimit="8" stroke-opacity="1" fill="none" fill-rule="evenodd" transform="matrix(-1 0 0 1 2800.91 1248.5)"/><path d="M0 0 307.267 0.000360892" stroke="#000000" stroke-width="44.6875" stroke-linecap="round" stroke-linejoin="miter" stroke-miterlimit="8" stroke-opacity="1" fill="none" fill-rule="evenodd" transform="matrix(-1 0 0 1 2000.77 1248.5)"/><path d="M3314.5 1254.5 3622.91 1254.5" stroke="#3B7D23" stroke-width="44.6875" stroke-linecap="round" stroke-linejoin="miter" stroke-miterlimit="8" stroke-opacity="1" fill="none" fill-rule="evenodd"/><text fill="#000000" fill-opacity="1" font-family="Arial,Arial_MSFontService,sans-serif" font-style="normal" font-variant="normal" font-weight="400" font-stretch="normal" font-size="83" text-anchor="start" direction="ltr" writing-mode="lr-tb" unicode-bidi="normal" text-decoration="none" transform="matrix(1 0 0 1 2033.83 1278)">FireWire</text><text fill="#000000" fill-opacity="1" font-family="Arial,Arial_MSFontService,sans-serif" font-style="normal" font-variant="normal" font-weight="400" font-stretch="normal" font-size="83" text-anchor="start" direction="ltr" writing-mode="lr-tb" unicode-bidi="normal" text-decoration="none" transform="matrix(1 0 0 1 2830.71 1278)">Ethernet</text><text fill="#000000" fill-opacity="1" font-family="Arial,Arial_MSFontService,sans-serif" font-style="normal" font-variant="normal" font-weight="400" font-stretch="normal" font-size="83" text-anchor="start" direction="ltr" writing-mode="lr-tb" unicode-bidi="normal" text-decoration="none" transform="matrix(1 0 0 1 3652.41 1278)">I/O</text></g></g></svg>