<svg width="2159" height="1036" xmlns="http://www.w3.org/2000/svg" xmlns:xlink="http://www.w3.org/1999/xlink" xml:space="preserve" overflow="hidden"><g transform="translate(-1654 -311)"><g><path d="M1661.5 619.668C1661.5 591.409 1684.41 568.5 1712.67 568.5L1949.33 568.5C1977.59 568.5 2000.5 591.409 2000.5 619.668L2000.5 824.332C2000.5 852.591 1977.59 875.5 1949.33 875.5L1712.67 875.5C1684.41 875.5 1661.5 852.591 1661.5 824.332Z" stroke="#042433" stroke-width="6.875" stroke-linecap="butt" stroke-linejoin="miter" stroke-miterlimit="8" stroke-opacity="1" fill="#A6CAEC" fill-rule="evenodd" fill-opacity="1"/><text fill="#000000" fill-opacity="1" font-family="Arial,Arial_MSFontService,sans-serif" font-style="normal" font-variant="normal" font-weight="400" font-stretch="normal" font-size="83" text-anchor="start" direction="ltr" writing-mode="lr-tb" unicode-bidi="normal" text-decoration="none" transform="matrix(1 0 0 1 1773.42 752)">PC</text><path d="M2536.5 569.252C2536.5 556.686 2546.69 546.5 2559.25 546.5L3298.75 546.5C3311.31 546.5 3321.5 556.686 3321.5 569.252L3321.5 872.748C3321.5 885.314 3311.31 895.5 3298.75 895.5L2559.25 895.5C2546.69 895.5 2536.5 885.314 2536.5 872.748Z" stroke="#042433" stroke-width="6.875" stroke-linecap="butt" stroke-linejoin="miter" stroke-miterlimit="8" stroke-opacity="1" fill="#FDE49F" fill-rule="evenodd" fill-opacity="1"/><rect x="2571.5" y="753.5" width="339" height="123" stroke="#042433" stroke-width="6.875" stroke-linecap="butt" stroke-linejoin="miter" stroke-miterlimit="8" stroke-opacity="1" fill="#FDD466" fill-opacity="1"/><text fill="#000000" fill-opacity="1" font-family="Arial,Arial_MSFontService,sans-serif" font-style="normal" font-variant="normal" font-weight="400" font-stretch="normal" font-size="64" text-anchor="start" direction="ltr" writing-mode="lr-tb" unicode-bidi="normal" text-decoration="none" transform="matrix(1 0 0 1 2676.04 838)">QLA</text><rect x="2945.5" y="753.5" width="339" height="123" stroke="#042433" stroke-width="6.875" stroke-linecap="butt" stroke-linejoin="miter" stroke-miterlimit="8" stroke-opacity="1" fill="#FDD466" fill-opacity="1"/><text fill="#000000" fill-opacity="1" font-family="Arial,Arial_MSFontService,sans-serif" font-style="normal" font-variant="normal" font-weight="400" font-stretch="normal" font-size="64" text-anchor="start" direction="ltr" writing-mode="lr-tb" unicode-bidi="normal" text-decoration="none" transform="matrix(1 0 0 1 3049.89 838)">QLA</text><path d="M3366.5 569.252C3366.5 556.686 3376.69 546.5 3389.25 546.5L3757.75 546.5C3770.31 546.5 3780.5 556.686 3780.5 569.252L3780.5 872.749C3780.5 885.314 3770.31 895.5 3757.75 895.5L3389.25 895.5C3376.69 895.5 3366.5 885.314 3366.5 872.749Z" stroke="#042433" stroke-width="6.875" stroke-linecap="butt" stroke-linejoin="miter" stroke-miterlimit="8" stroke-opacity="1" fill="#FDE49F" fill-rule="evenodd" fill-opacity="1"/><rect x="3404.5" y="753.5" width="338" height="123" stroke="#042433" stroke-width="6.875" stroke-linecap="butt" stroke-linejoin="miter" stroke-miterlimit="8" stroke-opacity="1" fill="#FDD466" fill-opacity="1"/><text fill="#000000" fill-opacity="1" font-family="Arial,Arial_MSFontService,sans-serif" font-style="normal" font-variant="normal" font-weight="400" font-stretch="normal" font-size="64" text-anchor="start" direction="ltr" writing-mode="lr-tb" unicode-bidi="normal" text-decoration="none" transform="matrix(1 0 0 1 3487.35 838)">dRAC</text><path d="M0 0 0.000360892 229.965" stroke="#4E95D9" stroke-width="44.6875" stroke-linecap="round" stroke-linejoin="miter" stroke-miterlimit="8" stroke-opacity="1" fill="none" fill-rule="evenodd" transform="matrix(1 0 0 -1 1831.5 568.465)"/><rect x="2757.5" y="568.5" width="339" height="184" stroke="#042433" stroke-width="6.875" stroke-linecap="butt" stroke-linejoin="miter" stroke-miterlimit="8" stroke-opacity="1" fill="#FDD466" fill-opacity="1"/><text fill="#000000" fill-opacity="1" font-family="Arial,Arial_MSFontService,sans-serif" font-style="normal" font-variant="normal" font-weight="400" font-stretch="normal" font-size="64" text-anchor="start" direction="ltr" writing-mode="lr-tb" unicode-bidi="normal" text-decoration="none" transform="matrix(1 0 0 1 2838.7 645)">FPGA</text><text fill="#000000" fill-opacity="1" font-family="Arial,Arial_MSFontService,sans-serif" font-style="normal" font-variant="normal" font-weight="400" font-stretch="normal" font-size="64" text-anchor="start" direction="ltr" writing-mode="lr-tb" unicode-bidi="normal" text-decoration="none" transform="matrix(1 0 0 1 2886.82 722)">V3</text><path d="M0 0 0.000360892 25.9781" stroke="#000000" stroke-width="44.6875" stroke-linecap="round" stroke-linejoin="miter" stroke-miterlimit="8" stroke-opacity="1" fill="none" fill-rule="evenodd" transform="matrix(1 0 0 -1 3039.5 568.478)"/><path d="M0 0 0.000360892 25.9781" stroke="#000000" stroke-width="44.6875" stroke-linecap="round" stroke-linejoin="miter" stroke-miterlimit="8" stroke-opacity="1" fill="none" fill-rule="evenodd" transform="matrix(1 0 0 -1 2973.5 568.478)"/><path d="M0 0 0.000360892 228.076" stroke="#4E95D9" stroke-width="44.6875" stroke-linecap="round" stroke-linejoin="miter" stroke-miterlimit="8" stroke-opacity="1" fill="none" fill-rule="evenodd" transform="matrix(1 0 0 -1 2817.5 568.576)"/><path d="M0 0 0.000360892 228.076" stroke="#4E95D9" stroke-width="44.6875" stroke-linecap="round" stroke-linejoin="miter" stroke-miterlimit="8" stroke-opacity="1" fill="none" fill-rule="evenodd" transform="matrix(1 0 0 -1 2876.5 568.576)"/><rect x="3403.5" y="568.5" width="339" height="184" stroke="#042433" stroke-width="6.875" stroke-linecap="butt" stroke-linejoin="miter" stroke-miterlimit="8" stroke-opacity="1" fill="#FDD466" fill-opacity="1"/><text fill="#000000" fill-opacity="1" font-family="Arial,Arial_MSFontService,sans-serif" font-style="normal" font-variant="normal" font-weight="400" font-stretch="normal" font-size="64" text-anchor="start" direction="ltr" writing-mode="lr-tb" unicode-bidi="normal" text-decoration="none" transform="matrix(1 0 0 1 3484.82 645)">FPGA</text><text fill="#000000" fill-opacity="1" font-family="Arial,Arial_MSFontService,sans-serif" font-style="normal" font-variant="normal" font-weight="400" font-stretch="normal" font-size="64" text-anchor="start" direction="ltr" writing-mode="lr-tb" unicode-bidi="normal" text-decoration="none" transform="matrix(1 0 0 1 3532.95 722)">V3</text><path d="M0 0 0.000360892 25.9781" stroke="#000000" stroke-width="44.6875" stroke-linecap="round" stroke-linejoin="miter" stroke-miterlimit="8" stroke-opacity="1" fill="none" fill-rule="evenodd" transform="matrix(1 0 0 -1 3685.5 568.478)"/><path d="M0 0 0.000360892 25.9781" stroke="#000000" stroke-width="44.6875" stroke-linecap="round" stroke-linejoin="miter" stroke-miterlimit="8" stroke-opacity="1" fill="none" fill-rule="evenodd" transform="matrix(1 0 0 -1 3619.5 568.478)"/><path d="M0 0 5.41591 228.076" stroke="#4E95D9" stroke-width="44.6875" stroke-linecap="round" stroke-linejoin="miter" stroke-miterlimit="8" stroke-opacity="1" fill="none" fill-rule="evenodd" transform="matrix(1 0 0 -1 3463.5 568.576)"/><path d="M0 0 0.000360892 25.9781" stroke="#4E95D9" stroke-width="44.6875" stroke-linecap="round" stroke-linejoin="miter" stroke-miterlimit="8" stroke-opacity="1" fill="none" fill-rule="evenodd" transform="matrix(1 0 0 -1 3522.5 568.478)"/><path d="M2660.5 945.236C2660.5 940.411 2664.41 936.5 2669.24 936.5L3188.76 936.5C3193.59 936.5 3197.5 940.411 3197.5 945.236L3197.5 1061.76C3197.5 1066.59 3193.59 1070.5 3188.76 1070.5L2669.24 1070.5C2664.41 1070.5 2660.5 1066.59 2660.5 1061.76Z" stroke="#042433" stroke-width="6.875" stroke-linecap="butt" stroke-linejoin="miter" stroke-miterlimit="8" stroke-opacity="1" fill="#F2AA84" fill-rule="evenodd" fill-opacity="1"/><text fill="#000000" fill-opacity="1" font-family="Arial,Arial_MSFontService,sans-serif" font-style="normal" font-variant="normal" font-weight="400" font-stretch="normal" font-size="83" text-anchor="start" direction="ltr" writing-mode="lr-tb" unicode-bidi="normal" text-decoration="none" transform="matrix(1 0 0 1 2710.7 1035)">Classic Arm</text><path d="M0 0 0.191273 121.336" stroke="#3B7D23" stroke-width="44.6875" stroke-linecap="round" stroke-linejoin="miter" stroke-miterlimit="8" stroke-opacity="1" fill="none" fill-rule="evenodd" transform="matrix(-1 0 0 1 2928.69 814.5)"/><path d="M2861.5 814.5 2997.94 814.5" stroke="#3B7D23" stroke-width="44.6875" stroke-linecap="round" stroke-linejoin="miter" stroke-miterlimit="8" stroke-opacity="1" fill="none" fill-rule="evenodd"/><path d="M3366.5 945.235C3366.5 940.411 3370.41 936.5 3375.24 936.5L3771.76 936.5C3776.59 936.5 3780.5 940.411 3780.5 945.235L3780.5 1061.76C3780.5 1066.59 3776.59 1070.5 3771.76 1070.5L3375.24 1070.5C3370.41 1070.5 3366.5 1066.59 3366.5 1061.76Z" stroke="#042433" stroke-width="6.875" stroke-linecap="butt" stroke-linejoin="miter" stroke-miterlimit="8" stroke-opacity="1" fill="#F2AA84" fill-rule="evenodd" fill-opacity="1"/><text fill="#000000" fill-opacity="1" font-family="Arial,Arial_MSFontService,sans-serif" font-style="normal" font-variant="normal" font-weight="400" font-stretch="normal" font-size="83" text-anchor="start" direction="ltr" writing-mode="lr-tb" unicode-bidi="normal" text-decoration="none" transform="matrix(1 0 0 1 3451.54 1035)">Si Arm</text><path d="M3573.5 876.5 3573.5 936.518" stroke="#3B7D23" stroke-width="44.6875" stroke-linecap="round" stroke-linejoin="miter" stroke-miterlimit="8" stroke-opacity="1" fill="none" fill-rule="evenodd"/><path d="M2876.5 335.5 3468.99 338.694" stroke="#4E95D9" stroke-width="44.6875" stroke-linecap="round" stroke-linejoin="miter" stroke-miterlimit="8" stroke-opacity="1" fill="none" fill-rule="evenodd"/><path d="M1831.5 338.5 2817.82 338.5" stroke="#4E95D9" stroke-width="44.6875" stroke-linecap="round" stroke-linejoin="miter" stroke-miterlimit="8" stroke-opacity="1" fill="none" fill-rule="evenodd"/><path d="M0 0 308.411 0.000360892" stroke="#4E95D9" stroke-width="44.6875" stroke-linecap="round" stroke-linejoin="miter" stroke-miterlimit="8" stroke-opacity="1" fill="none" fill-rule="evenodd" transform="matrix(-1 0 0 1 2800.91 1248.5)"/><path d="M0 0 307.267 0.000360892" stroke="#000000" stroke-width="44.6875" stroke-linecap="round" stroke-linejoin="miter" stroke-miterlimit="8" stroke-opacity="1" fill="none" fill-rule="evenodd" transform="matrix(-1 0 0 1 2000.77 1248.5)"/><path d="M3314.5 1254.5 3622.91 1254.5" stroke="#3B7D23" stroke-width="44.6875" stroke-linecap="round" stroke-linejoin="miter" stroke-miterlimit="8" stroke-opacity="1" fill="none" fill-rule="evenodd"/><text fill="#000000" fill-opacity="1" font-family="Arial,Arial_MSFontService,sans-serif" font-style="normal" font-variant="normal" font-weight="400" font-stretch="normal" font-size="83" text-anchor="start" direction="ltr" writing-mode="lr-tb" unicode-bidi="normal" text-decoration="none" transform="matrix(1 0 0 1 2033.83 1278)">FireWire</text><text fill="#000000" fill-opacity="1" font-family="Arial,Arial_MSFontService,sans-serif" font-style="normal" font-variant="normal" font-weight="400" font-stretch="normal" font-size="83" text-anchor="start" direction="ltr" writing-mode="lr-tb" unicode-bidi="normal" text-decoration="none" transform="matrix(1 0 0 1 2830.71 1278)">Ethernet</text><text fill="#000000" fill-opacity="1" font-family="Arial,Arial_MSFontService,sans-serif" font-style="normal" font-variant="normal" font-weight="400" font-stretch="normal" font-size="83" text-anchor="start" direction="ltr" writing-mode="lr-tb" unicode-bidi="normal" text-decoration="none" transform="matrix(1 0 0 1 3652.41 1278)">I/O</text></g></g></svg>